# MagicaVoxel @ Ephtracy

# group
o 

# material
mtllib bird6.mtl
usemtl palette

# normals
vn -1 0 0
vn 1 0 0
vn 0 0 1
vn 0 0 -1
vn 0 -1 0
vn 0 1 0

# texcoords
vt 0.0644531 0.5
vt 0.0683594 0.5
vt 0.509766 0.5
vt 0.962891 0.5
vt 0.978516 0.5
vt 0.994141 0.5

# verts
v -0.5 0.2 0.1
v -0.5 0.2 0
v -0.5 0.3 0.1
v -0.5 0.3 0
v -0.4 0.2 0.2
v -0.4 0.2 0.1
v -0.4 0.2 0
v -0.4 0.2 -0.1
v -0.4 0.3 0.2
v -0.4 0.3 0.1
v -0.4 0.3 0
v -0.4 0.3 -0.1
v -0.2 0 0.1
v -0.2 0 0
v -0.2 0.1 0.3
v -0.2 0.1 0.1
v -0.2 0.1 0
v -0.2 0.1 -0.2
v -0.2 0.2 0.2
v -0.2 0.2 -0.1
v -0.2 0.3 0.2
v -0.2 0.3 -0.1
v -0.2 0.4 0
v -0.2 0.4 -0.2
v -0.2 0.5 0.2
v -0.2 0.5 0.1
v -0.2 0.6 0.3
v -0.2 0.6 0.2
v -0.2 0.6 0.1
v -0.2 0.6 0
v -0.2 0.7 0.2
v -0.2 0.7 0.1
v -0.1 0.2 -0.2
v -0.1 0.2 -0.4
v -0.1 0.3 -0.3
v -0.1 0.3 -0.4
v -0.1 0.4 0.4
v -0.1 0.4 0.3
v -0.1 0.4 -0.2
v -0.1 0.4 -0.3
v -0.1 0.5 0.4
v -0.1 0.5 0.3
v -0.1 0.5 0
v -0.1 0.5 -0.1
v -0.1 0.6 0.3
v -0.1 0.6 0.2
v -0.1 0.6 0.1
v -0.1 0.6 0
v -0.1 0.6 -0.1
v -0.1 0.7 0.3
v -0.1 0.7 0.2
v -0.1 0.7 0.1
v -0.1 0.7 0
v 0 0 0.1
v 0 0 0
v 0 0.1 0.1
v 0 0.1 0
v -0.1 0 0.1
v -0.1 0 0
v -0.1 0.1 0.1
v -0.1 0.1 0
v 0 0.2 -0.2
v 0 0.2 -0.4
v 0 0.3 -0.3
v 0 0.3 -0.4
v 0 0.4 0.4
v 0 0.4 0.3
v 0 0.4 -0.2
v 0 0.4 -0.3
v 0 0.5 0.4
v 0 0.5 0.3
v 0 0.5 0
v 0 0.5 -0.1
v 0 0.6 0.3
v 0 0.6 0.2
v 0 0.6 0.1
v 0 0.6 0
v 0 0.6 -0.1
v 0 0.7 0.3
v 0 0.7 0.2
v 0 0.7 0.1
v 0 0.7 0
v 0.1 0 0.1
v 0.1 0 0
v 0.1 0.1 0.3
v 0.1 0.1 0.1
v 0.1 0.1 0
v 0.1 0.1 -0.2
v 0.1 0.2 0.2
v 0.1 0.2 -0.1
v 0.1 0.3 0.2
v 0.1 0.3 -0.1
v 0.1 0.4 0
v 0.1 0.4 -0.2
v 0.1 0.5 0.2
v 0.1 0.5 0.1
v 0.1 0.6 0.3
v 0.1 0.6 0.2
v 0.1 0.6 0.1
v 0.1 0.6 0
v 0.1 0.7 0.2
v 0.1 0.7 0.1
v 0.3 0.2 0.2
v 0.3 0.2 0.1
v 0.3 0.2 0
v 0.3 0.2 -0.1
v 0.3 0.3 0.2
v 0.3 0.3 0.1
v 0.3 0.3 0
v 0.3 0.3 -0.1
v 0.4 0.2 0.1
v 0.4 0.2 0
v 0.4 0.3 0.1
v 0.4 0.3 0
v -0.1 0.4 0.4
v -0.1 0.5 0.4
v 0 0.4 0.4
v 0 0.5 0.4
v -0.2 0.1 0.3
v -0.2 0.6 0.3
v -0.1 0.4 0.3
v -0.1 0.5 0.3
v -0.1 0.6 0.3
v -0.1 0.7 0.3
v 0 0.4 0.3
v 0 0.5 0.3
v 0 0.6 0.3
v 0 0.7 0.3
v 0.1 0.1 0.3
v 0.1 0.6 0.3
v -0.4 0.2 0.2
v -0.4 0.3 0.2
v -0.3 0.2 0.2
v -0.3 0.3 0.2
v -0.2 0.2 0.2
v -0.2 0.3 0.2
v -0.2 0.6 0.2
v -0.2 0.7 0.2
v -0.1 0.6 0.2
v -0.1 0.7 0.2
v 0 0.6 0.2
v 0 0.7 0.2
v 0.1 0.2 0.2
v 0.1 0.3 0.2
v 0.1 0.6 0.2
v 0.1 0.7 0.2
v 0.2 0.2 0.2
v 0.2 0.3 0.2
v 0.3 0.2 0.2
v 0.3 0.3 0.2
v -0.5 0.2 0.1
v -0.5 0.3 0.1
v -0.4 0.2 0.1
v -0.4 0.3 0.1
v -0.2 0 0.1
v -0.2 0.1 0.1
v -0.1 0 0.1
v -0.1 0.1 0.1
v 0 0 0.1
v 0 0.1 0.1
v 0.1 0 0.1
v 0.1 0.1 0.1
v 0.3 0.2 0.1
v 0.3 0.3 0.1
v 0.4 0.2 0.1
v 0.4 0.3 0.1
v -0.2 0.6 0.1
v -0.2 0.7 0.1
v -0.1 0.6 0.1
v -0.1 0.7 0.1
v 0 0.6 0.1
v 0 0.7 0.1
v 0.1 0.6 0.1
v 0.1 0.7 0.1
v -0.5 0.2 0
v -0.5 0.3 0
v -0.4 0.2 0
v -0.4 0.3 0
v -0.2 0 0
v -0.2 0.1 0
v -0.2 0.4 0
v -0.2 0.6 0
v -0.1 0 0
v -0.1 0.1 0
v -0.1 0.5 0
v -0.1 0.6 0
v -0.1 0.7 0
v 0 0 0
v 0 0.1 0
v 0 0.5 0
v 0 0.6 0
v 0 0.7 0
v 0.1 0 0
v 0.1 0.1 0
v 0.1 0.4 0
v 0.1 0.6 0
v 0.3 0.2 0
v 0.3 0.3 0
v 0.4 0.2 0
v 0.4 0.3 0
v -0.4 0.2 -0.1
v -0.4 0.3 -0.1
v -0.3 0.2 -0.1
v -0.3 0.3 -0.1
v -0.2 0.2 -0.1
v -0.2 0.3 -0.1
v -0.1 0.5 -0.1
v -0.1 0.6 -0.1
v 0 0.5 -0.1
v 0 0.6 -0.1
v 0.1 0.2 -0.1
v 0.1 0.3 -0.1
v 0.2 0.2 -0.1
v 0.2 0.3 -0.1
v 0.3 0.2 -0.1
v 0.3 0.3 -0.1
v -0.2 0.1 -0.2
v -0.2 0.4 -0.2
v -0.1 0.2 -0.2
v -0.1 0.4 -0.2
v 0 0.2 -0.2
v 0 0.4 -0.2
v 0.1 0.1 -0.2
v 0.1 0.4 -0.2
v -0.1 0.3 -0.3
v -0.1 0.4 -0.3
v 0 0.3 -0.3
v 0 0.4 -0.3
v -0.1 0.2 -0.4
v -0.1 0.3 -0.4
v 0 0.2 -0.4
v 0 0.3 -0.4
v -0.2 0 0.1
v -0.1 0 0.1
v 0 0 0.1
v 0.1 0 0.1
v -0.2 0 0
v -0.1 0 0
v 0 0 0
v 0.1 0 0
v -0.2 0.1 0.3
v 0.1 0.1 0.3
v -0.2 0.1 0.1
v -0.1 0.1 0.1
v 0 0.1 0.1
v 0.1 0.1 0.1
v -0.2 0.1 0
v -0.1 0.1 0
v 0 0.1 0
v 0.1 0.1 0
v -0.2 0.1 -0.2
v 0.1 0.1 -0.2
v -0.4 0.2 0.2
v -0.3 0.2 0.2
v -0.2 0.2 0.2
v 0.1 0.2 0.2
v 0.2 0.2 0.2
v 0.3 0.2 0.2
v -0.5 0.2 0.1
v -0.4 0.2 0.1
v -0.3 0.2 0.1
v 0.2 0.2 0.1
v 0.3 0.2 0.1
v 0.4 0.2 0.1
v -0.5 0.2 0
v -0.4 0.2 0
v -0.3 0.2 0
v 0.2 0.2 0
v 0.3 0.2 0
v 0.4 0.2 0
v -0.4 0.2 -0.1
v -0.3 0.2 -0.1
v -0.2 0.2 -0.1
v 0.1 0.2 -0.1
v 0.2 0.2 -0.1
v 0.3 0.2 -0.1
v -0.1 0.2 -0.2
v 0 0.2 -0.2
v -0.1 0.2 -0.4
v 0 0.2 -0.4
v -0.1 0.4 0.4
v 0 0.4 0.4
v -0.1 0.4 0.3
v 0 0.4 0.3
v -0.1 0.5 0
v 0 0.5 0
v -0.1 0.5 -0.1
v 0 0.5 -0.1
v -0.4 0.3 0.2
v -0.3 0.3 0.2
v -0.2 0.3 0.2
v 0.1 0.3 0.2
v 0.2 0.3 0.2
v 0.3 0.3 0.2
v -0.5 0.3 0.1
v -0.4 0.3 0.1
v -0.3 0.3 0.1
v 0.2 0.3 0.1
v 0.3 0.3 0.1
v 0.4 0.3 0.1
v -0.5 0.3 0
v -0.4 0.3 0
v -0.3 0.3 0
v 0.2 0.3 0
v 0.3 0.3 0
v 0.4 0.3 0
v -0.4 0.3 -0.1
v -0.3 0.3 -0.1
v -0.2 0.3 -0.1
v 0.1 0.3 -0.1
v 0.2 0.3 -0.1
v 0.3 0.3 -0.1
v -0.1 0.3 -0.3
v 0 0.3 -0.3
v -0.1 0.3 -0.4
v 0 0.3 -0.4
v -0.2 0.4 0
v 0.1 0.4 0
v -0.2 0.4 -0.2
v -0.1 0.4 -0.2
v 0 0.4 -0.2
v 0.1 0.4 -0.2
v -0.1 0.4 -0.3
v 0 0.4 -0.3
v -0.1 0.5 0.4
v 0 0.5 0.4
v -0.1 0.5 0.3
v 0 0.5 0.3
v -0.2 0.6 0.3
v -0.1 0.6 0.3
v 0 0.6 0.3
v 0.1 0.6 0.3
v -0.2 0.6 0.2
v -0.1 0.6 0.2
v 0 0.6 0.2
v 0.1 0.6 0.2
v -0.2 0.6 0.1
v -0.1 0.6 0.1
v 0 0.6 0.1
v 0.1 0.6 0.1
v -0.2 0.6 0
v -0.1 0.6 0
v 0 0.6 0
v 0.1 0.6 0
v -0.1 0.6 -0.1
v 0 0.6 -0.1
v -0.1 0.7 0.3
v 0 0.7 0.3
v -0.2 0.7 0.2
v -0.1 0.7 0.2
v 0 0.7 0.2
v 0.1 0.7 0.2
v -0.2 0.7 0.1
v -0.1 0.7 0.1
v 0 0.7 0.1
v 0.1 0.7 0.1
v -0.1 0.7 0
v 0 0.7 0

# faces
f 3/5/1 2/5/1 1/5/1
f 4/5/1 2/5/1 3/5/1
f 9/5/1 6/5/1 5/5/1
f 10/5/1 6/5/1 9/5/1
f 11/5/1 8/5/1 7/5/1
f 12/5/1 8/5/1 11/5/1
f 16/1/1 14/1/1 13/1/1
f 17/1/1 14/1/1 16/1/1
f 19/4/1 16/4/1 15/4/1
f 19/4/1 18/4/1 17/4/1
f 19/4/1 17/4/1 16/4/1
f 20/4/1 18/4/1 19/4/1
f 21/4/1 19/4/1 15/4/1
f 22/4/1 18/4/1 20/4/1
f 23/4/1 22/4/1 21/4/1
f 24/4/1 18/4/1 22/4/1
f 24/4/1 22/4/1 23/4/1
f 25/4/1 21/4/1 15/4/1
f 25/4/1 23/4/1 21/4/1
f 26/4/1 23/4/1 25/4/1
f 27/4/1 25/4/1 15/4/1
f 28/6/1 26/6/1 25/6/1
f 28/4/1 25/4/1 27/4/1
f 29/4/1 23/4/1 26/4/1
f 29/6/1 26/6/1 28/6/1
f 30/4/1 23/4/1 29/4/1
f 31/4/1 29/4/1 28/4/1
f 32/4/1 29/4/1 31/4/1
f 35/4/1 34/4/1 33/4/1
f 36/4/1 34/4/1 35/4/1
f 39/4/1 35/4/1 33/4/1
f 40/4/1 35/4/1 39/4/1
f 41/2/1 38/2/1 37/2/1
f 42/2/1 38/2/1 41/2/1
f 48/4/1 44/4/1 43/4/1
f 49/4/1 44/4/1 48/4/1
f 50/4/1 46/4/1 45/4/1
f 51/4/1 46/4/1 50/4/1
f 52/4/1 48/4/1 47/4/1
f 53/4/1 48/4/1 52/4/1
f 56/1/1 55/1/1 54/1/1
f 57/1/1 55/1/1 56/1/1
f 58/1/2 59/1/2 60/1/2
f 60/1/2 59/1/2 61/1/2
f 62/4/2 63/4/2 64/4/2
f 64/4/2 63/4/2 65/4/2
f 62/4/2 64/4/2 68/4/2
f 68/4/2 64/4/2 69/4/2
f 66/2/2 67/2/2 70/2/2
f 70/2/2 67/2/2 71/2/2
f 72/4/2 73/4/2 77/4/2
f 77/4/2 73/4/2 78/4/2
f 74/4/2 75/4/2 79/4/2
f 79/4/2 75/4/2 80/4/2
f 76/4/2 77/4/2 81/4/2
f 81/4/2 77/4/2 82/4/2
f 83/1/2 84/1/2 86/1/2
f 86/1/2 84/1/2 87/1/2
f 85/4/2 86/4/2 89/4/2
f 87/4/2 88/4/2 89/4/2
f 86/4/2 87/4/2 89/4/2
f 89/4/2 88/4/2 90/4/2
f 85/4/2 89/4/2 91/4/2
f 90/4/2 88/4/2 92/4/2
f 91/4/2 92/4/2 93/4/2
f 92/4/2 88/4/2 94/4/2
f 93/4/2 92/4/2 94/4/2
f 85/4/2 91/4/2 95/4/2
f 91/4/2 93/4/2 95/4/2
f 95/4/2 93/4/2 96/4/2
f 85/4/2 95/4/2 97/4/2
f 95/6/2 96/6/2 98/6/2
f 97/4/2 95/4/2 98/4/2
f 96/4/2 93/4/2 99/4/2
f 98/6/2 96/6/2 99/6/2
f 99/4/2 93/4/2 100/4/2
f 98/4/2 99/4/2 101/4/2
f 101/4/2 99/4/2 102/4/2
f 103/5/2 104/5/2 107/5/2
f 107/5/2 104/5/2 108/5/2
f 105/5/2 106/5/2 109/5/2
f 109/5/2 106/5/2 110/5/2
f 111/5/2 112/5/2 113/5/2
f 113/5/2 112/5/2 114/5/2
f 117/2/3 116/2/3 115/2/3
f 118/2/3 116/2/3 117/2/3
f 121/4/3 120/4/3 119/4/3
f 122/4/3 120/4/3 121/4/3
f 123/4/3 120/4/3 122/4/3
f 125/4/3 121/4/3 119/4/3
f 126/4/3 124/4/3 123/4/3
f 126/4/3 123/4/3 122/4/3
f 127/4/3 124/4/3 126/4/3
f 128/4/3 124/4/3 127/4/3
f 129/4/3 125/4/3 119/4/3
f 129/4/3 126/4/3 125/4/3
f 129/4/3 127/4/3 126/4/3
f 130/4/3 127/4/3 129/4/3
f 133/5/3 132/5/3 131/5/3
f 134/5/3 132/5/3 133/5/3
f 135/4/3 134/4/3 133/4/3
f 136/4/3 134/4/3 135/4/3
f 139/4/3 138/4/3 137/4/3
f 140/4/3 138/4/3 139/4/3
f 145/4/3 142/4/3 141/4/3
f 146/4/3 142/4/3 145/4/3
f 147/4/3 144/4/3 143/4/3
f 148/4/3 144/4/3 147/4/3
f 149/5/3 148/5/3 147/5/3
f 150/5/3 148/5/3 149/5/3
f 153/5/3 152/5/3 151/5/3
f 154/5/3 152/5/3 153/5/3
f 157/1/3 156/1/3 155/1/3
f 158/1/3 156/1/3 157/1/3
f 161/1/3 160/1/3 159/1/3
f 162/1/3 160/1/3 161/1/3
f 165/5/3 164/5/3 163/5/3
f 166/5/3 164/5/3 165/5/3
f 167/4/4 168/4/4 169/4/4
f 169/4/4 168/4/4 170/4/4
f 171/4/4 172/4/4 173/4/4
f 173/4/4 172/4/4 174/4/4
f 175/5/4 176/5/4 177/5/4
f 177/5/4 176/5/4 178/5/4
f 179/1/4 180/1/4 183/1/4
f 183/1/4 180/1/4 184/1/4
f 181/4/4 182/4/4 185/4/4
f 185/4/4 182/4/4 186/4/4
f 181/4/4 185/4/4 190/4/4
f 186/4/4 187/4/4 191/4/4
f 191/4/4 187/4/4 192/4/4
f 188/1/4 189/1/4 193/1/4
f 193/1/4 189/1/4 194/1/4
f 181/4/4 190/4/4 195/4/4
f 190/4/4 191/4/4 195/4/4
f 195/4/4 191/4/4 196/4/4
f 197/5/4 198/5/4 199/5/4
f 199/5/4 198/5/4 200/5/4
f 201/5/4 202/5/4 203/5/4
f 203/5/4 202/5/4 204/5/4
f 203/4/4 204/4/4 205/4/4
f 205/4/4 204/4/4 206/4/4
f 207/4/4 208/4/4 209/4/4
f 209/4/4 208/4/4 210/4/4
f 211/4/4 212/4/4 213/4/4
f 213/4/4 212/4/4 214/4/4
f 213/5/4 214/5/4 215/5/4
f 215/5/4 214/5/4 216/5/4
f 217/4/4 218/4/4 219/4/4
f 219/4/4 218/4/4 220/4/4
f 217/4/4 219/4/4 221/4/4
f 217/4/4 221/4/4 223/4/4
f 221/4/4 222/4/4 223/4/4
f 223/4/4 222/4/4 224/4/4
f 225/4/4 226/4/4 227/4/4
f 227/4/4 226/4/4 228/4/4
f 229/4/4 230/4/4 231/4/4
f 231/4/4 230/4/4 232/4/4
f 237/1/5 234/1/5 233/1/5
f 238/1/5 234/1/5 237/1/5
f 239/1/5 236/1/5 235/1/5
f 240/1/5 236/1/5 239/1/5
f 243/4/5 242/4/5 241/4/5
f 244/4/5 242/4/5 243/4/5
f 245/4/5 242/4/5 244/4/5
f 246/4/5 242/4/5 245/4/5
f 248/4/5 245/4/5 244/4/5
f 249/4/5 245/4/5 248/4/5
f 251/4/5 248/4/5 247/4/5
f 251/4/5 250/4/5 249/4/5
f 251/4/5 249/4/5 248/4/5
f 252/4/5 250/4/5 251/4/5
f 260/5/5 254/5/5 253/5/5
f 261/4/5 255/4/5 254/4/5
f 261/5/5 254/5/5 260/5/5
f 262/5/5 258/5/5 257/5/5
f 262/4/5 257/4/5 256/4/5
f 263/5/5 258/5/5 262/5/5
f 265/5/5 260/5/5 259/5/5
f 266/4/5 261/4/5 260/4/5
f 266/5/5 260/5/5 265/5/5
f 267/4/5 255/4/5 261/4/5
f 267/4/5 261/4/5 266/4/5
f 268/4/5 262/4/5 256/4/5
f 268/4/5 263/4/5 262/4/5
f 269/5/5 264/5/5 263/5/5
f 269/4/5 263/4/5 268/4/5
f 270/5/5 264/5/5 269/5/5
f 271/5/5 267/5/5 266/5/5
f 272/4/5 255/4/5 267/4/5
f 272/5/5 267/5/5 271/5/5
f 273/4/5 255/4/5 272/4/5
f 274/4/5 268/4/5 256/4/5
f 275/5/5 269/5/5 268/5/5
f 275/4/5 268/4/5 274/4/5
f 276/5/5 269/5/5 275/5/5
f 279/4/5 278/4/5 277/4/5
f 280/4/5 278/4/5 279/4/5
f 283/2/5 282/2/5 281/2/5
f 284/2/5 282/2/5 283/2/5
f 287/4/5 286/4/5 285/4/5
f 288/4/5 286/4/5 287/4/5
f 289/5/6 290/5/6 296/5/6
f 290/4/6 291/4/6 297/4/6
f 296/5/6 290/5/6 297/5/6
f 293/5/6 294/5/6 298/5/6
f 292/4/6 293/4/6 298/4/6
f 298/5/6 294/5/6 299/5/6
f 295/5/6 296/5/6 301/5/6
f 296/4/6 297/4/6 302/4/6
f 301/5/6 296/5/6 302/5/6
f 297/4/6 291/4/6 303/4/6
f 302/4/6 297/4/6 303/4/6
f 292/4/6 298/4/6 304/4/6
f 298/4/6 299/4/6 304/4/6
f 299/5/6 300/5/6 305/5/6
f 304/4/6 299/4/6 305/4/6
f 305/5/6 300/5/6 306/5/6
f 302/5/6 303/5/6 307/5/6
f 303/4/6 291/4/6 308/4/6
f 307/5/6 303/5/6 308/5/6
f 308/4/6 291/4/6 309/4/6
f 292/4/6 304/4/6 310/4/6
f 304/5/6 305/5/6 311/5/6
f 310/4/6 304/4/6 311/4/6
f 311/5/6 305/5/6 312/5/6
f 313/4/6 314/4/6 315/4/6
f 315/4/6 314/4/6 316/4/6
f 317/4/6 318/4/6 319/4/6
f 319/4/6 318/4/6 320/4/6
f 320/4/6 318/4/6 321/4/6
f 321/4/6 318/4/6 322/4/6
f 320/4/6 321/4/6 323/4/6
f 323/4/6 321/4/6 324/4/6
f 325/2/6 326/2/6 327/2/6
f 327/2/6 326/2/6 328/2/6
f 329/4/6 330/4/6 333/4/6
f 333/4/6 330/4/6 334/4/6
f 331/4/6 332/4/6 335/4/6
f 335/4/6 332/4/6 336/4/6
f 337/4/6 338/4/6 341/4/6
f 341/4/6 338/4/6 342/4/6
f 339/4/6 340/4/6 343/4/6
f 343/4/6 340/4/6 344/4/6
f 342/4/6 343/4/6 345/4/6
f 345/4/6 343/4/6 346/4/6
f 347/4/6 348/4/6 350/4/6
f 350/4/6 348/4/6 351/4/6
f 349/4/6 350/4/6 353/4/6
f 351/4/6 352/4/6 353/4/6
f 350/4/6 351/4/6 353/4/6
f 353/4/6 352/4/6 354/4/6
f 354/4/6 352/4/6 355/4/6
f 355/4/6 352/4/6 356/4/6
f 354/4/6 355/4/6 357/4/6
f 357/4/6 355/4/6 358/4/6
