# MagicaVoxel @ Ephtracy

# group
o 

# material
mtllib bird2.mtl
usemtl palette

# normals
vn -1 0 0
vn 1 0 0
vn 0 0 1
vn 0 0 -1
vn 0 -1 0
vn 0 1 0

# texcoords
vt 0.0410156 0.5
vt 0.880859 0.5
vt 0.900391 0.5
vt 0.931641 0.5
vt 0.994141 0.5

# verts
v -0.5 0.2 0
v -0.5 0.2 -0.1
v -0.5 0.3 0
v -0.5 0.3 -0.1
v -0.4 0.2 0.1
v -0.4 0.2 0
v -0.4 0.2 -0.1
v -0.4 0.2 -0.2
v -0.4 0.3 0.1
v -0.4 0.3 0
v -0.4 0.3 -0.1
v -0.4 0.3 -0.2
v -0.2 0 0.1
v -0.2 0 0
v -0.2 0.1 0.2
v -0.2 0.1 0.1
v -0.2 0.1 0
v -0.2 0.1 -0.2
v -0.2 0.2 0.1
v -0.2 0.2 -0.2
v -0.2 0.3 0.3
v -0.2 0.3 0.2
v -0.2 0.3 0.1
v -0.2 0.3 0
v -0.2 0.3 -0.2
v -0.2 0.4 0.1
v -0.2 0.4 0
v -0.2 0.4 -0.2
v -0.2 0.5 0.2
v -0.2 0.5 0.1
v -0.2 0.6 0.3
v -0.2 0.6 0.2
v -0.2 0.6 0.1
v -0.2 0.6 0
v -0.2 0.7 0.2
v -0.2 0.7 0.1
v -0.1 0.2 0.3
v -0.1 0.2 0.2
v -0.1 0.2 -0.2
v -0.1 0.2 -0.3
v -0.1 0.3 0.3
v -0.1 0.3 0.2
v -0.1 0.3 -0.3
v -0.1 0.3 -0.4
v -0.1 0.4 0.5
v -0.1 0.4 0.3
v -0.1 0.4 -0.2
v -0.1 0.4 -0.3
v -0.1 0.4 -0.4
v -0.1 0.5 0.5
v -0.1 0.5 0.3
v -0.1 0.5 0
v -0.1 0.5 -0.1
v -0.1 0.5 -0.3
v -0.1 0.5 -0.4
v -0.1 0.6 0.3
v -0.1 0.6 0.2
v -0.1 0.6 0.1
v -0.1 0.6 0
v -0.1 0.7 0.3
v -0.1 0.7 0.2
v -0.1 0.7 0.1
v -0.1 0.7 -0.1
v -0.1 0.8 0.2
v -0.1 0.8 0.1
v 0 0 0.1
v 0 0 0
v 0 0.1 0.1
v 0 0.1 0
v -0.1 0 0.1
v -0.1 0 0
v -0.1 0.1 0.1
v -0.1 0.1 0
v 0 0.2 0.3
v 0 0.2 0.2
v 0 0.2 -0.2
v 0 0.2 -0.3
v 0 0.3 0.3
v 0 0.3 0.2
v 0 0.3 -0.3
v 0 0.3 -0.4
v 0 0.4 0.5
v 0 0.4 0.3
v 0 0.4 -0.2
v 0 0.4 -0.3
v 0 0.4 -0.4
v 0 0.5 0.5
v 0 0.5 0.3
v 0 0.5 0
v 0 0.5 -0.1
v 0 0.5 -0.3
v 0 0.5 -0.4
v 0 0.6 0.3
v 0 0.6 0.2
v 0 0.6 0.1
v 0 0.6 0
v 0 0.7 0.3
v 0 0.7 0.2
v 0 0.7 0.1
v 0 0.7 -0.1
v 0 0.8 0.2
v 0 0.8 0.1
v 0.1 0 0.1
v 0.1 0 0
v 0.1 0.1 0.2
v 0.1 0.1 0.1
v 0.1 0.1 0
v 0.1 0.1 -0.2
v 0.1 0.2 0.1
v 0.1 0.2 -0.2
v 0.1 0.3 0.3
v 0.1 0.3 0.2
v 0.1 0.3 0.1
v 0.1 0.3 0
v 0.1 0.3 -0.2
v 0.1 0.4 0.1
v 0.1 0.4 0
v 0.1 0.4 -0.2
v 0.1 0.5 0.2
v 0.1 0.5 0.1
v 0.1 0.6 0.3
v 0.1 0.6 0.2
v 0.1 0.6 0.1
v 0.1 0.6 0
v 0.1 0.7 0.2
v 0.1 0.7 0.1
v 0.3 0.2 0.1
v 0.3 0.2 0
v 0.3 0.2 -0.1
v 0.3 0.2 -0.2
v 0.3 0.3 0.1
v 0.3 0.3 0
v 0.3 0.3 -0.1
v 0.3 0.3 -0.2
v 0.4 0.2 0
v 0.4 0.2 -0.1
v 0.4 0.3 0
v 0.4 0.3 -0.1
v -0.1 0.4 0.5
v -0.1 0.5 0.5
v 0 0.4 0.5
v 0 0.5 0.5
v -0.2 0.3 0.3
v -0.2 0.6 0.3
v -0.1 0.2 0.3
v -0.1 0.3 0.3
v -0.1 0.4 0.3
v -0.1 0.5 0.3
v -0.1 0.6 0.3
v -0.1 0.7 0.3
v 0 0.2 0.3
v 0 0.3 0.3
v 0 0.4 0.3
v 0 0.5 0.3
v 0 0.6 0.3
v 0 0.7 0.3
v 0.1 0.3 0.3
v 0.1 0.6 0.3
v -0.2 0.1 0.2
v -0.2 0.3 0.2
v -0.2 0.6 0.2
v -0.2 0.7 0.2
v -0.1 0.2 0.2
v -0.1 0.3 0.2
v -0.1 0.6 0.2
v -0.1 0.7 0.2
v -0.1 0.8 0.2
v 0 0.2 0.2
v 0 0.3 0.2
v 0 0.6 0.2
v 0 0.7 0.2
v 0 0.8 0.2
v 0.1 0.1 0.2
v 0.1 0.3 0.2
v 0.1 0.6 0.2
v 0.1 0.7 0.2
v -0.4 0.2 0.1
v -0.4 0.3 0.1
v -0.3 0.2 0.1
v -0.3 0.3 0.1
v -0.2 0 0.1
v -0.2 0.1 0.1
v -0.2 0.2 0.1
v -0.2 0.3 0.1
v -0.1 0 0.1
v -0.1 0.1 0.1
v 0 0 0.1
v 0 0.1 0.1
v 0.1 0 0.1
v 0.1 0.1 0.1
v 0.1 0.2 0.1
v 0.1 0.3 0.1
v 0.2 0.2 0.1
v 0.2 0.3 0.1
v 0.3 0.2 0.1
v 0.3 0.3 0.1
v -0.5 0.2 0
v -0.5 0.3 0
v -0.4 0.2 0
v -0.4 0.3 0
v 0.3 0.2 0
v 0.3 0.3 0
v 0.4 0.2 0
v 0.4 0.3 0
v -0.1 0.4 -0.3
v -0.1 0.5 -0.3
v 0 0.4 -0.3
v 0 0.5 -0.3
v -0.2 0.6 0.1
v -0.2 0.7 0.1
v -0.1 0.6 0.1
v -0.1 0.7 0.1
v -0.1 0.8 0.1
v 0 0.6 0.1
v 0 0.7 0.1
v 0 0.8 0.1
v 0.1 0.6 0.1
v 0.1 0.7 0.1
v -0.2 0 0
v -0.2 0.1 0
v -0.2 0.4 0
v -0.2 0.6 0
v -0.1 0 0
v -0.1 0.1 0
v -0.1 0.5 0
v -0.1 0.6 0
v 0 0 0
v 0 0.1 0
v 0 0.5 0
v 0 0.6 0
v 0.1 0 0
v 0.1 0.1 0
v 0.1 0.4 0
v 0.1 0.6 0
v -0.5 0.2 -0.1
v -0.5 0.3 -0.1
v -0.4 0.2 -0.1
v -0.4 0.3 -0.1
v -0.1 0.5 -0.1
v -0.1 0.7 -0.1
v 0 0.5 -0.1
v 0 0.7 -0.1
v 0.3 0.2 -0.1
v 0.3 0.3 -0.1
v 0.4 0.2 -0.1
v 0.4 0.3 -0.1
v -0.4 0.2 -0.2
v -0.4 0.3 -0.2
v -0.3 0.2 -0.2
v -0.3 0.3 -0.2
v -0.2 0.1 -0.2
v -0.2 0.2 -0.2
v -0.2 0.3 -0.2
v -0.2 0.4 -0.2
v -0.1 0.2 -0.2
v -0.1 0.4 -0.2
v 0 0.2 -0.2
v 0 0.4 -0.2
v 0.1 0.1 -0.2
v 0.1 0.2 -0.2
v 0.1 0.3 -0.2
v 0.1 0.4 -0.2
v 0.2 0.2 -0.2
v 0.2 0.3 -0.2
v 0.3 0.2 -0.2
v 0.3 0.3 -0.2
v -0.1 0.2 -0.3
v -0.1 0.3 -0.3
v 0 0.2 -0.3
v 0 0.3 -0.3
v -0.1 0.3 -0.4
v -0.1 0.4 -0.4
v -0.1 0.5 -0.4
v 0 0.3 -0.4
v 0 0.4 -0.4
v 0 0.5 -0.4
v -0.2 0 0.1
v -0.1 0 0.1
v 0 0 0.1
v 0.1 0 0.1
v -0.2 0 0
v -0.1 0 0
v 0 0 0
v 0.1 0 0
v -0.2 0.1 0.2
v 0.1 0.1 0.2
v -0.2 0.1 0.1
v -0.1 0.1 0.1
v 0 0.1 0.1
v 0.1 0.1 0.1
v -0.2 0.1 0
v -0.1 0.1 0
v 0 0.1 0
v 0.1 0.1 0
v -0.2 0.1 -0.2
v 0.1 0.1 -0.2
v -0.1 0.2 0.3
v 0 0.2 0.3
v -0.1 0.2 0.2
v 0 0.2 0.2
v -0.4 0.2 0.1
v -0.3 0.2 0.1
v -0.2 0.2 0.1
v 0.1 0.2 0.1
v 0.2 0.2 0.1
v 0.3 0.2 0.1
v -0.5 0.2 0
v -0.4 0.2 0
v -0.3 0.2 0
v 0.2 0.2 0
v 0.3 0.2 0
v 0.4 0.2 0
v -0.5 0.2 -0.1
v -0.4 0.2 -0.1
v -0.3 0.2 -0.1
v 0.2 0.2 -0.1
v 0.3 0.2 -0.1
v 0.4 0.2 -0.1
v -0.4 0.2 -0.2
v -0.3 0.2 -0.2
v -0.2 0.2 -0.2
v -0.1 0.2 -0.2
v 0 0.2 -0.2
v 0.1 0.2 -0.2
v 0.2 0.2 -0.2
v 0.3 0.2 -0.2
v -0.1 0.2 -0.3
v 0 0.2 -0.3
v -0.2 0.3 0.3
v -0.1 0.3 0.3
v 0 0.3 0.3
v 0.1 0.3 0.3
v -0.2 0.3 0.2
v -0.1 0.3 0.2
v 0 0.3 0.2
v 0.1 0.3 0.2
v -0.1 0.3 -0.3
v 0 0.3 -0.3
v -0.1 0.3 -0.4
v 0 0.3 -0.4
v -0.1 0.4 0.5
v 0 0.4 0.5
v -0.1 0.4 0.3
v 0 0.4 0.3
v -0.1 0.5 0
v 0 0.5 0
v -0.1 0.5 -0.1
v 0 0.5 -0.1
v -0.4 0.3 0.1
v -0.3 0.3 0.1
v -0.2 0.3 0.1
v 0.1 0.3 0.1
v 0.2 0.3 0.1
v 0.3 0.3 0.1
v -0.5 0.3 0
v -0.4 0.3 0
v -0.3 0.3 0
v -0.2 0.3 0
v 0.1 0.3 0
v 0.2 0.3 0
v 0.3 0.3 0
v 0.4 0.3 0
v -0.5 0.3 -0.1
v -0.4 0.3 -0.1
v -0.3 0.3 -0.1
v 0.2 0.3 -0.1
v 0.3 0.3 -0.1
v 0.4 0.3 -0.1
v -0.4 0.3 -0.2
v -0.3 0.3 -0.2
v -0.2 0.3 -0.2
v 0.1 0.3 -0.2
v 0.2 0.3 -0.2
v 0.3 0.3 -0.2
v -0.2 0.4 0
v 0.1 0.4 0
v -0.2 0.4 -0.2
v -0.1 0.4 -0.2
v 0 0.4 -0.2
v 0.1 0.4 -0.2
v -0.1 0.4 -0.3
v 0 0.4 -0.3
v -0.1 0.5 0.5
v 0 0.5 0.5
v -0.1 0.5 0.3
v 0 0.5 0.3
v -0.1 0.5 -0.3
v 0 0.5 -0.3
v -0.1 0.5 -0.4
v 0 0.5 -0.4
v -0.2 0.6 0.3
v -0.1 0.6 0.3
v 0 0.6 0.3
v 0.1 0.6 0.3
v -0.2 0.6 0.2
v -0.1 0.6 0.2
v 0 0.6 0.2
v 0.1 0.6 0.2
v -0.2 0.6 0.1
v -0.1 0.6 0.1
v 0 0.6 0.1
v 0.1 0.6 0.1
v -0.2 0.6 0
v -0.1 0.6 0
v 0 0.6 0
v 0.1 0.6 0
v -0.1 0.7 0.3
v 0 0.7 0.3
v -0.2 0.7 0.2
v -0.1 0.7 0.2
v 0 0.7 0.2
v 0.1 0.7 0.2
v -0.2 0.7 0.1
v -0.1 0.7 0.1
v 0 0.7 0.1
v 0.1 0.7 0.1
v -0.1 0.7 -0.1
v 0 0.7 -0.1
v -0.1 0.8 0.2
v 0 0.8 0.2
v -0.1 0.8 0.1
v 0 0.8 0.1

# faces
f 3/5/1 2/5/1 1/5/1
f 4/5/1 2/5/1 3/5/1
f 9/5/1 6/5/1 5/5/1
f 10/5/1 6/5/1 9/5/1
f 11/5/1 8/5/1 7/5/1
f 12/5/1 8/5/1 11/5/1
f 16/1/1 14/1/1 13/1/1
f 17/1/1 14/1/1 16/1/1
f 19/4/1 16/4/1 15/4/1
f 19/4/1 18/4/1 17/4/1
f 19/4/1 17/4/1 16/4/1
f 20/4/1 18/4/1 19/4/1
f 22/4/1 19/4/1 15/4/1
f 23/4/1 19/4/1 22/4/1
f 26/4/1 22/4/1 21/4/1
f 26/4/1 23/4/1 22/4/1
f 26/1/1 24/1/1 23/1/1
f 27/4/1 25/4/1 24/4/1
f 27/1/1 24/1/1 26/1/1
f 28/4/1 25/4/1 27/4/1
f 29/4/1 26/4/1 21/4/1
f 29/4/1 27/4/1 26/4/1
f 30/4/1 27/4/1 29/4/1
f 31/4/1 29/4/1 21/4/1
f 32/5/1 30/5/1 29/5/1
f 32/4/1 29/4/1 31/4/1
f 33/4/1 27/4/1 30/4/1
f 33/5/1 30/5/1 32/5/1
f 34/4/1 27/4/1 33/4/1
f 35/4/1 33/4/1 32/4/1
f 36/4/1 33/4/1 35/4/1
f 41/3/1 38/3/1 37/3/1
f 42/3/1 38/3/1 41/3/1
f 43/3/1 40/3/1 39/3/1
f 47/3/1 44/3/1 43/3/1
f 47/3/1 43/3/1 39/3/1
f 48/3/1 44/3/1 47/3/1
f 49/3/1 44/3/1 48/3/1
f 50/1/1 46/1/1 45/1/1
f 51/1/1 46/1/1 50/1/1
f 54/2/1 49/2/1 48/2/1
f 55/2/1 49/2/1 54/2/1
f 59/1/1 53/1/1 52/1/1
f 60/4/1 57/4/1 56/4/1
f 61/4/1 57/4/1 60/4/1
f 62/1/1 59/1/1 58/1/1
f 63/1/1 53/1/1 59/1/1
f 63/1/1 59/1/1 62/1/1
f 64/4/1 62/4/1 61/4/1
f 65/4/1 62/4/1 64/4/1
f 68/1/1 67/1/1 66/1/1
f 69/1/1 67/1/1 68/1/1
f 70/1/2 71/1/2 72/1/2
f 72/1/2 71/1/2 73/1/2
f 74/3/2 75/3/2 78/3/2
f 78/3/2 75/3/2 79/3/2
f 76/3/2 77/3/2 80/3/2
f 80/3/2 81/3/2 84/3/2
f 76/3/2 80/3/2 84/3/2
f 84/3/2 81/3/2 85/3/2
f 85/3/2 81/3/2 86/3/2
f 82/1/2 83/1/2 87/1/2
f 87/1/2 83/1/2 88/1/2
f 85/2/2 86/2/2 91/2/2
f 91/2/2 86/2/2 92/2/2
f 89/1/2 90/1/2 96/1/2
f 93/4/2 94/4/2 97/4/2
f 97/4/2 94/4/2 98/4/2
f 95/1/2 96/1/2 99/1/2
f 96/1/2 90/1/2 100/1/2
f 99/1/2 96/1/2 100/1/2
f 98/4/2 99/4/2 101/4/2
f 101/4/2 99/4/2 102/4/2
f 103/1/2 104/1/2 106/1/2
f 106/1/2 104/1/2 107/1/2
f 105/4/2 106/4/2 109/4/2
f 107/4/2 108/4/2 109/4/2
f 106/4/2 107/4/2 109/4/2
f 109/4/2 108/4/2 110/4/2
f 105/4/2 109/4/2 112/4/2
f 112/4/2 109/4/2 113/4/2
f 111/4/2 112/4/2 116/4/2
f 112/4/2 113/4/2 116/4/2
f 113/1/2 114/1/2 116/1/2
f 114/4/2 115/4/2 117/4/2
f 116/1/2 114/1/2 117/1/2
f 117/4/2 115/4/2 118/4/2
f 111/4/2 116/4/2 119/4/2
f 116/4/2 117/4/2 119/4/2
f 119/4/2 117/4/2 120/4/2
f 111/4/2 119/4/2 121/4/2
f 119/5/2 120/5/2 122/5/2
f 121/4/2 119/4/2 122/4/2
f 120/4/2 117/4/2 123/4/2
f 122/5/2 120/5/2 123/5/2
f 123/4/2 117/4/2 124/4/2
f 122/4/2 123/4/2 125/4/2
f 125/4/2 123/4/2 126/4/2
f 127/5/2 128/5/2 131/5/2
f 131/5/2 128/5/2 132/5/2
f 129/5/2 130/5/2 133/5/2
f 133/5/2 130/5/2 134/5/2
f 135/5/2 136/5/2 137/5/2
f 137/5/2 136/5/2 138/5/2
f 141/1/3 140/1/3 139/1/3
f 142/1/3 140/1/3 141/1/3
f 146/4/3 144/4/3 143/4/3
f 147/4/3 144/4/3 146/4/3
f 148/4/3 144/4/3 147/4/3
f 149/4/3 144/4/3 148/4/3
f 151/3/3 146/3/3 145/3/3
f 152/4/3 147/4/3 146/4/3
f 152/3/3 146/3/3 151/3/3
f 153/4/3 147/4/3 152/4/3
f 154/4/3 150/4/3 149/4/3
f 154/4/3 149/4/3 148/4/3
f 155/4/3 150/4/3 154/4/3
f 156/4/3 150/4/3 155/4/3
f 157/4/3 153/4/3 152/4/3
f 157/4/3 155/4/3 154/4/3
f 157/4/3 154/4/3 153/4/3
f 158/4/3 155/4/3 157/4/3
f 163/4/3 160/4/3 159/4/3
f 164/4/3 160/4/3 163/4/3
f 165/4/3 162/4/3 161/4/3
f 166/4/3 162/4/3 165/4/3
f 168/4/3 163/4/3 159/4/3
f 171/4/3 167/4/3 166/4/3
f 172/4/3 167/4/3 171/4/3
f 173/4/3 169/4/3 168/4/3
f 173/4/3 168/4/3 159/4/3
f 174/4/3 169/4/3 173/4/3
f 175/4/3 171/4/3 170/4/3
f 176/4/3 171/4/3 175/4/3
f 179/5/3 178/5/3 177/5/3
f 180/5/3 178/5/3 179/5/3
f 183/4/3 180/4/3 179/4/3
f 184/4/3 180/4/3 183/4/3
f 185/1/3 182/1/3 181/1/3
f 186/1/3 182/1/3 185/1/3
f 189/1/3 188/1/3 187/1/3
f 190/1/3 188/1/3 189/1/3
f 193/4/3 192/4/3 191/4/3
f 194/4/3 192/4/3 193/4/3
f 195/5/3 194/5/3 193/5/3
f 196/5/3 194/5/3 195/5/3
f 199/5/3 198/5/3 197/5/3
f 200/5/3 198/5/3 199/5/3
f 203/5/3 202/5/3 201/5/3
f 204/5/3 202/5/3 203/5/3
f 207/2/3 206/2/3 205/2/3
f 208/2/3 206/2/3 207/2/3
f 209/4/4 210/4/4 211/4/4
f 211/4/4 210/4/4 212/4/4
f 212/4/4 213/4/4 215/4/4
f 215/4/4 213/4/4 216/4/4
f 214/4/4 215/4/4 217/4/4
f 217/4/4 215/4/4 218/4/4
f 219/1/4 220/1/4 223/1/4
f 223/1/4 220/1/4 224/1/4
f 221/4/4 222/4/4 225/4/4
f 225/4/4 222/4/4 226/4/4
f 221/4/4 225/4/4 229/4/4
f 227/1/4 228/1/4 231/1/4
f 231/1/4 228/1/4 232/1/4
f 229/4/4 230/4/4 233/4/4
f 221/4/4 229/4/4 233/4/4
f 233/4/4 230/4/4 234/4/4
f 235/5/4 236/5/4 237/5/4
f 237/5/4 236/5/4 238/5/4
f 239/1/4 240/1/4 241/1/4
f 241/1/4 240/1/4 242/1/4
f 243/5/4 244/5/4 245/5/4
f 245/5/4 244/5/4 246/5/4
f 247/5/4 248/5/4 249/5/4
f 249/5/4 248/5/4 250/5/4
f 249/4/4 250/4/4 252/4/4
f 252/4/4 250/4/4 253/4/4
f 252/4/4 253/4/4 255/4/4
f 253/4/4 254/4/4 255/4/4
f 251/4/4 252/4/4 255/4/4
f 255/4/4 254/4/4 256/4/4
f 251/4/4 255/4/4 257/4/4
f 251/4/4 257/4/4 259/4/4
f 257/4/4 258/4/4 259/4/4
f 259/4/4 258/4/4 260/4/4
f 260/4/4 258/4/4 261/4/4
f 261/4/4 258/4/4 262/4/4
f 260/4/4 261/4/4 263/4/4
f 263/4/4 261/4/4 264/4/4
f 263/5/4 264/5/4 265/5/4
f 265/5/4 264/5/4 266/5/4
f 267/3/4 268/3/4 269/3/4
f 269/3/4 268/3/4 270/3/4
f 271/3/4 272/3/4 274/3/4
f 272/2/4 273/2/4 275/2/4
f 274/3/4 272/3/4 275/3/4
f 275/2/4 273/2/4 276/2/4
f 281/1/5 278/1/5 277/1/5
f 282/1/5 278/1/5 281/1/5
f 283/1/5 280/1/5 279/1/5
f 284/1/5 280/1/5 283/1/5
f 287/4/5 286/4/5 285/4/5
f 288/4/5 286/4/5 287/4/5
f 289/4/5 286/4/5 288/4/5
f 290/4/5 286/4/5 289/4/5
f 292/4/5 289/4/5 288/4/5
f 293/4/5 289/4/5 292/4/5
f 295/4/5 292/4/5 291/4/5
f 295/4/5 294/4/5 293/4/5
f 295/4/5 293/4/5 292/4/5
f 296/4/5 294/4/5 295/4/5
f 299/3/5 298/3/5 297/3/5
f 300/3/5 298/3/5 299/3/5
f 308/5/5 302/5/5 301/5/5
f 309/4/5 303/4/5 302/4/5
f 309/5/5 302/5/5 308/5/5
f 310/5/5 306/5/5 305/5/5
f 310/4/5 305/4/5 304/4/5
f 311/5/5 306/5/5 310/5/5
f 313/5/5 308/5/5 307/5/5
f 314/4/5 309/4/5 308/4/5
f 314/5/5 308/5/5 313/5/5
f 315/4/5 303/4/5 309/4/5
f 315/4/5 309/4/5 314/4/5
f 316/4/5 310/4/5 304/4/5
f 316/4/5 311/4/5 310/4/5
f 317/5/5 312/5/5 311/5/5
f 317/4/5 311/4/5 316/4/5
f 318/5/5 312/5/5 317/5/5
f 319/5/5 315/5/5 314/5/5
f 320/4/5 303/4/5 315/4/5
f 320/5/5 315/5/5 319/5/5
f 321/4/5 303/4/5 320/4/5
f 324/4/5 316/4/5 304/4/5
f 325/5/5 317/5/5 316/5/5
f 325/4/5 316/4/5 324/4/5
f 326/5/5 317/5/5 325/5/5
f 327/3/5 323/3/5 322/3/5
f 328/3/5 323/3/5 327/3/5
f 333/4/5 330/4/5 329/4/5
f 334/4/5 330/4/5 333/4/5
f 335/4/5 332/4/5 331/4/5
f 336/4/5 332/4/5 335/4/5
f 339/3/5 338/3/5 337/3/5
f 340/3/5 338/3/5 339/3/5
f 343/1/5 342/1/5 341/1/5
f 344/1/5 342/1/5 343/1/5
f 347/1/5 346/1/5 345/1/5
f 348/1/5 346/1/5 347/1/5
f 349/5/6 350/5/6 356/5/6
f 350/4/6 351/4/6 357/4/6
f 356/5/6 350/5/6 357/5/6
f 357/4/6 351/4/6 358/4/6
f 352/4/6 353/4/6 359/4/6
f 353/5/6 354/5/6 360/5/6
f 359/4/6 353/4/6 360/4/6
f 360/5/6 354/5/6 361/5/6
f 355/5/6 356/5/6 363/5/6
f 357/4/6 358/4/6 364/4/6
f 363/5/6 356/5/6 364/5/6
f 356/4/6 357/4/6 364/4/6
f 364/4/6 358/4/6 365/4/6
f 360/4/6 361/4/6 366/4/6
f 359/4/6 360/4/6 366/4/6
f 361/5/6 362/5/6 367/5/6
f 366/4/6 361/4/6 367/4/6
f 367/5/6 362/5/6 368/5/6
f 364/5/6 365/5/6 369/5/6
f 365/4/6 358/4/6 370/4/6
f 369/5/6 365/5/6 370/5/6
f 370/4/6 358/4/6 371/4/6
f 359/4/6 366/4/6 372/4/6
f 366/5/6 367/5/6 373/5/6
f 372/4/6 366/4/6 373/4/6
f 373/5/6 367/5/6 374/5/6
f 375/4/6 376/4/6 377/4/6
f 377/4/6 376/4/6 378/4/6
f 378/4/6 376/4/6 379/4/6
f 379/4/6 376/4/6 380/4/6
f 378/3/6 379/3/6 381/3/6
f 381/3/6 379/3/6 382/3/6
f 383/1/6 384/1/6 385/1/6
f 385/1/6 384/1/6 386/1/6
f 387/2/6 388/2/6 389/2/6
f 389/2/6 388/2/6 390/2/6
f 391/4/6 392/4/6 395/4/6
f 395/4/6 392/4/6 396/4/6
f 393/4/6 394/4/6 397/4/6
f 397/4/6 394/4/6 398/4/6
f 399/4/6 400/4/6 403/4/6
f 403/4/6 400/4/6 404/4/6
f 401/4/6 402/4/6 405/4/6
f 405/4/6 402/4/6 406/4/6
f 407/4/6 408/4/6 410/4/6
f 410/4/6 408/4/6 411/4/6
f 409/4/6 410/4/6 413/4/6
f 413/4/6 410/4/6 414/4/6
f 411/4/6 412/4/6 415/4/6
f 415/4/6 412/4/6 416/4/6
f 414/1/6 415/1/6 417/1/6
f 417/1/6 415/1/6 418/1/6
f 419/4/6 420/4/6 421/4/6
f 421/4/6 420/4/6 422/4/6
