# MagicaVoxel @ Ephtracy

# group
o 

# material
mtllib bird.mtl
usemtl palette

# normals
vn -1 0 0
vn 1 0 0
vn 0 0 1
vn 0 0 -1
vn 0 -1 0
vn 0 1 0

# texcoords
vt 0.0644531 0.5
vt 0.0683594 0.5
vt 0.509766 0.5
vt 0.958984 0.5
vt 0.978516 0.5
vt 0.994141 0.5

# verts
v -0.5 0.2 0.1
v -0.5 0.2 0
v -0.5 0.3 0.1
v -0.5 0.3 0
v -0.4 0.2 0.2
v -0.4 0.2 0.1
v -0.4 0.2 0
v -0.4 0.2 -0.1
v -0.4 0.3 0.2
v -0.4 0.3 0.1
v -0.4 0.3 0
v -0.4 0.3 -0.1
v -0.2 0 0.1
v -0.2 0 0
v -0.2 0.1 0.3
v -0.2 0.1 0.1
v -0.2 0.1 0
v -0.2 0.1 -0.2
v -0.2 0.2 0.2
v -0.2 0.2 -0.1
v -0.2 0.3 0.2
v -0.2 0.3 -0.1
v -0.2 0.4 0
v -0.2 0.4 -0.2
v -0.2 0.5 0.2
v -0.2 0.5 0.1
v -0.2 0.6 0.3
v -0.2 0.6 0.2
v -0.2 0.6 0.1
v -0.2 0.6 0
v -0.2 0.7 0.2
v -0.2 0.7 0.1
v -0.1 0.1 -0.2
v -0.1 0.1 -0.3
v -0.1 0.2 -0.3
v -0.1 0.2 -0.4
v -0.1 0.3 -0.3
v -0.1 0.3 -0.4
v -0.1 0.4 0.5
v -0.1 0.4 0.3
v -0.1 0.4 -0.2
v -0.1 0.4 -0.3
v -0.1 0.5 0.5
v -0.1 0.5 0.3
v -0.1 0.5 0
v -0.1 0.5 -0.1
v -0.1 0.6 0.3
v -0.1 0.6 0.2
v -0.1 0.6 0.1
v -0.1 0.6 0
v -0.1 0.7 0.3
v -0.1 0.7 0.2
v -0.1 0.7 0.1
v -0.1 0.7 -0.1
v -0.1 0.8 0.2
v -0.1 0.8 0.1
v 0 0 0.1
v 0 0 0
v 0 0.1 0.1
v 0 0.1 0
v -0.1 0 0.1
v -0.1 0 0
v -0.1 0.1 0.1
v -0.1 0.1 0
v 0 0.1 -0.2
v 0 0.1 -0.3
v 0 0.2 -0.3
v 0 0.2 -0.4
v 0 0.3 -0.3
v 0 0.3 -0.4
v 0 0.4 0.5
v 0 0.4 0.3
v 0 0.4 -0.2
v 0 0.4 -0.3
v 0 0.5 0.5
v 0 0.5 0.3
v 0 0.5 0
v 0 0.5 -0.1
v 0 0.6 0.3
v 0 0.6 0.2
v 0 0.6 0.1
v 0 0.6 0
v 0 0.7 0.3
v 0 0.7 0.2
v 0 0.7 0.1
v 0 0.7 -0.1
v 0 0.8 0.2
v 0 0.8 0.1
v 0.1 0 0.1
v 0.1 0 0
v 0.1 0.1 0.3
v 0.1 0.1 0.1
v 0.1 0.1 0
v 0.1 0.1 -0.2
v 0.1 0.2 0.2
v 0.1 0.2 -0.1
v 0.1 0.3 0.2
v 0.1 0.3 -0.1
v 0.1 0.4 0
v 0.1 0.4 -0.2
v 0.1 0.5 0.2
v 0.1 0.5 0.1
v 0.1 0.6 0.3
v 0.1 0.6 0.2
v 0.1 0.6 0.1
v 0.1 0.6 0
v 0.1 0.7 0.2
v 0.1 0.7 0.1
v 0.3 0.2 0.2
v 0.3 0.2 0.1
v 0.3 0.2 0
v 0.3 0.2 -0.1
v 0.3 0.3 0.2
v 0.3 0.3 0.1
v 0.3 0.3 0
v 0.3 0.3 -0.1
v 0.4 0.2 0.1
v 0.4 0.2 0
v 0.4 0.3 0.1
v 0.4 0.3 0
v -0.1 0.4 0.5
v -0.1 0.5 0.5
v 0 0.4 0.5
v 0 0.5 0.5
v -0.2 0.1 0.3
v -0.2 0.6 0.3
v -0.1 0.2 0.3
v -0.1 0.3 0.3
v -0.1 0.4 0.3
v -0.1 0.5 0.3
v -0.1 0.6 0.3
v -0.1 0.7 0.3
v 0 0.2 0.3
v 0 0.3 0.3
v 0 0.4 0.3
v 0 0.5 0.3
v 0 0.6 0.3
v 0 0.7 0.3
v 0.1 0.1 0.3
v 0.1 0.6 0.3
v -0.4 0.2 0.2
v -0.4 0.3 0.2
v -0.3 0.2 0.2
v -0.3 0.3 0.2
v -0.2 0.2 0.2
v -0.2 0.3 0.2
v -0.2 0.6 0.2
v -0.2 0.7 0.2
v -0.1 0.6 0.2
v -0.1 0.7 0.2
v -0.1 0.8 0.2
v 0 0.6 0.2
v 0 0.7 0.2
v 0 0.8 0.2
v 0.1 0.2 0.2
v 0.1 0.3 0.2
v 0.1 0.6 0.2
v 0.1 0.7 0.2
v 0.2 0.2 0.2
v 0.2 0.3 0.2
v 0.3 0.2 0.2
v 0.3 0.3 0.2
v -0.5 0.2 0.1
v -0.5 0.3 0.1
v -0.4 0.2 0.1
v -0.4 0.3 0.1
v -0.2 0 0.1
v -0.2 0.1 0.1
v -0.1 0 0.1
v -0.1 0.1 0.1
v 0 0 0.1
v 0 0.1 0.1
v 0.1 0 0.1
v 0.1 0.1 0.1
v 0.3 0.2 0.1
v 0.3 0.3 0.1
v 0.4 0.2 0.1
v 0.4 0.3 0.1
v -0.2 0.6 0.1
v -0.2 0.7 0.1
v -0.1 0.6 0.1
v -0.1 0.7 0.1
v -0.1 0.8 0.1
v 0 0.6 0.1
v 0 0.7 0.1
v 0 0.8 0.1
v 0.1 0.6 0.1
v 0.1 0.7 0.1
v -0.5 0.2 0
v -0.5 0.3 0
v -0.4 0.2 0
v -0.4 0.3 0
v -0.2 0 0
v -0.2 0.1 0
v -0.2 0.4 0
v -0.2 0.6 0
v -0.1 0 0
v -0.1 0.1 0
v -0.1 0.5 0
v -0.1 0.6 0
v 0 0 0
v 0 0.1 0
v 0 0.5 0
v 0 0.6 0
v 0.1 0 0
v 0.1 0.1 0
v 0.1 0.4 0
v 0.1 0.6 0
v 0.3 0.2 0
v 0.3 0.3 0
v 0.4 0.2 0
v 0.4 0.3 0
v -0.4 0.2 -0.1
v -0.4 0.3 -0.1
v -0.3 0.2 -0.1
v -0.3 0.3 -0.1
v -0.2 0.2 -0.1
v -0.2 0.3 -0.1
v -0.1 0.5 -0.1
v -0.1 0.7 -0.1
v 0 0.5 -0.1
v 0 0.7 -0.1
v 0.1 0.2 -0.1
v 0.1 0.3 -0.1
v 0.2 0.2 -0.1
v 0.2 0.3 -0.1
v 0.3 0.2 -0.1
v 0.3 0.3 -0.1
v -0.2 0.1 -0.2
v -0.2 0.4 -0.2
v -0.1 0.1 -0.2
v -0.1 0.4 -0.2
v 0 0.1 -0.2
v 0 0.4 -0.2
v 0.1 0.1 -0.2
v 0.1 0.4 -0.2
v -0.1 0.1 -0.3
v -0.1 0.2 -0.3
v -0.1 0.3 -0.3
v -0.1 0.4 -0.3
v 0 0.1 -0.3
v 0 0.2 -0.3
v 0 0.3 -0.3
v 0 0.4 -0.3
v -0.1 0.2 -0.4
v -0.1 0.3 -0.4
v 0 0.2 -0.4
v 0 0.3 -0.4
v -0.2 0 0.1
v -0.1 0 0.1
v 0 0 0.1
v 0.1 0 0.1
v -0.2 0 0
v -0.1 0 0
v 0 0 0
v 0.1 0 0
v -0.2 0.1 0.3
v 0.1 0.1 0.3
v -0.2 0.1 0.1
v -0.1 0.1 0.1
v 0 0.1 0.1
v 0.1 0.1 0.1
v -0.2 0.1 0
v -0.1 0.1 0
v 0 0.1 0
v 0.1 0.1 0
v -0.2 0.1 -0.2
v -0.1 0.1 -0.2
v 0 0.1 -0.2
v 0.1 0.1 -0.2
v -0.1 0.1 -0.3
v 0 0.1 -0.3
v -0.4 0.2 0.2
v -0.3 0.2 0.2
v -0.2 0.2 0.2
v 0.1 0.2 0.2
v 0.2 0.2 0.2
v 0.3 0.2 0.2
v -0.5 0.2 0.1
v -0.4 0.2 0.1
v -0.3 0.2 0.1
v 0.2 0.2 0.1
v 0.3 0.2 0.1
v 0.4 0.2 0.1
v -0.5 0.2 0
v -0.4 0.2 0
v -0.3 0.2 0
v 0.2 0.2 0
v 0.3 0.2 0
v 0.4 0.2 0
v -0.4 0.2 -0.1
v -0.3 0.2 -0.1
v -0.2 0.2 -0.1
v 0.1 0.2 -0.1
v 0.2 0.2 -0.1
v 0.3 0.2 -0.1
v -0.1 0.2 -0.3
v 0 0.2 -0.3
v -0.1 0.2 -0.4
v 0 0.2 -0.4
v -0.1 0.4 0.5
v 0 0.4 0.5
v -0.1 0.4 0.3
v 0 0.4 0.3
v -0.1 0.5 0
v 0 0.5 0
v -0.1 0.5 -0.1
v 0 0.5 -0.1
v -0.4 0.3 0.2
v -0.3 0.3 0.2
v -0.2 0.3 0.2
v 0.1 0.3 0.2
v 0.2 0.3 0.2
v 0.3 0.3 0.2
v -0.5 0.3 0.1
v -0.4 0.3 0.1
v -0.3 0.3 0.1
v 0.2 0.3 0.1
v 0.3 0.3 0.1
v 0.4 0.3 0.1
v -0.5 0.3 0
v -0.4 0.3 0
v -0.3 0.3 0
v 0.2 0.3 0
v 0.3 0.3 0
v 0.4 0.3 0
v -0.4 0.3 -0.1
v -0.3 0.3 -0.1
v -0.2 0.3 -0.1
v 0.1 0.3 -0.1
v 0.2 0.3 -0.1
v 0.3 0.3 -0.1
v -0.1 0.3 -0.3
v 0 0.3 -0.3
v -0.1 0.3 -0.4
v 0 0.3 -0.4
v -0.2 0.4 0
v 0.1 0.4 0
v -0.2 0.4 -0.2
v -0.1 0.4 -0.2
v 0 0.4 -0.2
v 0.1 0.4 -0.2
v -0.1 0.4 -0.3
v 0 0.4 -0.3
v -0.1 0.5 0.5
v 0 0.5 0.5
v -0.1 0.5 0.3
v 0 0.5 0.3
v -0.2 0.6 0.3
v -0.1 0.6 0.3
v 0 0.6 0.3
v 0.1 0.6 0.3
v -0.2 0.6 0.2
v -0.1 0.6 0.2
v 0 0.6 0.2
v 0.1 0.6 0.2
v -0.2 0.6 0.1
v -0.1 0.6 0.1
v 0 0.6 0.1
v 0.1 0.6 0.1
v -0.2 0.6 0
v -0.1 0.6 0
v 0 0.6 0
v 0.1 0.6 0
v -0.1 0.7 0.3
v 0 0.7 0.3
v -0.2 0.7 0.2
v -0.1 0.7 0.2
v 0 0.7 0.2
v 0.1 0.7 0.2
v -0.2 0.7 0.1
v -0.1 0.7 0.1
v 0 0.7 0.1
v 0.1 0.7 0.1
v -0.1 0.7 -0.1
v 0 0.7 -0.1
v -0.1 0.8 0.2
v 0 0.8 0.2
v -0.1 0.8 0.1
v 0 0.8 0.1

# faces
f 3/5/1 2/5/1 1/5/1
f 4/5/1 2/5/1 3/5/1
f 9/5/1 6/5/1 5/5/1
f 10/5/1 6/5/1 9/5/1
f 11/5/1 8/5/1 7/5/1
f 12/5/1 8/5/1 11/5/1
f 16/1/1 14/1/1 13/1/1
f 17/1/1 14/1/1 16/1/1
f 19/6/1 16/6/1 15/6/1
f 19/6/1 18/6/1 17/6/1
f 19/6/1 17/6/1 16/6/1
f 20/6/1 18/6/1 19/6/1
f 21/6/1 19/6/1 15/6/1
f 22/6/1 18/6/1 20/6/1
f 23/6/1 22/6/1 21/6/1
f 24/6/1 18/6/1 22/6/1
f 24/6/1 22/6/1 23/6/1
f 25/6/1 21/6/1 15/6/1
f 25/6/1 23/6/1 21/6/1
f 26/6/1 23/6/1 25/6/1
f 27/6/1 25/6/1 15/6/1
f 28/4/1 26/4/1 25/4/1
f 28/6/1 25/6/1 27/6/1
f 29/6/1 23/6/1 26/6/1
f 29/4/1 26/4/1 28/4/1
f 30/6/1 23/6/1 29/6/1
f 31/6/1 29/6/1 28/6/1
f 32/6/1 29/6/1 31/6/1
f 35/6/1 34/6/1 33/6/1
f 37/6/1 35/6/1 33/6/1
f 37/6/1 36/6/1 35/6/1
f 38/6/1 36/6/1 37/6/1
f 41/6/1 37/6/1 33/6/1
f 42/6/1 37/6/1 41/6/1
f 43/2/1 40/2/1 39/2/1
f 44/2/1 40/2/1 43/2/1
f 50/6/1 46/6/1 45/6/1
f 51/6/1 48/6/1 47/6/1
f 52/6/1 48/6/1 51/6/1
f 53/6/1 50/6/1 49/6/1
f 54/6/1 46/6/1 50/6/1
f 54/6/1 50/6/1 53/6/1
f 55/6/1 53/6/1 52/6/1
f 56/6/1 53/6/1 55/6/1
f 59/1/1 58/1/1 57/1/1
f 60/1/1 58/1/1 59/1/1
f 61/1/2 62/1/2 63/1/2
f 63/1/2 62/1/2 64/1/2
f 65/6/2 66/6/2 67/6/2
f 65/6/2 67/6/2 69/6/2
f 67/6/2 68/6/2 69/6/2
f 69/6/2 68/6/2 70/6/2
f 65/6/2 69/6/2 73/6/2
f 73/6/2 69/6/2 74/6/2
f 71/2/2 72/2/2 75/2/2
f 75/2/2 72/2/2 76/2/2
f 77/6/2 78/6/2 82/6/2
f 79/6/2 80/6/2 83/6/2
f 83/6/2 80/6/2 84/6/2
f 81/6/2 82/6/2 85/6/2
f 82/6/2 78/6/2 86/6/2
f 85/6/2 82/6/2 86/6/2
f 84/6/2 85/6/2 87/6/2
f 87/6/2 85/6/2 88/6/2
f 89/1/2 90/1/2 92/1/2
f 92/1/2 90/1/2 93/1/2
f 91/6/2 92/6/2 95/6/2
f 93/6/2 94/6/2 95/6/2
f 92/6/2 93/6/2 95/6/2
f 95/6/2 94/6/2 96/6/2
f 91/6/2 95/6/2 97/6/2
f 96/6/2 94/6/2 98/6/2
f 97/6/2 98/6/2 99/6/2
f 98/6/2 94/6/2 100/6/2
f 99/6/2 98/6/2 100/6/2
f 91/6/2 97/6/2 101/6/2
f 97/6/2 99/6/2 101/6/2
f 101/6/2 99/6/2 102/6/2
f 91/6/2 101/6/2 103/6/2
f 101/4/2 102/4/2 104/4/2
f 103/6/2 101/6/2 104/6/2
f 102/6/2 99/6/2 105/6/2
f 104/4/2 102/4/2 105/4/2
f 105/6/2 99/6/2 106/6/2
f 104/6/2 105/6/2 107/6/2
f 107/6/2 105/6/2 108/6/2
f 109/5/2 110/5/2 113/5/2
f 113/5/2 110/5/2 114/5/2
f 111/5/2 112/5/2 115/5/2
f 115/5/2 112/5/2 116/5/2
f 117/5/2 118/5/2 119/5/2
f 119/5/2 118/5/2 120/5/2
f 123/2/3 122/2/3 121/2/3
f 124/2/3 122/2/3 123/2/3
f 127/6/3 126/6/3 125/6/3
f 128/6/3 126/6/3 127/6/3
f 129/6/3 126/6/3 128/6/3
f 130/6/3 126/6/3 129/6/3
f 131/6/3 126/6/3 130/6/3
f 133/6/3 127/6/3 125/6/3
f 133/5/3 128/5/3 127/5/3
f 134/6/3 129/6/3 128/6/3
f 134/5/3 128/5/3 133/5/3
f 135/6/3 129/6/3 134/6/3
f 136/6/3 132/6/3 131/6/3
f 136/6/3 131/6/3 130/6/3
f 137/6/3 132/6/3 136/6/3
f 138/6/3 132/6/3 137/6/3
f 139/6/3 135/6/3 134/6/3
f 139/6/3 134/6/3 133/6/3
f 139/6/3 137/6/3 136/6/3
f 139/6/3 136/6/3 135/6/3
f 139/6/3 133/6/3 125/6/3
f 140/6/3 137/6/3 139/6/3
f 143/5/3 142/5/3 141/5/3
f 144/5/3 142/5/3 143/5/3
f 145/6/3 144/6/3 143/6/3
f 146/6/3 144/6/3 145/6/3
f 149/6/3 148/6/3 147/6/3
f 150/6/3 148/6/3 149/6/3
f 153/6/3 151/6/3 150/6/3
f 154/6/3 151/6/3 153/6/3
f 157/6/3 153/6/3 152/6/3
f 158/6/3 153/6/3 157/6/3
f 159/6/3 156/6/3 155/6/3
f 160/6/3 156/6/3 159/6/3
f 161/5/3 160/5/3 159/5/3
f 162/5/3 160/5/3 161/5/3
f 165/5/3 164/5/3 163/5/3
f 166/5/3 164/5/3 165/5/3
f 169/1/3 168/1/3 167/1/3
f 170/1/3 168/1/3 169/1/3
f 173/1/3 172/1/3 171/1/3
f 174/1/3 172/1/3 173/1/3
f 177/5/3 176/5/3 175/5/3
f 178/5/3 176/5/3 177/5/3
f 179/6/4 180/6/4 181/6/4
f 181/6/4 180/6/4 182/6/4
f 182/6/4 183/6/4 185/6/4
f 185/6/4 183/6/4 186/6/4
f 184/6/4 185/6/4 187/6/4
f 187/6/4 185/6/4 188/6/4
f 189/5/4 190/5/4 191/5/4
f 191/5/4 190/5/4 192/5/4
f 193/1/4 194/1/4 197/1/4
f 197/1/4 194/1/4 198/1/4
f 195/6/4 196/6/4 199/6/4
f 199/6/4 196/6/4 200/6/4
f 195/6/4 199/6/4 203/6/4
f 201/1/4 202/1/4 205/1/4
f 205/1/4 202/1/4 206/1/4
f 203/6/4 204/6/4 207/6/4
f 195/6/4 203/6/4 207/6/4
f 207/6/4 204/6/4 208/6/4
f 209/5/4 210/5/4 211/5/4
f 211/5/4 210/5/4 212/5/4
f 213/5/4 214/5/4 215/5/4
f 215/5/4 214/5/4 216/5/4
f 215/6/4 216/6/4 217/6/4
f 217/6/4 216/6/4 218/6/4
f 219/6/4 220/6/4 221/6/4
f 221/6/4 220/6/4 222/6/4
f 223/6/4 224/6/4 225/6/4
f 225/6/4 224/6/4 226/6/4
f 225/5/4 226/5/4 227/5/4
f 227/5/4 226/5/4 228/5/4
f 229/6/4 230/6/4 231/6/4
f 231/6/4 230/6/4 232/6/4
f 233/6/4 234/6/4 235/6/4
f 235/6/4 234/6/4 236/6/4
f 237/6/4 238/6/4 241/6/4
f 241/6/4 238/6/4 242/6/4
f 239/6/4 240/6/4 243/6/4
f 243/6/4 240/6/4 244/6/4
f 245/6/4 246/6/4 247/6/4
f 247/6/4 246/6/4 248/6/4
f 253/1/5 250/1/5 249/1/5
f 254/1/5 250/1/5 253/1/5
f 255/1/5 252/1/5 251/1/5
f 256/1/5 252/1/5 255/1/5
f 259/6/5 258/6/5 257/6/5
f 260/6/5 258/6/5 259/6/5
f 261/6/5 258/6/5 260/6/5
f 262/6/5 258/6/5 261/6/5
f 264/6/5 261/6/5 260/6/5
f 265/6/5 261/6/5 264/6/5
f 267/6/5 264/6/5 263/6/5
f 267/6/5 266/6/5 265/6/5
f 267/6/5 265/6/5 264/6/5
f 268/6/5 266/6/5 267/6/5
f 269/6/5 266/6/5 268/6/5
f 270/6/5 266/6/5 269/6/5
f 271/6/5 269/6/5 268/6/5
f 272/6/5 269/6/5 271/6/5
f 280/5/5 274/5/5 273/5/5
f 281/6/5 275/6/5 274/6/5
f 281/5/5 274/5/5 280/5/5
f 282/5/5 278/5/5 277/5/5
f 282/6/5 277/6/5 276/6/5
f 283/5/5 278/5/5 282/5/5
f 285/5/5 280/5/5 279/5/5
f 286/6/5 281/6/5 280/6/5
f 286/5/5 280/5/5 285/5/5
f 287/6/5 275/6/5 281/6/5
f 287/6/5 281/6/5 286/6/5
f 288/6/5 282/6/5 276/6/5
f 288/6/5 283/6/5 282/6/5
f 289/5/5 284/5/5 283/5/5
f 289/6/5 283/6/5 288/6/5
f 290/5/5 284/5/5 289/5/5
f 291/5/5 287/5/5 286/5/5
f 292/6/5 275/6/5 287/6/5
f 292/5/5 287/5/5 291/5/5
f 293/6/5 275/6/5 292/6/5
f 294/6/5 288/6/5 276/6/5
f 295/5/5 289/5/5 288/5/5
f 295/6/5 288/6/5 294/6/5
f 296/5/5 289/5/5 295/5/5
f 299/6/5 298/6/5 297/6/5
f 300/6/5 298/6/5 299/6/5
f 303/2/5 302/2/5 301/2/5
f 304/2/5 302/2/5 303/2/5
f 307/6/5 306/6/5 305/6/5
f 308/6/5 306/6/5 307/6/5
f 309/5/6 310/5/6 316/5/6
f 310/6/6 311/6/6 317/6/6
f 316/5/6 310/5/6 317/5/6
f 313/5/6 314/5/6 318/5/6
f 312/6/6 313/6/6 318/6/6
f 318/5/6 314/5/6 319/5/6
f 315/5/6 316/5/6 321/5/6
f 316/6/6 317/6/6 322/6/6
f 321/5/6 316/5/6 322/5/6
f 317/6/6 311/6/6 323/6/6
f 322/6/6 317/6/6 323/6/6
f 312/6/6 318/6/6 324/6/6
f 318/6/6 319/6/6 324/6/6
f 319/5/6 320/5/6 325/5/6
f 324/6/6 319/6/6 325/6/6
f 325/5/6 320/5/6 326/5/6
f 322/5/6 323/5/6 327/5/6
f 323/6/6 311/6/6 328/6/6
f 327/5/6 323/5/6 328/5/6
f 328/6/6 311/6/6 329/6/6
f 312/6/6 324/6/6 330/6/6
f 324/5/6 325/5/6 331/5/6
f 330/6/6 324/6/6 331/6/6
f 331/5/6 325/5/6 332/5/6
f 333/6/6 334/6/6 335/6/6
f 335/6/6 334/6/6 336/6/6
f 337/6/6 338/6/6 339/6/6
f 339/6/6 338/6/6 340/6/6
f 340/6/6 338/6/6 341/6/6
f 341/6/6 338/6/6 342/6/6
f 340/6/6 341/6/6 343/6/6
f 343/6/6 341/6/6 344/6/6
f 345/2/6 346/2/6 347/2/6
f 347/2/6 346/2/6 348/2/6
f 349/6/6 350/6/6 353/6/6
f 353/6/6 350/6/6 354/6/6
f 351/6/6 352/6/6 355/6/6
f 355/6/6 352/6/6 356/6/6
f 357/6/6 358/6/6 361/6/6
f 361/6/6 358/6/6 362/6/6
f 359/6/6 360/6/6 363/6/6
f 363/6/6 360/6/6 364/6/6
f 365/6/6 366/6/6 368/6/6
f 368/6/6 366/6/6 369/6/6
f 367/6/6 368/6/6 371/6/6
f 371/6/6 368/6/6 372/6/6
f 369/6/6 370/6/6 373/6/6
f 373/6/6 370/6/6 374/6/6
f 372/6/6 373/6/6 375/6/6
f 375/6/6 373/6/6 376/6/6
f 377/6/6 378/6/6 379/6/6
f 379/6/6 378/6/6 380/6/6
