# MagicaVoxel @ Ephtracy

# group
o 

# material
mtllib bird5.mtl
usemtl palette

# normals
vn -1 0 0
vn 1 0 0
vn 0 0 1
vn 0 0 -1
vn 0 -1 0
vn 0 1 0

# texcoords
vt 0.0917969 0.5
vt 0.509766 0.5
vt 0.849609 0.5
vt 0.994141 0.5

# verts
v -0.5 0.2 0.2
v -0.5 0.2 0.1
v -0.5 0.3 0.2
v -0.5 0.3 0.1
v -0.4 0.2 0.3
v -0.4 0.2 0.2
v -0.4 0.2 0.1
v -0.4 0.2 0
v -0.4 0.3 0.3
v -0.4 0.3 0.2
v -0.4 0.3 0.1
v -0.4 0.3 0
v -0.2 0 0.2
v -0.2 0 0.1
v -0.2 0.1 0.4
v -0.2 0.1 0.2
v -0.2 0.1 0.1
v -0.2 0.1 -0.1
v -0.2 0.2 0.3
v -0.2 0.2 0
v -0.2 0.3 0.3
v -0.2 0.3 0
v -0.2 0.4 0.1
v -0.2 0.4 -0.1
v -0.2 0.5 0.3
v -0.2 0.5 0.2
v -0.2 0.6 0.4
v -0.2 0.6 0.3
v -0.2 0.6 0.2
v -0.2 0.6 0.1
v -0.2 0.7 0.3
v -0.2 0.7 0.2
v -0.1 0.2 -0.1
v -0.1 0.2 -0.3
v -0.1 0.3 -0.2
v -0.1 0.3 -0.3
v -0.1 0.4 0.5
v -0.1 0.4 0.4
v -0.1 0.4 -0.1
v -0.1 0.4 -0.2
v -0.1 0.5 0.5
v -0.1 0.5 0.4
v -0.1 0.5 0.1
v -0.1 0.5 0
v -0.1 0.6 0.4
v -0.1 0.6 0.3
v -0.1 0.6 0.2
v -0.1 0.6 0.1
v -0.1 0.6 0
v -0.1 0.7 0.4
v -0.1 0.7 0.3
v -0.1 0.7 0.2
v -0.1 0.7 0.1
v 0 0 0.2
v 0 0 0.1
v 0 0.1 0.2
v 0 0.1 0.1
v -0.1 0 0.2
v -0.1 0 0.1
v -0.1 0.1 0.2
v -0.1 0.1 0.1
v 0 0.2 -0.1
v 0 0.2 -0.3
v 0 0.3 -0.2
v 0 0.3 -0.3
v 0 0.4 0.5
v 0 0.4 0.4
v 0 0.4 -0.1
v 0 0.4 -0.2
v 0 0.5 0.5
v 0 0.5 0.4
v 0 0.5 0.1
v 0 0.5 0
v 0 0.6 0.4
v 0 0.6 0.3
v 0 0.6 0.2
v 0 0.6 0.1
v 0 0.6 0
v 0 0.7 0.4
v 0 0.7 0.3
v 0 0.7 0.2
v 0 0.7 0.1
v 0.1 0 0.2
v 0.1 0 0.1
v 0.1 0.1 0.4
v 0.1 0.1 0.2
v 0.1 0.1 0.1
v 0.1 0.1 -0.1
v 0.1 0.2 0.3
v 0.1 0.2 0
v 0.1 0.3 0.3
v 0.1 0.3 0
v 0.1 0.4 0.1
v 0.1 0.4 -0.1
v 0.1 0.5 0.3
v 0.1 0.5 0.2
v 0.1 0.6 0.4
v 0.1 0.6 0.3
v 0.1 0.6 0.2
v 0.1 0.6 0.1
v 0.1 0.7 0.3
v 0.1 0.7 0.2
v 0.3 0.2 0.3
v 0.3 0.2 0.2
v 0.3 0.2 0.1
v 0.3 0.2 0
v 0.3 0.3 0.3
v 0.3 0.3 0.2
v 0.3 0.3 0.1
v 0.3 0.3 0
v 0.4 0.2 0.2
v 0.4 0.2 0.1
v 0.4 0.3 0.2
v 0.4 0.3 0.1
v -0.1 0.4 0.5
v -0.1 0.5 0.5
v 0 0.4 0.5
v 0 0.5 0.5
v -0.2 0.1 0.4
v -0.2 0.6 0.4
v -0.1 0.4 0.4
v -0.1 0.5 0.4
v -0.1 0.6 0.4
v -0.1 0.7 0.4
v 0 0.4 0.4
v 0 0.5 0.4
v 0 0.6 0.4
v 0 0.7 0.4
v 0.1 0.1 0.4
v 0.1 0.6 0.4
v -0.4 0.2 0.3
v -0.4 0.3 0.3
v -0.3 0.2 0.3
v -0.3 0.3 0.3
v -0.2 0.2 0.3
v -0.2 0.3 0.3
v -0.2 0.6 0.3
v -0.2 0.7 0.3
v -0.1 0.6 0.3
v -0.1 0.7 0.3
v 0 0.6 0.3
v 0 0.7 0.3
v 0.1 0.2 0.3
v 0.1 0.3 0.3
v 0.1 0.6 0.3
v 0.1 0.7 0.3
v 0.2 0.2 0.3
v 0.2 0.3 0.3
v 0.3 0.2 0.3
v 0.3 0.3 0.3
v -0.5 0.2 0.2
v -0.5 0.3 0.2
v -0.4 0.2 0.2
v -0.4 0.3 0.2
v -0.2 0 0.2
v -0.2 0.1 0.2
v -0.1 0 0.2
v -0.1 0.1 0.2
v 0 0 0.2
v 0 0.1 0.2
v 0.1 0 0.2
v 0.1 0.1 0.2
v 0.3 0.2 0.2
v 0.3 0.3 0.2
v 0.4 0.2 0.2
v 0.4 0.3 0.2
v -0.2 0.6 0.2
v -0.2 0.7 0.2
v -0.1 0.6 0.2
v -0.1 0.7 0.2
v 0 0.6 0.2
v 0 0.7 0.2
v 0.1 0.6 0.2
v 0.1 0.7 0.2
v -0.5 0.2 0.1
v -0.5 0.3 0.1
v -0.4 0.2 0.1
v -0.4 0.3 0.1
v -0.2 0 0.1
v -0.2 0.1 0.1
v -0.2 0.4 0.1
v -0.2 0.6 0.1
v -0.1 0 0.1
v -0.1 0.1 0.1
v -0.1 0.5 0.1
v -0.1 0.6 0.1
v -0.1 0.7 0.1
v 0 0 0.1
v 0 0.1 0.1
v 0 0.5 0.1
v 0 0.6 0.1
v 0 0.7 0.1
v 0.1 0 0.1
v 0.1 0.1 0.1
v 0.1 0.4 0.1
v 0.1 0.6 0.1
v 0.3 0.2 0.1
v 0.3 0.3 0.1
v 0.4 0.2 0.1
v 0.4 0.3 0.1
v -0.4 0.2 0
v -0.4 0.3 0
v -0.3 0.2 0
v -0.3 0.3 0
v -0.2 0.2 0
v -0.2 0.3 0
v -0.1 0.5 0
v -0.1 0.6 0
v 0 0.5 0
v 0 0.6 0
v 0.1 0.2 0
v 0.1 0.3 0
v 0.2 0.2 0
v 0.2 0.3 0
v 0.3 0.2 0
v 0.3 0.3 0
v -0.2 0.1 -0.1
v -0.2 0.4 -0.1
v -0.1 0.2 -0.1
v -0.1 0.4 -0.1
v 0 0.2 -0.1
v 0 0.4 -0.1
v 0.1 0.1 -0.1
v 0.1 0.4 -0.1
v -0.1 0.3 -0.2
v -0.1 0.4 -0.2
v 0 0.3 -0.2
v 0 0.4 -0.2
v -0.1 0.2 -0.3
v -0.1 0.3 -0.3
v 0 0.2 -0.3
v 0 0.3 -0.3
v -0.2 0 0.2
v -0.1 0 0.2
v 0 0 0.2
v 0.1 0 0.2
v -0.2 0 0.1
v -0.1 0 0.1
v 0 0 0.1
v 0.1 0 0.1
v -0.2 0.1 0.4
v 0.1 0.1 0.4
v -0.2 0.1 0.2
v -0.1 0.1 0.2
v 0 0.1 0.2
v 0.1 0.1 0.2
v -0.2 0.1 0.1
v -0.1 0.1 0.1
v 0 0.1 0.1
v 0.1 0.1 0.1
v -0.2 0.1 -0.1
v 0.1 0.1 -0.1
v -0.4 0.2 0.3
v -0.3 0.2 0.3
v -0.2 0.2 0.3
v 0.1 0.2 0.3
v 0.2 0.2 0.3
v 0.3 0.2 0.3
v -0.5 0.2 0.2
v -0.4 0.2 0.2
v -0.3 0.2 0.2
v 0.2 0.2 0.2
v 0.3 0.2 0.2
v 0.4 0.2 0.2
v -0.5 0.2 0.1
v -0.4 0.2 0.1
v -0.3 0.2 0.1
v 0.2 0.2 0.1
v 0.3 0.2 0.1
v 0.4 0.2 0.1
v -0.4 0.2 0
v -0.3 0.2 0
v -0.2 0.2 0
v 0.1 0.2 0
v 0.2 0.2 0
v 0.3 0.2 0
v -0.1 0.2 -0.1
v 0 0.2 -0.1
v -0.1 0.2 -0.3
v 0 0.2 -0.3
v -0.1 0.4 0.5
v 0 0.4 0.5
v -0.1 0.4 0.4
v 0 0.4 0.4
v -0.1 0.5 0.1
v 0 0.5 0.1
v -0.1 0.5 0
v 0 0.5 0
v -0.4 0.3 0.3
v -0.3 0.3 0.3
v -0.2 0.3 0.3
v 0.1 0.3 0.3
v 0.2 0.3 0.3
v 0.3 0.3 0.3
v -0.5 0.3 0.2
v -0.4 0.3 0.2
v -0.3 0.3 0.2
v 0.2 0.3 0.2
v 0.3 0.3 0.2
v 0.4 0.3 0.2
v -0.5 0.3 0.1
v -0.4 0.3 0.1
v -0.3 0.3 0.1
v 0.2 0.3 0.1
v 0.3 0.3 0.1
v 0.4 0.3 0.1
v -0.4 0.3 0
v -0.3 0.3 0
v -0.2 0.3 0
v 0.1 0.3 0
v 0.2 0.3 0
v 0.3 0.3 0
v -0.1 0.3 -0.2
v 0 0.3 -0.2
v -0.1 0.3 -0.3
v 0 0.3 -0.3
v -0.2 0.4 0.1
v 0.1 0.4 0.1
v -0.2 0.4 -0.1
v -0.1 0.4 -0.1
v 0 0.4 -0.1
v 0.1 0.4 -0.1
v -0.1 0.4 -0.2
v 0 0.4 -0.2
v -0.1 0.5 0.5
v 0 0.5 0.5
v -0.1 0.5 0.4
v 0 0.5 0.4
v -0.2 0.6 0.4
v -0.1 0.6 0.4
v 0 0.6 0.4
v 0.1 0.6 0.4
v -0.2 0.6 0.3
v -0.1 0.6 0.3
v 0 0.6 0.3
v 0.1 0.6 0.3
v -0.2 0.6 0.2
v -0.1 0.6 0.2
v 0 0.6 0.2
v 0.1 0.6 0.2
v -0.2 0.6 0.1
v -0.1 0.6 0.1
v 0 0.6 0.1
v 0.1 0.6 0.1
v -0.1 0.6 0
v 0 0.6 0
v -0.1 0.7 0.4
v 0 0.7 0.4
v -0.2 0.7 0.3
v -0.1 0.7 0.3
v 0 0.7 0.3
v 0.1 0.7 0.3
v -0.2 0.7 0.2
v -0.1 0.7 0.2
v 0 0.7 0.2
v 0.1 0.7 0.2
v -0.1 0.7 0.1
v 0 0.7 0.1

# faces
f 3/3/1 2/3/1 1/3/1
f 4/3/1 2/3/1 3/3/1
f 9/3/1 6/3/1 5/3/1
f 10/3/1 6/3/1 9/3/1
f 11/3/1 8/3/1 7/3/1
f 12/3/1 8/3/1 11/3/1
f 16/1/1 14/1/1 13/1/1
f 17/1/1 14/1/1 16/1/1
f 19/3/1 16/3/1 15/3/1
f 19/3/1 18/3/1 17/3/1
f 19/3/1 17/3/1 16/3/1
f 20/3/1 18/3/1 19/3/1
f 21/3/1 19/3/1 15/3/1
f 22/3/1 18/3/1 20/3/1
f 23/3/1 22/3/1 21/3/1
f 24/3/1 18/3/1 22/3/1
f 24/3/1 22/3/1 23/3/1
f 25/3/1 21/3/1 15/3/1
f 25/3/1 23/3/1 21/3/1
f 26/3/1 23/3/1 25/3/1
f 27/3/1 25/3/1 15/3/1
f 28/4/1 26/4/1 25/4/1
f 28/3/1 25/3/1 27/3/1
f 29/3/1 23/3/1 26/3/1
f 29/4/1 26/4/1 28/4/1
f 30/3/1 23/3/1 29/3/1
f 31/3/1 29/3/1 28/3/1
f 32/3/1 29/3/1 31/3/1
f 35/3/1 34/3/1 33/3/1
f 36/3/1 34/3/1 35/3/1
f 39/3/1 35/3/1 33/3/1
f 40/3/1 35/3/1 39/3/1
f 41/1/1 38/1/1 37/1/1
f 42/1/1 38/1/1 41/1/1
f 48/3/1 44/3/1 43/3/1
f 49/3/1 44/3/1 48/3/1
f 50/3/1 46/3/1 45/3/1
f 51/3/1 46/3/1 50/3/1
f 52/3/1 48/3/1 47/3/1
f 53/3/1 48/3/1 52/3/1
f 56/1/1 55/1/1 54/1/1
f 57/1/1 55/1/1 56/1/1
f 58/1/2 59/1/2 60/1/2
f 60/1/2 59/1/2 61/1/2
f 62/3/2 63/3/2 64/3/2
f 64/3/2 63/3/2 65/3/2
f 62/3/2 64/3/2 68/3/2
f 68/3/2 64/3/2 69/3/2
f 66/1/2 67/1/2 70/1/2
f 70/1/2 67/1/2 71/1/2
f 72/3/2 73/3/2 77/3/2
f 77/3/2 73/3/2 78/3/2
f 74/3/2 75/3/2 79/3/2
f 79/3/2 75/3/2 80/3/2
f 76/3/2 77/3/2 81/3/2
f 81/3/2 77/3/2 82/3/2
f 83/1/2 84/1/2 86/1/2
f 86/1/2 84/1/2 87/1/2
f 85/3/2 86/3/2 89/3/2
f 87/3/2 88/3/2 89/3/2
f 86/3/2 87/3/2 89/3/2
f 89/3/2 88/3/2 90/3/2
f 85/3/2 89/3/2 91/3/2
f 90/3/2 88/3/2 92/3/2
f 91/3/2 92/3/2 93/3/2
f 92/3/2 88/3/2 94/3/2
f 93/3/2 92/3/2 94/3/2
f 85/3/2 91/3/2 95/3/2
f 91/3/2 93/3/2 95/3/2
f 95/3/2 93/3/2 96/3/2
f 85/3/2 95/3/2 97/3/2
f 95/4/2 96/4/2 98/4/2
f 97/3/2 95/3/2 98/3/2
f 96/3/2 93/3/2 99/3/2
f 98/4/2 96/4/2 99/4/2
f 99/3/2 93/3/2 100/3/2
f 98/3/2 99/3/2 101/3/2
f 101/3/2 99/3/2 102/3/2
f 103/3/2 104/3/2 107/3/2
f 107/3/2 104/3/2 108/3/2
f 105/3/2 106/3/2 109/3/2
f 109/3/2 106/3/2 110/3/2
f 111/3/2 112/3/2 113/3/2
f 113/3/2 112/3/2 114/3/2
f 117/1/3 116/1/3 115/1/3
f 118/1/3 116/1/3 117/1/3
f 121/3/3 120/3/3 119/3/3
f 122/3/3 120/3/3 121/3/3
f 123/3/3 120/3/3 122/3/3
f 125/3/3 121/3/3 119/3/3
f 126/3/3 124/3/3 123/3/3
f 126/3/3 123/3/3 122/3/3
f 127/3/3 124/3/3 126/3/3
f 128/3/3 124/3/3 127/3/3
f 129/3/3 125/3/3 119/3/3
f 129/3/3 126/3/3 125/3/3
f 129/3/3 127/3/3 126/3/3
f 130/3/3 127/3/3 129/3/3
f 133/3/3 132/3/3 131/3/3
f 134/3/3 132/3/3 133/3/3
f 135/4/3 134/4/3 133/4/3
f 136/4/3 134/4/3 135/4/3
f 139/3/3 138/3/3 137/3/3
f 140/3/3 138/3/3 139/3/3
f 145/3/3 142/3/3 141/3/3
f 146/3/3 142/3/3 145/3/3
f 147/4/3 144/4/3 143/4/3
f 148/4/3 144/4/3 147/4/3
f 149/3/3 148/3/3 147/3/3
f 150/3/3 148/3/3 149/3/3
f 153/3/3 152/3/3 151/3/3
f 154/3/3 152/3/3 153/3/3
f 157/1/3 156/1/3 155/1/3
f 158/1/3 156/1/3 157/1/3
f 161/1/3 160/1/3 159/1/3
f 162/1/3 160/1/3 161/1/3
f 165/3/3 164/3/3 163/3/3
f 166/3/3 164/3/3 165/3/3
f 167/3/4 168/3/4 169/3/4
f 169/3/4 168/3/4 170/3/4
f 171/3/4 172/3/4 173/3/4
f 173/3/4 172/3/4 174/3/4
f 175/3/4 176/3/4 177/3/4
f 177/3/4 176/3/4 178/3/4
f 179/1/4 180/1/4 183/1/4
f 183/1/4 180/1/4 184/1/4
f 181/3/4 182/3/4 185/3/4
f 185/3/4 182/3/4 186/3/4
f 181/3/4 185/3/4 190/3/4
f 186/3/4 187/3/4 191/3/4
f 191/3/4 187/3/4 192/3/4
f 188/1/4 189/1/4 193/1/4
f 193/1/4 189/1/4 194/1/4
f 181/3/4 190/3/4 195/3/4
f 190/3/4 191/3/4 195/3/4
f 195/3/4 191/3/4 196/3/4
f 197/3/4 198/3/4 199/3/4
f 199/3/4 198/3/4 200/3/4
f 201/3/4 202/3/4 203/3/4
f 203/3/4 202/3/4 204/3/4
f 203/4/4 204/4/4 205/4/4
f 205/4/4 204/4/4 206/4/4
f 207/3/4 208/3/4 209/3/4
f 209/3/4 208/3/4 210/3/4
f 211/4/4 212/4/4 213/4/4
f 213/4/4 212/4/4 214/4/4
f 213/3/4 214/3/4 215/3/4
f 215/3/4 214/3/4 216/3/4
f 217/3/4 218/3/4 219/3/4
f 219/3/4 218/3/4 220/3/4
f 217/3/4 219/3/4 221/3/4
f 217/3/4 221/3/4 223/3/4
f 221/3/4 222/3/4 223/3/4
f 223/3/4 222/3/4 224/3/4
f 225/3/4 226/3/4 227/3/4
f 227/3/4 226/3/4 228/3/4
f 229/3/4 230/3/4 231/3/4
f 231/3/4 230/3/4 232/3/4
f 237/1/5 234/1/5 233/1/5
f 238/1/5 234/1/5 237/1/5
f 239/1/5 236/1/5 235/1/5
f 240/1/5 236/1/5 239/1/5
f 243/3/5 242/3/5 241/3/5
f 244/3/5 242/3/5 243/3/5
f 245/3/5 242/3/5 244/3/5
f 246/3/5 242/3/5 245/3/5
f 248/3/5 245/3/5 244/3/5
f 249/3/5 245/3/5 248/3/5
f 251/3/5 248/3/5 247/3/5
f 251/3/5 250/3/5 249/3/5
f 251/3/5 249/3/5 248/3/5
f 252/3/5 250/3/5 251/3/5
f 260/3/5 254/3/5 253/3/5
f 261/4/5 255/4/5 254/4/5
f 261/3/5 254/3/5 260/3/5
f 262/3/5 258/3/5 257/3/5
f 262/4/5 257/4/5 256/4/5
f 263/3/5 258/3/5 262/3/5
f 265/3/5 260/3/5 259/3/5
f 266/4/5 261/4/5 260/4/5
f 266/3/5 260/3/5 265/3/5
f 267/4/5 255/4/5 261/4/5
f 267/4/5 261/4/5 266/4/5
f 268/4/5 262/4/5 256/4/5
f 268/4/5 263/4/5 262/4/5
f 269/3/5 264/3/5 263/3/5
f 269/4/5 263/4/5 268/4/5
f 270/3/5 264/3/5 269/3/5
f 271/3/5 267/3/5 266/3/5
f 272/4/5 255/4/5 267/4/5
f 272/3/5 267/3/5 271/3/5
f 273/4/5 255/4/5 272/4/5
f 274/4/5 268/4/5 256/4/5
f 275/3/5 269/3/5 268/3/5
f 275/4/5 268/4/5 274/4/5
f 276/3/5 269/3/5 275/3/5
f 279/3/5 278/3/5 277/3/5
f 280/3/5 278/3/5 279/3/5
f 283/1/5 282/1/5 281/1/5
f 284/1/5 282/1/5 283/1/5
f 287/3/5 286/3/5 285/3/5
f 288/3/5 286/3/5 287/3/5
f 289/3/6 290/3/6 296/3/6
f 290/4/6 291/4/6 297/4/6
f 296/3/6 290/3/6 297/3/6
f 293/3/6 294/3/6 298/3/6
f 292/4/6 293/4/6 298/4/6
f 298/3/6 294/3/6 299/3/6
f 295/3/6 296/3/6 301/3/6
f 296/4/6 297/4/6 302/4/6
f 301/3/6 296/3/6 302/3/6
f 297/4/6 291/4/6 303/4/6
f 302/4/6 297/4/6 303/4/6
f 292/4/6 298/4/6 304/4/6
f 298/4/6 299/4/6 304/4/6
f 299/3/6 300/3/6 305/3/6
f 304/4/6 299/4/6 305/4/6
f 305/3/6 300/3/6 306/3/6
f 302/3/6 303/3/6 307/3/6
f 303/4/6 291/4/6 308/4/6
f 307/3/6 303/3/6 308/3/6
f 308/4/6 291/4/6 309/4/6
f 292/4/6 304/4/6 310/4/6
f 304/3/6 305/3/6 311/3/6
f 310/4/6 304/4/6 311/4/6
f 311/3/6 305/3/6 312/3/6
f 313/3/6 314/3/6 315/3/6
f 315/3/6 314/3/6 316/3/6
f 317/3/6 318/3/6 319/3/6
f 319/3/6 318/3/6 320/3/6
f 320/3/6 318/3/6 321/3/6
f 321/3/6 318/3/6 322/3/6
f 320/3/6 321/3/6 323/3/6
f 323/3/6 321/3/6 324/3/6
f 325/1/6 326/1/6 327/1/6
f 327/1/6 326/1/6 328/1/6
f 329/3/6 330/3/6 333/3/6
f 333/3/6 330/3/6 334/3/6
f 331/3/6 332/3/6 335/3/6
f 335/3/6 332/3/6 336/3/6
f 337/3/6 338/3/6 341/3/6
f 341/3/6 338/3/6 342/3/6
f 339/3/6 340/3/6 343/3/6
f 343/3/6 340/3/6 344/3/6
f 342/3/6 343/3/6 345/3/6
f 345/3/6 343/3/6 346/3/6
f 347/3/6 348/3/6 350/3/6
f 350/3/6 348/3/6 351/3/6
f 349/3/6 350/3/6 353/3/6
f 351/3/6 352/3/6 353/3/6
f 350/3/6 351/3/6 353/3/6
f 353/3/6 352/3/6 354/3/6
f 354/3/6 352/3/6 355/3/6
f 355/3/6 352/3/6 356/3/6
f 354/3/6 355/3/6 357/3/6
f 357/3/6 355/3/6 358/3/6
