# MagicaVoxel @ Ephtracy

# group
o 

# material
mtllib human2.mtl
usemtl palette

# normals
vn -1 0 0
vn 1 0 0
vn 0 0 1
vn 0 0 -1
vn 0 -1 0
vn 0 1 0

# texcoords
vt 0.0605469 0.5
vt 0.779297 0.5
vt 0.876953 0.5
vt 0.958984 0.5
vt 0.994141 0.5

# verts
v -0.4 0.4 0
v -0.4 0.4 -0.1
v -0.4 0.5 0
v -0.4 0.5 -0.1
v -0.4 0.6 0.1
v -0.4 0.6 0
v -0.4 0.6 -0.1
v -0.4 0.6 -0.2
v -0.4 0.7 0.1
v -0.4 0.7 -0.2
v -0.4 0.8 0.1
v -0.4 0.8 -0.2
v -0.4 1 0
v -0.4 1 -0.1
v -0.4 1.1 0.1
v -0.4 1.1 0
v -0.4 1.1 -0.1
v -0.4 1.1 -0.2
v -0.4 1.4 0.1
v -0.4 1.4 -0.2
v -0.3 0.1 0.1
v -0.3 0.1 -0.2
v -0.3 0.3 0.2
v -0.3 0.3 0.1
v -0.3 0.3 -0.2
v -0.3 0.3 -0.3
v -0.3 0.4 0.2
v -0.3 0.4 0.1
v -0.3 0.4 0
v -0.3 0.4 -0.1
v -0.3 0.4 -0.3
v -0.3 0.5 0.2
v -0.3 0.5 0.1
v -0.3 0.5 0
v -0.3 0.5 -0.1
v -0.3 0.6 0.2
v -0.3 0.6 0.1
v -0.3 0.6 0
v -0.3 0.6 -0.1
v -0.3 0.6 -0.2
v -0.3 0.6 -0.3
v -0.3 0.7 0.2
v -0.3 0.7 0.1
v -0.3 0.7 -0.2
v -0.3 0.7 -0.3
v -0.3 0.8 0.2
v -0.3 0.8 0.1
v -0.3 0.8 -0.2
v -0.3 0.8 -0.3
v -0.3 1 0
v -0.3 1 -0.1
v -0.3 1 -0.2
v -0.3 1 -0.3
v -0.3 1.1 0.1
v -0.3 1.1 0
v -0.3 1.1 -0.1
v -0.3 1.1 -0.2
v -0.3 1.4 -0.2
v -0.3 1.4 -0.3
v -0.2 0 0
v -0.2 0 -0.1
v -0.2 0.1 0
v -0.2 0.1 -0.1
v -0.2 1 -0.3
v -0.2 1 -0.4
v -0.2 1.3 -0.3
v -0.2 1.3 -0.4
v 0 1.2 0.2
v 0 1.2 0.1
v 0 1.3 0.1
v 0 1.4 0.1
v 0 1.4 -0.3
v 0 1.5 0.2
v 0 1.5 -0.3
v 0.1 0 0
v 0.1 0 -0.1
v 0.1 0.1 0.1
v 0.1 0.1 0
v 0.1 0.1 -0.1
v 0.1 0.1 -0.2
v 0.1 0.3 0.1
v 0.1 0.3 -0.2
v -0.1 0 0
v -0.1 0 -0.1
v -0.1 0.1 0.1
v -0.1 0.1 0
v -0.1 0.1 -0.1
v -0.1 0.1 -0.2
v -0.1 0.3 0.1
v -0.1 0.3 -0.2
v 0.1 1.2 0.2
v 0.1 1.2 0.1
v 0.1 1.3 0.1
v 0.1 1.4 0.1
v 0.1 1.4 -0.3
v 0.1 1.5 0.2
v 0.1 1.5 -0.3
v 0.2 0 0
v 0.2 0 -0.1
v 0.2 0.1 0
v 0.2 0.1 -0.1
v 0.2 1 -0.3
v 0.2 1 -0.4
v 0.2 1.3 -0.3
v 0.2 1.3 -0.4
v 0.3 0.1 0.1
v 0.3 0.1 -0.2
v 0.3 0.3 0.2
v 0.3 0.3 0.1
v 0.3 0.3 -0.2
v 0.3 0.3 -0.3
v 0.3 0.4 0.2
v 0.3 0.4 0.1
v 0.3 0.4 0
v 0.3 0.4 -0.1
v 0.3 0.4 -0.3
v 0.3 0.5 0.2
v 0.3 0.5 0.1
v 0.3 0.5 0
v 0.3 0.5 -0.1
v 0.3 0.6 0.2
v 0.3 0.6 0.1
v 0.3 0.6 0
v 0.3 0.6 -0.1
v 0.3 0.6 -0.2
v 0.3 0.6 -0.3
v 0.3 0.7 0.2
v 0.3 0.7 0.1
v 0.3 0.7 -0.2
v 0.3 0.7 -0.3
v 0.3 0.8 0.2
v 0.3 0.8 0.1
v 0.3 0.8 -0.2
v 0.3 0.8 -0.3
v 0.3 1 0
v 0.3 1 -0.1
v 0.3 1 -0.2
v 0.3 1 -0.3
v 0.3 1.1 0.1
v 0.3 1.1 0
v 0.3 1.1 -0.1
v 0.3 1.1 -0.2
v 0.3 1.4 -0.2
v 0.3 1.4 -0.3
v 0.4 0.4 0
v 0.4 0.4 -0.1
v 0.4 0.5 0
v 0.4 0.5 -0.1
v 0.4 0.6 0.1
v 0.4 0.6 0
v 0.4 0.6 -0.1
v 0.4 0.6 -0.2
v 0.4 0.7 0.1
v 0.4 0.7 -0.2
v 0.4 0.8 0.1
v 0.4 0.8 -0.2
v 0.4 1 0
v 0.4 1 -0.1
v 0.4 1.1 0.1
v 0.4 1.1 0
v 0.4 1.1 -0.1
v 0.4 1.1 -0.2
v 0.4 1.4 0.1
v 0.4 1.4 -0.2
v -0.3 0.3 0.2
v -0.3 0.4 0.2
v -0.3 0.5 0.2
v -0.3 0.6 0.2
v -0.3 0.7 0.2
v -0.3 0.8 0.2
v 0 1.2 0.2
v 0 1.5 0.2
v 0.1 1.2 0.2
v 0.1 1.5 0.2
v 0.3 0.3 0.2
v 0.3 0.4 0.2
v 0.3 0.5 0.2
v 0.3 0.6 0.2
v 0.3 0.7 0.2
v 0.3 0.8 0.2
v -0.4 0.6 0.1
v -0.4 0.7 0.1
v -0.4 0.8 0.1
v -0.4 1.1 0.1
v -0.4 1.4 0.1
v -0.3 0.1 0.1
v -0.3 0.3 0.1
v -0.3 0.6 0.1
v -0.3 0.7 0.1
v -0.3 0.8 0.1
v -0.3 1.1 0.1
v -0.3 1.3 0.1
v -0.2 1 0.1
v -0.2 1.1 0.1
v -0.1 0.1 0.1
v -0.1 0.3 0.1
v -0.1 1 0.1
v -0.1 1.1 0.1
v 0 1.2 0.1
v 0 1.3 0.1
v 0 1.4 0.1
v 0.1 0.1 0.1
v 0.1 0.3 0.1
v 0.1 1 0.1
v 0.1 1.1 0.1
v 0.1 1.2 0.1
v 0.1 1.3 0.1
v 0.1 1.4 0.1
v 0.2 1 0.1
v 0.2 1.1 0.1
v 0.3 0.1 0.1
v 0.3 0.3 0.1
v 0.3 0.6 0.1
v 0.3 0.7 0.1
v 0.3 0.8 0.1
v 0.3 1.1 0.1
v 0.3 1.3 0.1
v 0.4 0.6 0.1
v 0.4 0.7 0.1
v 0.4 0.8 0.1
v 0.4 1.1 0.1
v 0.4 1.4 0.1
v -0.4 0.4 0
v -0.4 0.5 0
v -0.4 0.6 0
v -0.4 1 0
v -0.4 1.1 0
v -0.3 0.4 0
v -0.3 0.5 0
v -0.3 0.6 0
v -0.3 1 0
v -0.3 1.1 0
v -0.2 0 0
v -0.2 0.1 0
v -0.1 0 0
v -0.1 0.1 0
v 0.1 0 0
v 0.1 0.1 0
v 0.2 0 0
v 0.2 0.1 0
v 0.3 0.4 0
v 0.3 0.5 0
v 0.3 0.6 0
v 0.3 1 0
v 0.3 1.1 0
v 0.4 0.4 0
v 0.4 0.5 0
v 0.4 0.6 0
v 0.4 1 0
v 0.4 1.1 0
v -0.4 0.4 -0.1
v -0.4 0.5 -0.1
v -0.4 0.6 -0.1
v -0.4 1 -0.1
v -0.4 1.1 -0.1
v -0.3 0.4 -0.1
v -0.3 0.5 -0.1
v -0.3 0.6 -0.1
v -0.3 1 -0.1
v -0.3 1.1 -0.1
v -0.2 0 -0.1
v -0.2 0.1 -0.1
v -0.1 0 -0.1
v -0.1 0.1 -0.1
v 0.1 0 -0.1
v 0.1 0.1 -0.1
v 0.2 0 -0.1
v 0.2 0.1 -0.1
v 0.3 0.4 -0.1
v 0.3 0.5 -0.1
v 0.3 0.6 -0.1
v 0.3 1 -0.1
v 0.3 1.1 -0.1
v 0.4 0.4 -0.1
v 0.4 0.5 -0.1
v 0.4 0.6 -0.1
v 0.4 1 -0.1
v 0.4 1.1 -0.1
v -0.4 0.6 -0.2
v -0.4 0.7 -0.2
v -0.4 0.8 -0.2
v -0.4 1.1 -0.2
v -0.4 1.4 -0.2
v -0.3 0.1 -0.2
v -0.3 0.3 -0.2
v -0.3 0.6 -0.2
v -0.3 0.7 -0.2
v -0.3 0.8 -0.2
v -0.3 1 -0.2
v -0.3 1.1 -0.2
v -0.3 1.4 -0.2
v -0.1 0.1 -0.2
v -0.1 0.3 -0.2
v 0.1 0.1 -0.2
v 0.1 0.3 -0.2
v 0.3 0.1 -0.2
v 0.3 0.3 -0.2
v 0.3 0.6 -0.2
v 0.3 0.7 -0.2
v 0.3 0.8 -0.2
v 0.3 1 -0.2
v 0.3 1.1 -0.2
v 0.3 1.4 -0.2
v 0.4 0.6 -0.2
v 0.4 0.7 -0.2
v 0.4 0.8 -0.2
v 0.4 1.1 -0.2
v 0.4 1.4 -0.2
v -0.3 0.3 -0.3
v -0.3 0.4 -0.3
v -0.3 0.6 -0.3
v -0.3 0.7 -0.3
v -0.3 0.8 -0.3
v -0.3 1 -0.3
v -0.3 1.4 -0.3
v -0.2 1 -0.3
v -0.2 1.3 -0.3
v 0 1.4 -0.3
v 0 1.5 -0.3
v 0.1 1.4 -0.3
v 0.1 1.5 -0.3
v 0.2 1 -0.3
v 0.2 1.3 -0.3
v 0.3 0.3 -0.3
v 0.3 0.4 -0.3
v 0.3 0.6 -0.3
v 0.3 0.7 -0.3
v 0.3 0.8 -0.3
v 0.3 1 -0.3
v 0.3 1.4 -0.3
v -0.2 1 -0.4
v -0.2 1.3 -0.4
v 0.2 1 -0.4
v 0.2 1.3 -0.4
v -0.2 0 0
v -0.1 0 0
v 0.1 0 0
v 0.2 0 0
v -0.2 0 -0.1
v -0.1 0 -0.1
v 0.1 0 -0.1
v 0.2 0 -0.1
v -0.3 0.1 0.1
v -0.1 0.1 0.1
v 0.1 0.1 0.1
v 0.3 0.1 0.1
v -0.2 0.1 0
v -0.1 0.1 0
v 0.1 0.1 0
v 0.2 0.1 0
v -0.2 0.1 -0.1
v -0.1 0.1 -0.1
v 0.1 0.1 -0.1
v 0.2 0.1 -0.1
v -0.3 0.1 -0.2
v -0.1 0.1 -0.2
v 0.1 0.1 -0.2
v 0.3 0.1 -0.2
v -0.3 0.3 0.2
v 0.3 0.3 0.2
v -0.3 0.3 0.1
v -0.1 0.3 0.1
v 0.1 0.3 0.1
v 0.3 0.3 0.1
v -0.3 0.3 -0.2
v -0.1 0.3 -0.2
v 0.1 0.3 -0.2
v 0.3 0.3 -0.2
v -0.3 0.3 -0.3
v 0.3 0.3 -0.3
v -0.4 0.4 0
v -0.3 0.4 0
v 0.3 0.4 0
v 0.4 0.4 0
v -0.4 0.4 -0.1
v -0.3 0.4 -0.1
v 0.3 0.4 -0.1
v 0.4 0.4 -0.1
v -0.4 0.6 0.1
v -0.3 0.6 0.1
v 0.3 0.6 0.1
v 0.4 0.6 0.1
v -0.4 0.6 0
v -0.3 0.6 0
v 0.3 0.6 0
v 0.4 0.6 0
v -0.4 0.6 -0.1
v -0.3 0.6 -0.1
v 0.3 0.6 -0.1
v 0.4 0.6 -0.1
v -0.4 0.6 -0.2
v -0.3 0.6 -0.2
v 0.3 0.6 -0.2
v 0.4 0.6 -0.2
v -0.4 1 0
v -0.3 1 0
v 0.3 1 0
v 0.4 1 0
v -0.4 1 -0.1
v -0.3 1 -0.1
v 0.3 1 -0.1
v 0.4 1 -0.1
v -0.3 1 -0.2
v 0.3 1 -0.2
v -0.3 1 -0.3
v -0.2 1 -0.3
v 0.2 1 -0.3
v 0.3 1 -0.3
v -0.2 1 -0.4
v 0.2 1 -0.4
v -0.4 1.1 0.1
v -0.3 1.1 0.1
v 0.3 1.1 0.1
v 0.4 1.1 0.1
v -0.4 1.1 0
v -0.3 1.1 0
v 0.3 1.1 0
v 0.4 1.1 0
v -0.4 1.1 -0.1
v -0.3 1.1 -0.1
v 0.3 1.1 -0.1
v 0.4 1.1 -0.1
v -0.4 1.1 -0.2
v -0.3 1.1 -0.2
v 0.3 1.1 -0.2
v 0.4 1.1 -0.2
v 0 1.2 0.2
v 0.1 1.2 0.2
v 0 1.2 0.1
v 0.1 1.2 0.1
v -0.3 0.8 0.2
v 0.3 0.8 0.2
v -0.4 0.8 0.1
v -0.3 0.8 0.1
v 0.3 0.8 0.1
v 0.4 0.8 0.1
v -0.4 0.8 -0.2
v -0.3 0.8 -0.2
v 0.3 0.8 -0.2
v 0.4 0.8 -0.2
v -0.3 0.8 -0.3
v 0.3 0.8 -0.3
v -0.2 1.3 -0.3
v 0.2 1.3 -0.3
v -0.2 1.3 -0.4
v 0.2 1.3 -0.4
v -0.4 1.4 0.1
v 0 1.4 0.1
v 0.1 1.4 0.1
v 0.4 1.4 0.1
v -0.4 1.4 -0.2
v -0.3 1.4 -0.2
v 0.3 1.4 -0.2
v 0.4 1.4 -0.2
v -0.3 1.4 -0.3
v 0 1.4 -0.3
v 0.1 1.4 -0.3
v 0.3 1.4 -0.3
v 0 1.5 0.2
v 0.1 1.5 0.2
v 0 1.5 -0.3
v 0.1 1.5 -0.3

# faces
f 3/1/1 2/1/1 1/1/1
f 4/1/1 2/1/1 3/1/1
f 6/4/1 4/4/1 3/4/1
f 7/4/1 4/4/1 6/4/1
f 9/2/1 7/2/1 6/2/1
f 9/2/1 8/2/1 7/2/1
f 9/2/1 6/2/1 5/2/1
f 10/2/1 8/2/1 9/2/1
f 11/4/1 10/4/1 9/4/1
f 12/4/1 10/4/1 11/4/1
f 16/1/1 14/1/1 13/1/1
f 17/1/1 14/1/1 16/1/1
f 19/5/1 16/5/1 15/5/1
f 19/5/1 18/5/1 17/5/1
f 19/5/1 17/5/1 16/5/1
f 20/5/1 18/5/1 19/5/1
f 24/3/1 22/3/1 21/3/1
f 25/3/1 22/3/1 24/3/1
f 27/3/1 24/3/1 23/3/1
f 27/3/1 26/3/1 25/3/1
f 27/3/1 25/3/1 24/3/1
f 28/3/1 26/3/1 27/3/1
f 29/3/1 26/3/1 28/3/1
f 30/3/1 26/3/1 29/3/1
f 31/3/1 26/3/1 30/3/1
f 32/2/1 28/2/1 27/2/1
f 33/4/1 29/4/1 28/4/1
f 33/2/1 28/2/1 32/2/1
f 34/4/1 29/4/1 33/4/1
f 35/4/1 31/4/1 30/4/1
f 36/4/1 34/4/1 33/4/1
f 36/4/1 33/4/1 32/4/1
f 37/4/1 34/4/1 36/4/1
f 38/4/1 34/4/1 37/4/1
f 39/4/1 31/4/1 35/4/1
f 40/4/1 31/4/1 39/4/1
f 41/4/1 31/4/1 40/4/1
f 42/2/1 37/2/1 36/2/1
f 43/2/1 37/2/1 42/2/1
f 44/2/1 41/2/1 40/2/1
f 45/2/1 41/2/1 44/2/1
f 46/4/1 43/4/1 42/4/1
f 47/4/1 43/4/1 46/4/1
f 48/4/1 45/4/1 44/4/1
f 49/4/1 45/4/1 48/4/1
f 50/1/1 48/1/1 47/1/1
f 51/1/1 48/1/1 50/1/1
f 52/1/1 48/1/1 51/1/1
f 54/1/1 50/1/1 47/1/1
f 55/1/1 50/1/1 54/1/1
f 56/1/1 52/1/1 51/1/1
f 57/5/1 53/5/1 52/5/1
f 57/1/1 52/1/1 56/1/1
f 58/5/1 53/5/1 57/5/1
f 59/5/1 53/5/1 58/5/1
f 62/5/1 61/5/1 60/5/1
f 63/5/1 61/5/1 62/5/1
f 66/5/1 65/5/1 64/5/1
f 67/5/1 65/5/1 66/5/1
f 70/5/1 69/5/1 68/5/1
f 71/5/1 70/5/1 68/5/1
f 73/5/1 71/5/1 68/5/1
f 73/5/1 72/5/1 71/5/1
f 74/5/1 72/5/1 73/5/1
f 78/5/1 76/5/1 75/5/1
f 79/5/1 76/5/1 78/5/1
f 81/3/1 78/3/1 77/3/1
f 81/3/1 80/3/1 79/3/1
f 81/3/1 79/3/1 78/3/1
f 82/3/1 80/3/1 81/3/1
f 83/5/2 84/5/2 86/5/2
f 86/5/2 84/5/2 87/5/2
f 85/3/2 86/3/2 89/3/2
f 87/3/2 88/3/2 89/3/2
f 86/3/2 87/3/2 89/3/2
f 89/3/2 88/3/2 90/3/2
f 91/5/2 92/5/2 93/5/2
f 91/5/2 93/5/2 94/5/2
f 91/5/2 94/5/2 96/5/2
f 94/5/2 95/5/2 96/5/2
f 96/5/2 95/5/2 97/5/2
f 98/5/2 99/5/2 100/5/2
f 100/5/2 99/5/2 101/5/2
f 102/5/2 103/5/2 104/5/2
f 104/5/2 103/5/2 105/5/2
f 106/3/2 107/3/2 109/3/2
f 109/3/2 107/3/2 110/3/2
f 108/3/2 109/3/2 112/3/2
f 110/3/2 111/3/2 112/3/2
f 109/3/2 110/3/2 112/3/2
f 112/3/2 111/3/2 113/3/2
f 113/3/2 111/3/2 114/3/2
f 114/3/2 111/3/2 115/3/2
f 115/3/2 111/3/2 116/3/2
f 112/2/2 113/2/2 117/2/2
f 113/4/2 114/4/2 118/4/2
f 117/2/2 113/2/2 118/2/2
f 118/4/2 114/4/2 119/4/2
f 115/4/2 116/4/2 120/4/2
f 118/4/2 119/4/2 121/4/2
f 117/4/2 118/4/2 121/4/2
f 121/4/2 119/4/2 122/4/2
f 122/4/2 119/4/2 123/4/2
f 120/4/2 116/4/2 124/4/2
f 124/4/2 116/4/2 125/4/2
f 125/4/2 116/4/2 126/4/2
f 121/2/2 122/2/2 127/2/2
f 127/2/2 122/2/2 128/2/2
f 125/2/2 126/2/2 129/2/2
f 129/2/2 126/2/2 130/2/2
f 127/4/2 128/4/2 131/4/2
f 131/4/2 128/4/2 132/4/2
f 129/4/2 130/4/2 133/4/2
f 133/4/2 130/4/2 134/4/2
f 132/1/2 133/1/2 135/1/2
f 135/1/2 133/1/2 136/1/2
f 136/1/2 133/1/2 137/1/2
f 132/1/2 135/1/2 139/1/2
f 139/1/2 135/1/2 140/1/2
f 136/1/2 137/1/2 141/1/2
f 137/5/2 138/5/2 142/5/2
f 141/1/2 137/1/2 142/1/2
f 142/5/2 138/5/2 143/5/2
f 143/5/2 138/5/2 144/5/2
f 145/1/2 146/1/2 147/1/2
f 147/1/2 146/1/2 148/1/2
f 147/4/2 148/4/2 150/4/2
f 150/4/2 148/4/2 151/4/2
f 150/2/2 151/2/2 153/2/2
f 151/2/2 152/2/2 153/2/2
f 149/2/2 150/2/2 153/2/2
f 153/2/2 152/2/2 154/2/2
f 153/4/2 154/4/2 155/4/2
f 155/4/2 154/4/2 156/4/2
f 157/1/2 158/1/2 160/1/2
f 160/1/2 158/1/2 161/1/2
f 159/5/2 160/5/2 163/5/2
f 161/5/2 162/5/2 163/5/2
f 160/5/2 161/5/2 163/5/2
f 163/5/2 162/5/2 164/5/2
f 173/5/3 172/5/3 171/5/3
f 174/5/3 172/5/3 173/5/3
f 175/3/3 166/3/3 165/3/3
f 176/2/3 167/2/3 166/2/3
f 176/3/3 166/3/3 175/3/3
f 177/4/3 168/4/3 167/4/3
f 177/2/3 167/2/3 176/2/3
f 178/2/3 169/2/3 168/2/3
f 178/4/3 168/4/3 177/4/3
f 179/4/3 170/4/3 169/4/3
f 179/2/3 169/2/3 178/2/3
f 180/4/3 170/4/3 179/4/3
f 188/2/3 182/2/3 181/2/3
f 189/4/3 183/4/3 182/4/3
f 189/2/3 182/2/3 188/2/3
f 190/4/3 183/4/3 189/4/3
f 191/5/3 185/5/3 184/5/3
f 192/5/3 185/5/3 191/5/3
f 193/1/3 192/1/3 191/1/3
f 193/1/3 191/1/3 190/1/3
f 194/1/3 192/1/3 193/1/3
f 195/3/3 187/3/3 186/3/3
f 196/3/3 187/3/3 195/3/3
f 197/1/3 193/1/3 190/1/3
f 197/5/3 194/5/3 193/5/3
f 198/1/3 192/1/3 194/1/3
f 198/5/3 194/5/3 197/5/3
f 199/1/3 192/1/3 198/1/3
f 199/1/3 198/1/3 197/1/3
f 200/5/3 185/5/3 192/5/3
f 200/1/3 192/1/3 199/1/3
f 201/5/3 185/5/3 200/5/3
f 204/1/3 197/1/3 190/1/3
f 204/1/3 199/1/3 197/1/3
f 205/1/3 199/1/3 204/1/3
f 206/1/3 199/1/3 205/1/3
f 209/1/3 204/1/3 190/1/3
f 209/5/3 205/5/3 204/5/3
f 210/1/3 207/1/3 206/1/3
f 210/5/3 205/5/3 209/5/3
f 210/1/3 206/1/3 205/1/3
f 211/3/3 203/3/3 202/3/3
f 212/3/3 203/3/3 211/3/3
f 215/1/3 209/1/3 190/1/3
f 215/1/3 210/1/3 209/1/3
f 216/1/3 207/1/3 210/1/3
f 216/1/3 210/1/3 215/1/3
f 217/5/3 208/5/3 207/5/3
f 217/1/3 207/1/3 216/1/3
f 218/2/3 214/2/3 213/2/3
f 219/4/3 215/4/3 214/4/3
f 219/2/3 214/2/3 218/2/3
f 220/4/3 215/4/3 219/4/3
f 221/5/3 217/5/3 216/5/3
f 222/5/3 208/5/3 217/5/3
f 222/5/3 217/5/3 221/5/3
f 228/1/3 224/1/3 223/1/3
f 229/4/3 225/4/3 224/4/3
f 229/1/3 224/1/3 228/1/3
f 230/4/3 225/4/3 229/4/3
f 231/1/3 227/1/3 226/1/3
f 232/1/3 227/1/3 231/1/3
f 235/5/3 234/5/3 233/5/3
f 236/5/3 234/5/3 235/5/3
f 239/5/3 238/5/3 237/5/3
f 240/5/3 238/5/3 239/5/3
f 246/1/3 242/1/3 241/1/3
f 247/4/3 243/4/3 242/4/3
f 247/1/3 242/1/3 246/1/3
f 248/4/3 243/4/3 247/4/3
f 249/1/3 245/1/3 244/1/3
f 250/1/3 245/1/3 249/1/3
f 251/1/4 252/1/4 256/1/4
f 252/4/4 253/4/4 257/4/4
f 256/1/4 252/1/4 257/1/4
f 257/4/4 253/4/4 258/4/4
f 254/1/4 255/1/4 259/1/4
f 259/1/4 255/1/4 260/1/4
f 261/5/4 262/5/4 263/5/4
f 263/5/4 262/5/4 264/5/4
f 265/5/4 266/5/4 267/5/4
f 267/5/4 266/5/4 268/5/4
f 269/1/4 270/1/4 274/1/4
f 270/4/4 271/4/4 275/4/4
f 274/1/4 270/1/4 275/1/4
f 275/4/4 271/4/4 276/4/4
f 272/1/4 273/1/4 277/1/4
f 277/1/4 273/1/4 278/1/4
f 279/2/4 280/2/4 286/2/4
f 280/4/4 281/4/4 287/4/4
f 286/2/4 280/2/4 287/2/4
f 287/4/4 281/4/4 288/4/4
f 282/5/4 283/5/4 290/5/4
f 290/5/4 283/5/4 291/5/4
f 284/3/4 285/3/4 292/3/4
f 292/3/4 285/3/4 293/3/4
f 294/3/4 295/3/4 296/3/4
f 296/3/4 295/3/4 297/3/4
f 288/1/4 289/1/4 300/1/4
f 300/1/4 289/1/4 301/1/4
f 298/2/4 299/2/4 304/2/4
f 299/4/4 300/4/4 305/4/4
f 304/2/4 299/2/4 305/2/4
f 305/4/4 300/4/4 306/4/4
f 302/5/4 303/5/4 307/5/4
f 307/5/4 303/5/4 308/5/4
f 314/5/4 315/5/4 316/5/4
f 316/5/4 315/5/4 317/5/4
f 317/5/4 315/5/4 318/5/4
f 317/5/4 318/5/4 320/5/4
f 318/5/4 319/5/4 320/5/4
f 320/5/4 319/5/4 321/5/4
f 317/5/4 320/5/4 323/5/4
f 309/3/4 310/3/4 324/3/4
f 310/4/4 311/4/4 325/4/4
f 324/3/4 310/3/4 325/3/4
f 311/2/4 312/2/4 326/2/4
f 325/4/4 311/4/4 326/4/4
f 312/4/4 313/4/4 327/4/4
f 326/2/4 312/2/4 327/2/4
f 327/4/4 313/4/4 328/4/4
f 322/5/4 323/5/4 329/5/4
f 323/5/4 320/5/4 330/5/4
f 329/5/4 323/5/4 330/5/4
f 331/5/4 332/5/4 333/5/4
f 333/5/4 332/5/4 334/5/4
f 339/5/5 336/5/5 335/5/5
f 340/5/5 336/5/5 339/5/5
f 341/5/5 338/5/5 337/5/5
f 342/5/5 338/5/5 341/5/5
f 347/3/5 344/3/5 343/3/5
f 348/3/5 344/3/5 347/3/5
f 349/3/5 346/3/5 345/3/5
f 350/3/5 346/3/5 349/3/5
f 351/3/5 347/3/5 343/3/5
f 354/3/5 346/3/5 350/3/5
f 355/3/5 352/3/5 351/3/5
f 355/3/5 351/3/5 343/3/5
f 356/3/5 352/3/5 355/3/5
f 357/3/5 354/3/5 353/3/5
f 358/3/5 346/3/5 354/3/5
f 358/3/5 354/3/5 357/3/5
f 361/3/5 360/3/5 359/3/5
f 362/3/5 360/3/5 361/3/5
f 363/3/5 360/3/5 362/3/5
f 364/3/5 360/3/5 363/3/5
f 366/3/5 363/3/5 362/3/5
f 367/3/5 363/3/5 366/3/5
f 369/3/5 366/3/5 365/3/5
f 369/3/5 368/3/5 367/3/5
f 369/3/5 367/3/5 366/3/5
f 370/3/5 368/3/5 369/3/5
f 375/1/5 372/1/5 371/1/5
f 376/1/5 372/1/5 375/1/5
f 377/1/5 374/1/5 373/1/5
f 378/1/5 374/1/5 377/1/5
f 383/2/5 380/2/5 379/2/5
f 384/2/5 380/2/5 383/2/5
f 385/2/5 382/2/5 381/2/5
f 386/2/5 382/2/5 385/2/5
f 391/2/5 388/2/5 387/2/5
f 392/2/5 388/2/5 391/2/5
f 393/2/5 390/2/5 389/2/5
f 394/2/5 390/2/5 393/2/5
f 399/1/5 396/1/5 395/1/5
f 400/1/5 396/1/5 399/1/5
f 401/1/5 398/1/5 397/1/5
f 402/1/5 398/1/5 401/1/5
f 405/5/5 404/5/5 403/5/5
f 406/5/5 404/5/5 405/5/5
f 407/5/5 404/5/5 406/5/5
f 408/5/5 404/5/5 407/5/5
f 409/5/5 407/5/5 406/5/5
f 410/5/5 407/5/5 409/5/5
f 415/5/5 412/5/5 411/5/5
f 416/5/5 412/5/5 415/5/5
f 417/5/5 414/5/5 413/5/5
f 418/5/5 414/5/5 417/5/5
f 423/5/5 420/5/5 419/5/5
f 424/5/5 420/5/5 423/5/5
f 425/5/5 422/5/5 421/5/5
f 426/5/5 422/5/5 425/5/5
f 429/5/5 428/5/5 427/5/5
f 430/5/5 428/5/5 429/5/5
f 431/4/6 432/4/6 434/4/6
f 434/4/6 432/4/6 435/4/6
f 433/4/6 434/4/6 437/4/6
f 437/4/6 434/4/6 438/4/6
f 435/4/6 436/4/6 439/4/6
f 439/4/6 436/4/6 440/4/6
f 438/4/6 439/4/6 441/4/6
f 441/4/6 439/4/6 442/4/6
f 443/5/6 444/5/6 445/5/6
f 445/5/6 444/5/6 446/5/6
f 447/5/6 448/5/6 451/5/6
f 451/5/6 448/5/6 452/5/6
f 449/5/6 450/5/6 453/5/6
f 453/5/6 450/5/6 454/5/6
f 452/5/6 448/5/6 455/5/6
f 455/5/6 448/5/6 456/5/6
f 449/5/6 453/5/6 457/5/6
f 457/5/6 453/5/6 458/5/6
f 459/5/6 460/5/6 461/5/6
f 461/5/6 460/5/6 462/5/6
