# MagicaVoxel @ Ephtracy

# group
o 

# material
mtllib me.mtl
usemtl palette

# normals
vn -1 0 0
vn 1 0 0
vn 0 0 1
vn 0 0 -1
vn 0 -1 0
vn 0 1 0

# texcoords
vt 0.0332031 0.5
vt 0.810547 0.5
vt 0.841797 0.5
vt 0.986328 0.5
vt 0.990234 0.5
vt 0.994141 0.5

# verts
v -0.4 0.4 0
v -0.4 0.4 -0.1
v -0.4 0.5 0
v -0.4 0.5 -0.1
v -0.4 0.6 0.1
v -0.4 0.6 0
v -0.4 0.6 -0.1
v -0.4 0.6 -0.2
v -0.4 0.8 0.1
v -0.4 0.8 -0.2
v -0.4 1 0
v -0.4 1 -0.1
v -0.4 1.1 0.1
v -0.4 1.1 0
v -0.4 1.1 -0.1
v -0.4 1.1 -0.2
v -0.4 1.4 0.1
v -0.4 1.4 -0.2
v -0.3 0.1 0.1
v -0.3 0.1 -0.2
v -0.3 0.3 0.2
v -0.3 0.3 0.1
v -0.3 0.3 -0.2
v -0.3 0.3 -0.3
v -0.3 0.4 0.2
v -0.3 0.4 0
v -0.3 0.4 -0.1
v -0.3 0.4 -0.3
v -0.3 0.5 0
v -0.3 0.5 -0.1
v -0.3 0.6 0.1
v -0.3 0.6 0
v -0.3 0.6 -0.1
v -0.3 0.6 -0.2
v -0.3 0.8 0.2
v -0.3 0.8 0.1
v -0.3 0.8 -0.2
v -0.3 0.8 -0.3
v -0.3 1 0
v -0.3 1 -0.1
v -0.3 1.1 0.1
v -0.3 1.1 0
v -0.3 1.1 -0.1
v -0.3 1.1 -0.2
v -0.3 1.4 -0.2
v -0.3 1.4 -0.3
v -0.2 0 0
v -0.2 0 -0.1
v -0.2 0.1 0
v -0.2 0.1 -0.1
v -0.2 0.9 -0.3
v -0.2 0.9 -0.4
v -0.2 1.3 -0.3
v -0.2 1.3 -0.4
v 0 1.2 0.2
v 0 1.2 0.1
v 0 1.3 0.2
v 0 1.3 0.1
v 0.1 0 0
v 0.1 0 -0.1
v 0.1 0.1 0.1
v 0.1 0.1 0
v 0.1 0.1 -0.1
v 0.1 0.1 -0.2
v 0.1 0.3 0.1
v 0.1 0.3 -0.2
v 0.2 1.1 0.2
v 0.2 1.1 0.1
v 0.2 1.2 0.2
v 0.2 1.2 0.1
v -0.1 0 0
v -0.1 0 -0.1
v -0.1 0.1 0.1
v -0.1 0.1 0
v -0.1 0.1 -0.1
v -0.1 0.1 -0.2
v -0.1 0.3 0.1
v -0.1 0.3 -0.2
v 0.2 0 0
v 0.2 0 -0.1
v 0.2 0.1 0
v 0.2 0.1 -0.1
v 0.2 0.9 -0.3
v 0.2 0.9 -0.4
v 0.2 1.2 -0.2
v 0.2 1.2 -0.3
v 0.2 1.3 -0.3
v 0.2 1.3 -0.4
v 0.2 1.4 -0.2
v 0.2 1.4 -0.3
v 0.3 0.1 0.1
v 0.3 0.1 -0.2
v 0.3 0.3 0.2
v 0.3 0.3 0.1
v 0.3 0.3 -0.2
v 0.3 0.3 -0.3
v 0.3 0.4 0.2
v 0.3 0.4 0
v 0.3 0.4 -0.1
v 0.3 0.4 -0.3
v 0.3 0.5 0
v 0.3 0.5 -0.1
v 0.3 0.6 0.1
v 0.3 0.6 0
v 0.3 0.6 -0.1
v 0.3 0.6 -0.2
v 0.3 0.8 0.2
v 0.3 0.8 0.1
v 0.3 0.8 -0.2
v 0.3 0.8 -0.3
v 0.3 1 0
v 0.3 1 -0.1
v 0.3 1.1 0.1
v 0.3 1.1 0
v 0.3 1.1 -0.1
v 0.3 1.1 -0.2
v 0.3 1.2 0.2
v 0.3 1.2 0.1
v 0.3 1.2 -0.2
v 0.3 1.2 -0.3
v 0.3 1.3 0.2
v 0.3 1.3 0.1
v 0.3 1.3 -0.2
v 0.3 1.4 0.1
v 0.3 1.4 -0.2
v 0.4 0.4 0
v 0.4 0.4 -0.1
v 0.4 0.5 0
v 0.4 0.5 -0.1
v 0.4 0.6 0.1
v 0.4 0.6 0
v 0.4 0.6 -0.1
v 0.4 0.6 -0.2
v 0.4 0.8 0.1
v 0.4 0.8 -0.2
v 0.4 1 0
v 0.4 1 -0.1
v 0.4 1.1 0.2
v 0.4 1.1 0
v 0.4 1.1 -0.1
v 0.4 1.1 -0.2
v 0.4 1.2 0.2
v 0.4 1.2 0.1
v 0.4 1.3 0.1
v 0.4 1.3 -0.2
v -0.3 0.3 0.2
v -0.3 0.4 0.2
v -0.3 0.8 0.2
v -0.2 0.5 0.2
v -0.2 0.8 0.2
v -0.1 0.6 0.2
v -0.1 0.7 0.2
v 0 0.4 0.2
v 0 0.5 0.2
v 0 0.6 0.2
v 0 0.7 0.2
v 0 1.2 0.2
v 0 1.3 0.2
v 0.1 0.4 0.2
v 0.1 0.8 0.2
v 0.2 1.1 0.2
v 0.2 1.2 0.2
v 0.3 0.3 0.2
v 0.3 0.4 0.2
v 0.3 0.8 0.2
v 0.3 1.2 0.2
v 0.3 1.3 0.2
v 0.4 1.1 0.2
v 0.4 1.2 0.2
v -0.4 0.6 0.1
v -0.4 0.8 0.1
v -0.4 1.1 0.1
v -0.4 1.4 0.1
v -0.3 0.1 0.1
v -0.3 0.3 0.1
v -0.3 0.6 0.1
v -0.3 0.8 0.1
v -0.3 1.1 0.1
v -0.3 1.3 0.1
v -0.2 0.8 0.1
v -0.2 1 0.1
v -0.2 1.1 0.1
v -0.1 0.1 0.1
v -0.1 0.3 0.1
v -0.1 1 0.1
v -0.1 1.1 0.1
v 0 1.2 0.1
v 0 1.3 0.1
v 0.1 0.1 0.1
v 0.1 0.3 0.1
v 0.1 0.8 0.1
v 0.1 1 0.1
v 0.1 1.1 0.1
v 0.2 1 0.1
v 0.2 1.1 0.1
v 0.2 1.2 0.1
v 0.3 0.1 0.1
v 0.3 0.3 0.1
v 0.3 0.6 0.1
v 0.3 0.8 0.1
v 0.3 1.1 0.1
v 0.3 1.2 0.1
v 0.3 1.3 0.1
v 0.3 1.4 0.1
v 0.4 0.6 0.1
v 0.4 0.8 0.1
v 0.4 1.2 0.1
v 0.4 1.3 0.1
v -0.4 0.4 0
v -0.4 0.5 0
v -0.4 0.6 0
v -0.4 1 0
v -0.4 1.1 0
v -0.3 0.4 0
v -0.3 0.5 0
v -0.3 0.6 0
v -0.3 1 0
v -0.3 1.1 0
v -0.2 0 0
v -0.2 0.1 0
v -0.1 0 0
v -0.1 0.1 0
v 0.1 0 0
v 0.1 0.1 0
v 0.2 0 0
v 0.2 0.1 0
v 0.3 0.4 0
v 0.3 0.5 0
v 0.3 0.6 0
v 0.3 1 0
v 0.3 1.1 0
v 0.4 0.4 0
v 0.4 0.5 0
v 0.4 0.6 0
v 0.4 1 0
v 0.4 1.1 0
v -0.4 0.4 -0.1
v -0.4 0.5 -0.1
v -0.4 0.6 -0.1
v -0.4 1 -0.1
v -0.4 1.1 -0.1
v -0.3 0.4 -0.1
v -0.3 0.5 -0.1
v -0.3 0.6 -0.1
v -0.3 1 -0.1
v -0.3 1.1 -0.1
v -0.2 0 -0.1
v -0.2 0.1 -0.1
v -0.1 0 -0.1
v -0.1 0.1 -0.1
v 0.1 0 -0.1
v 0.1 0.1 -0.1
v 0.2 0 -0.1
v 0.2 0.1 -0.1
v 0.3 0.4 -0.1
v 0.3 0.5 -0.1
v 0.3 0.6 -0.1
v 0.3 1 -0.1
v 0.3 1.1 -0.1
v 0.4 0.4 -0.1
v 0.4 0.5 -0.1
v 0.4 0.6 -0.1
v 0.4 1 -0.1
v 0.4 1.1 -0.1
v -0.4 0.6 -0.2
v -0.4 0.8 -0.2
v -0.4 1.1 -0.2
v -0.4 1.4 -0.2
v -0.3 0.1 -0.2
v -0.3 0.3 -0.2
v -0.3 0.6 -0.2
v -0.3 0.8 -0.2
v -0.3 1.1 -0.2
v -0.3 1.4 -0.2
v -0.1 0.1 -0.2
v -0.1 0.3 -0.2
v 0.1 0.1 -0.2
v 0.1 0.3 -0.2
v 0.2 1.2 -0.2
v 0.2 1.4 -0.2
v 0.3 0.1 -0.2
v 0.3 0.3 -0.2
v 0.3 0.6 -0.2
v 0.3 0.8 -0.2
v 0.3 1.1 -0.2
v 0.3 1.2 -0.2
v 0.3 1.3 -0.2
v 0.3 1.4 -0.2
v 0.4 0.6 -0.2
v 0.4 0.8 -0.2
v 0.4 1.1 -0.2
v 0.4 1.3 -0.2
v -0.3 0.3 -0.3
v -0.3 0.4 -0.3
v -0.3 0.8 -0.3
v -0.3 1.4 -0.3
v -0.2 0.9 -0.3
v -0.2 1.3 -0.3
v -0.1 0.4 -0.3
v -0.1 0.8 -0.3
v 0 0.4 -0.3
v 0 0.5 -0.3
v 0 0.6 -0.3
v 0 0.7 -0.3
v 0.1 0.6 -0.3
v 0.1 0.7 -0.3
v 0.2 0.5 -0.3
v 0.2 0.8 -0.3
v 0.2 0.9 -0.3
v 0.2 1.2 -0.3
v 0.2 1.3 -0.3
v 0.2 1.4 -0.3
v 0.3 0.3 -0.3
v 0.3 0.4 -0.3
v 0.3 0.8 -0.3
v 0.3 1.2 -0.3
v -0.2 0.9 -0.4
v -0.2 1.3 -0.4
v 0.2 0.9 -0.4
v 0.2 1.3 -0.4
v -0.2 0 0
v -0.1 0 0
v 0.1 0 0
v 0.2 0 0
v -0.2 0 -0.1
v -0.1 0 -0.1
v 0.1 0 -0.1
v 0.2 0 -0.1
v -0.3 0.1 0.1
v -0.1 0.1 0.1
v 0.1 0.1 0.1
v 0.3 0.1 0.1
v -0.2 0.1 0
v -0.1 0.1 0
v 0.1 0.1 0
v 0.2 0.1 0
v -0.2 0.1 -0.1
v -0.1 0.1 -0.1
v 0.1 0.1 -0.1
v 0.2 0.1 -0.1
v -0.3 0.1 -0.2
v -0.1 0.1 -0.2
v 0.1 0.1 -0.2
v 0.3 0.1 -0.2
v -0.3 0.3 0.2
v 0.3 0.3 0.2
v -0.3 0.3 0.1
v -0.1 0.3 0.1
v 0.1 0.3 0.1
v 0.3 0.3 0.1
v -0.3 0.3 -0.2
v -0.1 0.3 -0.2
v 0.1 0.3 -0.2
v 0.3 0.3 -0.2
v -0.3 0.3 -0.3
v 0.3 0.3 -0.3
v -0.4 0.4 0
v -0.3 0.4 0
v 0.3 0.4 0
v 0.4 0.4 0
v -0.4 0.4 -0.1
v -0.3 0.4 -0.1
v 0.3 0.4 -0.1
v 0.4 0.4 -0.1
v -0.4 0.6 0.1
v -0.3 0.6 0.1
v 0.3 0.6 0.1
v 0.4 0.6 0.1
v -0.4 0.6 0
v -0.3 0.6 0
v 0.3 0.6 0
v 0.4 0.6 0
v -0.4 0.6 -0.1
v -0.3 0.6 -0.1
v 0.3 0.6 -0.1
v 0.4 0.6 -0.1
v -0.4 0.6 -0.2
v -0.3 0.6 -0.2
v 0.3 0.6 -0.2
v 0.4 0.6 -0.2
v -0.2 0.9 -0.3
v 0.2 0.9 -0.3
v -0.2 0.9 -0.4
v 0.2 0.9 -0.4
v -0.4 1 0
v -0.3 1 0
v 0.3 1 0
v 0.4 1 0
v -0.4 1 -0.1
v -0.3 1 -0.1
v 0.3 1 -0.1
v 0.4 1 -0.1
v 0.2 1.1 0.2
v 0.4 1.1 0.2
v -0.4 1.1 0.1
v -0.3 1.1 0.1
v 0.2 1.1 0.1
v 0.3 1.1 0.1
v -0.4 1.1 0
v -0.3 1.1 0
v 0.3 1.1 0
v 0.4 1.1 0
v -0.4 1.1 -0.1
v -0.3 1.1 -0.1
v 0.3 1.1 -0.1
v 0.4 1.1 -0.1
v -0.4 1.1 -0.2
v -0.3 1.1 -0.2
v 0.3 1.1 -0.2
v 0.4 1.1 -0.2
v 0 1.2 0.2
v 0.2 1.2 0.2
v 0 1.2 0.1
v 0.2 1.2 0.1
v -0.3 0.8 0.2
v -0.2 0.8 0.2
v 0.1 0.8 0.2
v 0.3 0.8 0.2
v -0.4 0.8 0.1
v -0.3 0.8 0.1
v -0.2 0.8 0.1
v 0.1 0.8 0.1
v 0.3 0.8 0.1
v 0.4 0.8 0.1
v -0.4 0.8 -0.2
v -0.3 0.8 -0.2
v 0.3 0.8 -0.2
v 0.4 0.8 -0.2
v 0.3 1.2 0.2
v 0.4 1.2 0.2
v 0.3 1.2 0.1
v 0.4 1.2 0.1
v 0.2 1.2 -0.2
v 0.3 1.2 -0.2
v 0.2 1.2 -0.3
v 0.3 1.2 -0.3
v 0 1.3 0.2
v 0.3 1.3 0.2
v 0 1.3 0.1
v 0.3 1.3 0.1
v 0.4 1.3 0.1
v 0.3 1.3 -0.2
v 0.4 1.3 -0.2
v -0.2 1.3 -0.3
v 0.2 1.3 -0.3
v -0.2 1.3 -0.4
v 0.2 1.3 -0.4
v -0.4 1.4 0.1
v 0.3 1.4 0.1
v -0.4 1.4 -0.2
v -0.3 1.4 -0.2
v 0.2 1.4 -0.2
v 0.3 1.4 -0.2
v -0.3 1.4 -0.3
v 0.2 1.4 -0.3

# faces
f 3/1/1 2/1/1 1/1/1
f 4/1/1 2/1/1 3/1/1
f 6/2/1 4/2/1 3/2/1
f 7/2/1 4/2/1 6/2/1
f 9/2/1 7/2/1 6/2/1
f 9/2/1 8/2/1 7/2/1
f 9/2/1 6/2/1 5/2/1
f 10/2/1 8/2/1 9/2/1
f 14/1/1 12/1/1 11/1/1
f 15/1/1 12/1/1 14/1/1
f 17/6/1 14/6/1 13/6/1
f 17/6/1 16/6/1 15/6/1
f 17/6/1 15/6/1 14/6/1
f 18/6/1 16/6/1 17/6/1
f 22/4/1 20/4/1 19/4/1
f 23/4/1 20/4/1 22/4/1
f 25/4/1 22/4/1 21/4/1
f 25/4/1 24/4/1 23/4/1
f 25/4/1 23/4/1 22/4/1
f 26/4/1 24/4/1 25/4/1
f 27/4/1 24/4/1 26/4/1
f 28/4/1 24/4/1 27/4/1
f 29/2/1 26/2/1 25/2/1
f 30/2/1 28/2/1 27/2/1
f 31/2/1 29/2/1 25/2/1
f 32/2/1 29/2/1 31/2/1
f 33/2/1 28/2/1 30/2/1
f 34/2/1 28/2/1 33/2/1
f 35/2/1 31/2/1 25/2/1
f 36/2/1 31/2/1 35/2/1
f 37/2/1 28/2/1 34/2/1
f 38/2/1 28/2/1 37/2/1
f 39/1/1 37/1/1 36/1/1
f 40/1/1 37/1/1 39/1/1
f 41/1/1 39/1/1 36/1/1
f 42/1/1 39/1/1 41/1/1
f 43/1/1 37/1/1 40/1/1
f 44/6/1 38/6/1 37/6/1
f 44/1/1 37/1/1 43/1/1
f 45/6/1 38/6/1 44/6/1
f 46/6/1 38/6/1 45/6/1
f 49/5/1 48/5/1 47/5/1
f 50/5/1 48/5/1 49/5/1
f 53/6/1 52/6/1 51/6/1
f 54/6/1 52/6/1 53/6/1
f 57/6/1 56/6/1 55/6/1
f 58/6/1 56/6/1 57/6/1
f 62/5/1 60/5/1 59/5/1
f 63/5/1 60/5/1 62/5/1
f 65/4/1 62/4/1 61/4/1
f 65/4/1 64/4/1 63/4/1
f 65/4/1 63/4/1 62/4/1
f 66/4/1 64/4/1 65/4/1
f 69/6/1 68/6/1 67/6/1
f 70/6/1 68/6/1 69/6/1
f 71/5/2 72/5/2 74/5/2
f 74/5/2 72/5/2 75/5/2
f 73/4/2 74/4/2 77/4/2
f 75/4/2 76/4/2 77/4/2
f 74/4/2 75/4/2 77/4/2
f 77/4/2 76/4/2 78/4/2
f 79/5/2 80/5/2 81/5/2
f 81/5/2 80/5/2 82/5/2
f 83/6/2 84/6/2 86/6/2
f 86/6/2 84/6/2 87/6/2
f 85/6/2 86/6/2 87/6/2
f 87/6/2 84/6/2 88/6/2
f 85/6/2 87/6/2 89/6/2
f 89/6/2 87/6/2 90/6/2
f 91/4/2 92/4/2 94/4/2
f 94/4/2 92/4/2 95/4/2
f 93/4/2 94/4/2 97/4/2
f 95/4/2 96/4/2 97/4/2
f 94/4/2 95/4/2 97/4/2
f 97/4/2 96/4/2 98/4/2
f 98/4/2 96/4/2 99/4/2
f 99/4/2 96/4/2 100/4/2
f 97/2/2 98/2/2 101/2/2
f 99/2/2 100/2/2 102/2/2
f 97/2/2 101/2/2 103/2/2
f 103/2/2 101/2/2 104/2/2
f 102/2/2 100/2/2 105/2/2
f 105/2/2 100/2/2 106/2/2
f 97/2/2 103/2/2 107/2/2
f 107/2/2 103/2/2 108/2/2
f 106/2/2 100/2/2 109/2/2
f 109/2/2 100/2/2 110/2/2
f 108/1/2 109/1/2 111/1/2
f 111/1/2 109/1/2 112/1/2
f 108/1/2 111/1/2 113/1/2
f 113/1/2 111/1/2 114/1/2
f 112/1/2 109/1/2 115/1/2
f 109/6/2 110/6/2 116/6/2
f 115/1/2 109/1/2 116/1/2
f 116/6/2 110/6/2 119/6/2
f 119/6/2 110/6/2 120/6/2
f 117/6/2 118/6/2 121/6/2
f 121/6/2 118/6/2 122/6/2
f 122/6/2 123/6/2 124/6/2
f 124/6/2 123/6/2 125/6/2
f 126/1/2 127/1/2 128/1/2
f 128/1/2 127/1/2 129/1/2
f 128/2/2 129/2/2 131/2/2
f 131/2/2 129/2/2 132/2/2
f 131/2/2 132/2/2 134/2/2
f 132/2/2 133/2/2 134/2/2
f 130/2/2 131/2/2 134/2/2
f 134/2/2 133/2/2 135/2/2
f 136/1/2 137/1/2 139/1/2
f 139/1/2 137/1/2 140/1/2
f 138/6/2 139/6/2 142/6/2
f 140/6/2 141/6/2 142/6/2
f 139/6/2 140/6/2 142/6/2
f 142/6/2 141/6/2 143/6/2
f 143/6/2 141/6/2 144/6/2
f 144/6/2 141/6/2 145/6/2
f 149/2/3 148/2/3 147/2/3
f 150/2/3 148/2/3 149/2/3
f 151/3/3 150/3/3 149/3/3
f 152/3/3 150/3/3 151/3/3
f 153/4/3 147/4/3 146/4/3
f 153/2/3 149/2/3 147/2/3
f 154/3/3 151/3/3 149/3/3
f 154/2/3 149/2/3 153/2/3
f 155/2/3 152/2/3 151/2/3
f 155/3/3 151/3/3 154/3/3
f 156/3/3 150/3/3 152/3/3
f 156/2/3 152/2/3 155/2/3
f 159/3/3 155/3/3 154/3/3
f 159/3/3 154/3/3 153/3/3
f 159/3/3 156/3/3 155/3/3
f 159/4/3 153/4/3 146/4/3
f 160/3/3 150/3/3 156/3/3
f 160/3/3 156/3/3 159/3/3
f 162/6/3 158/6/3 157/6/3
f 163/4/3 159/4/3 146/4/3
f 164/2/3 160/2/3 159/2/3
f 164/4/3 159/4/3 163/4/3
f 165/2/3 160/2/3 164/2/3
f 166/6/3 162/6/3 161/6/3
f 166/6/3 158/6/3 162/6/3
f 167/6/3 158/6/3 166/6/3
f 168/6/3 166/6/3 161/6/3
f 169/6/3 166/6/3 168/6/3
f 176/2/3 171/2/3 170/2/3
f 177/2/3 171/2/3 176/2/3
f 178/6/3 173/6/3 172/6/3
f 179/6/3 173/6/3 178/6/3
f 180/1/3 178/1/3 177/1/3
f 180/1/3 179/1/3 178/1/3
f 181/1/3 179/1/3 180/1/3
f 182/1/3 179/1/3 181/1/3
f 183/4/3 175/4/3 174/4/3
f 184/4/3 175/4/3 183/4/3
f 185/1/3 181/1/3 180/1/3
f 185/6/3 182/6/3 181/6/3
f 186/1/3 179/1/3 182/1/3
f 186/6/3 182/6/3 185/6/3
f 187/1/3 179/1/3 186/1/3
f 187/1/3 186/1/3 185/1/3
f 188/6/3 173/6/3 179/6/3
f 188/1/3 179/1/3 187/1/3
f 191/1/3 185/1/3 180/1/3
f 191/1/3 187/1/3 185/1/3
f 192/1/3 187/1/3 191/1/3
f 193/1/3 187/1/3 192/1/3
f 194/1/3 192/1/3 191/1/3
f 194/6/3 193/6/3 192/6/3
f 195/1/3 187/1/3 193/1/3
f 195/6/3 193/6/3 194/6/3
f 196/1/3 187/1/3 195/1/3
f 197/4/3 190/4/3 189/4/3
f 198/4/3 190/4/3 197/4/3
f 200/1/3 194/1/3 191/1/3
f 200/1/3 195/1/3 194/1/3
f 201/1/3 195/1/3 200/1/3
f 203/6/3 173/6/3 188/6/3
f 204/6/3 173/6/3 203/6/3
f 205/2/3 200/2/3 199/2/3
f 206/2/3 200/2/3 205/2/3
f 207/6/3 203/6/3 202/6/3
f 208/6/3 203/6/3 207/6/3
f 214/1/3 210/1/3 209/1/3
f 215/2/3 211/2/3 210/2/3
f 215/1/3 210/1/3 214/1/3
f 216/2/3 211/2/3 215/2/3
f 217/1/3 213/1/3 212/1/3
f 218/1/3 213/1/3 217/1/3
f 221/5/3 220/5/3 219/5/3
f 222/5/3 220/5/3 221/5/3
f 225/5/3 224/5/3 223/5/3
f 226/5/3 224/5/3 225/5/3
f 232/1/3 228/1/3 227/1/3
f 233/2/3 229/2/3 228/2/3
f 233/1/3 228/1/3 232/1/3
f 234/2/3 229/2/3 233/2/3
f 235/1/3 231/1/3 230/1/3
f 236/1/3 231/1/3 235/1/3
f 237/1/4 238/1/4 242/1/4
f 238/2/4 239/2/4 243/2/4
f 242/1/4 238/1/4 243/1/4
f 243/2/4 239/2/4 244/2/4
f 240/1/4 241/1/4 245/1/4
f 245/1/4 241/1/4 246/1/4
f 247/5/4 248/5/4 249/5/4
f 249/5/4 248/5/4 250/5/4
f 251/5/4 252/5/4 253/5/4
f 253/5/4 252/5/4 254/5/4
f 255/1/4 256/1/4 260/1/4
f 256/2/4 257/2/4 261/2/4
f 260/1/4 256/1/4 261/1/4
f 261/2/4 257/2/4 262/2/4
f 258/1/4 259/1/4 263/1/4
f 263/1/4 259/1/4 264/1/4
f 265/2/4 266/2/4 271/2/4
f 271/2/4 266/2/4 272/2/4
f 267/6/4 268/6/4 273/6/4
f 273/6/4 268/6/4 274/6/4
f 269/4/4 270/4/4 275/4/4
f 275/4/4 270/4/4 276/4/4
f 277/4/4 278/4/4 281/4/4
f 281/4/4 278/4/4 282/4/4
f 279/6/4 280/6/4 286/6/4
f 286/6/4 280/6/4 287/6/4
f 287/6/4 280/6/4 288/6/4
f 283/2/4 284/2/4 289/2/4
f 289/2/4 284/2/4 290/2/4
f 286/6/4 287/6/4 291/6/4
f 285/6/4 286/6/4 291/6/4
f 291/6/4 287/6/4 292/6/4
f 295/6/4 296/6/4 297/6/4
f 297/6/4 296/6/4 298/6/4
f 293/4/4 294/4/4 299/4/4
f 294/2/4 295/2/4 299/2/4
f 295/6/4 297/6/4 300/6/4
f 299/2/4 295/2/4 300/2/4
f 293/4/4 299/4/4 301/4/4
f 299/3/4 300/3/4 301/3/4
f 301/3/4 300/3/4 302/3/4
f 302/3/4 300/3/4 303/3/4
f 303/3/4 300/3/4 304/3/4
f 302/3/4 303/3/4 305/3/4
f 303/2/4 304/2/4 305/2/4
f 304/3/4 300/3/4 306/3/4
f 305/2/4 304/2/4 306/2/4
f 301/2/4 302/2/4 307/2/4
f 302/3/4 305/3/4 307/3/4
f 305/3/4 306/3/4 307/3/4
f 300/6/4 297/6/4 308/6/4
f 307/3/4 306/3/4 308/3/4
f 306/3/4 300/3/4 308/3/4
f 308/6/4 297/6/4 309/6/4
f 298/6/4 296/6/4 311/6/4
f 311/6/4 296/6/4 312/6/4
f 293/4/4 301/4/4 313/4/4
f 301/2/4 307/2/4 314/2/4
f 313/4/4 301/4/4 314/4/4
f 307/2/4 308/2/4 314/2/4
f 309/6/4 310/6/4 315/6/4
f 314/2/4 308/2/4 315/2/4
f 308/6/4 309/6/4 315/6/4
f 315/6/4 310/6/4 316/6/4
f 317/6/4 318/6/4 319/6/4
f 319/6/4 318/6/4 320/6/4
f 325/5/5 322/5/5 321/5/5
f 326/5/5 322/5/5 325/5/5
f 327/5/5 324/5/5 323/5/5
f 328/5/5 324/5/5 327/5/5
f 333/4/5 330/4/5 329/4/5
f 334/4/5 330/4/5 333/4/5
f 335/4/5 332/4/5 331/4/5
f 336/4/5 332/4/5 335/4/5
f 337/4/5 333/4/5 329/4/5
f 340/4/5 332/4/5 336/4/5
f 341/4/5 338/4/5 337/4/5
f 341/4/5 337/4/5 329/4/5
f 342/4/5 338/4/5 341/4/5
f 343/4/5 340/4/5 339/4/5
f 344/4/5 332/4/5 340/4/5
f 344/4/5 340/4/5 343/4/5
f 347/4/5 346/4/5 345/4/5
f 348/4/5 346/4/5 347/4/5
f 349/4/5 346/4/5 348/4/5
f 350/4/5 346/4/5 349/4/5
f 352/4/5 349/4/5 348/4/5
f 353/4/5 349/4/5 352/4/5
f 355/4/5 352/4/5 351/4/5
f 355/4/5 354/4/5 353/4/5
f 355/4/5 353/4/5 352/4/5
f 356/4/5 354/4/5 355/4/5
f 361/1/5 358/1/5 357/1/5
f 362/1/5 358/1/5 361/1/5
f 363/1/5 360/1/5 359/1/5
f 364/1/5 360/1/5 363/1/5
f 369/2/5 366/2/5 365/2/5
f 370/2/5 366/2/5 369/2/5
f 371/2/5 368/2/5 367/2/5
f 372/2/5 368/2/5 371/2/5
f 377/2/5 374/2/5 373/2/5
f 378/2/5 374/2/5 377/2/5
f 379/2/5 376/2/5 375/2/5
f 380/2/5 376/2/5 379/2/5
f 383/6/5 382/6/5 381/6/5
f 384/6/5 382/6/5 383/6/5
f 389/1/5 386/1/5 385/1/5
f 390/1/5 386/1/5 389/1/5
f 391/1/5 388/1/5 387/1/5
f 392/1/5 388/1/5 391/1/5
f 397/6/5 394/6/5 393/6/5
f 398/6/5 394/6/5 397/6/5
f 399/6/5 396/6/5 395/6/5
f 400/6/5 396/6/5 399/6/5
f 401/6/5 394/6/5 398/6/5
f 402/6/5 394/6/5 401/6/5
f 407/6/5 404/6/5 403/6/5
f 408/6/5 404/6/5 407/6/5
f 409/6/5 406/6/5 405/6/5
f 410/6/5 406/6/5 409/6/5
f 413/6/5 412/6/5 411/6/5
f 414/6/5 412/6/5 413/6/5
f 415/2/6 416/2/6 420/2/6
f 416/3/6 417/3/6 421/3/6
f 420/2/6 416/2/6 421/2/6
f 417/2/6 418/2/6 422/2/6
f 421/3/6 417/3/6 422/3/6
f 422/2/6 418/2/6 423/2/6
f 419/2/6 420/2/6 425/2/6
f 425/2/6 420/2/6 426/2/6
f 423/2/6 424/2/6 427/2/6
f 427/2/6 424/2/6 428/2/6
f 429/6/6 430/6/6 431/6/6
f 431/6/6 430/6/6 432/6/6
f 433/6/6 434/6/6 435/6/6
f 435/6/6 434/6/6 436/6/6
f 437/6/6 438/6/6 439/6/6
f 439/6/6 438/6/6 440/6/6
f 440/6/6 441/6/6 442/6/6
f 442/6/6 441/6/6 443/6/6
f 444/6/6 445/6/6 446/6/6
f 446/6/6 445/6/6 447/6/6
f 448/6/6 449/6/6 450/6/6
f 450/6/6 449/6/6 451/6/6
f 451/6/6 449/6/6 452/6/6
f 452/6/6 449/6/6 453/6/6
f 451/6/6 452/6/6 454/6/6
f 454/6/6 452/6/6 455/6/6
