# MagicaVoxel @ Ephtracy

# group
o 

# material
mtllib piggy.mtl
usemtl palette

# normals
vn -1 0 0
vn 1 0 0
vn 0 0 1
vn 0 0 -1
vn 0 -1 0
vn 0 1 0

# texcoords
vt 0.0527344 0.5
vt 0.0566406 0.5
vt 0.0761719 0.5
vt 0.994141 0.5

# verts
v -0.2 0 0.3
v -0.2 0 0.1
v -0.2 0 -0.1
v -0.2 0 -0.3
v -0.2 0.1 0.3
v -0.2 0.1 0.1
v -0.2 0.1 -0.1
v -0.2 0.1 -0.3
v -0.2 0.2 0.1
v -0.2 0.2 -0.1
v -0.2 0.2 -0.3
v -0.2 0.2 -0.4
v -0.2 0.3 0
v -0.2 0.3 -0.1
v -0.2 0.4 0.3
v -0.2 0.4 0.2
v -0.2 0.4 0
v -0.2 0.4 -0.1
v -0.2 0.5 -0.2
v -0.2 0.5 -0.3
v -0.2 0.6 0.3
v -0.2 0.6 0.2
v -0.2 0.6 -0.2
v -0.2 0.6 -0.3
v -0.2 0.7 0
v -0.2 0.7 -0.4
v -0.2 0.9 0.3
v -0.2 0.9 0
v -0.1 0.3 0.4
v -0.1 0.3 0.3
v -0.1 0.4 0.3
v -0.1 0.6 0.4
v -0.1 0.6 0.3
v -0.1 0.9 0.2
v -0.1 0.9 0.1
v -0.1 1 0.3
v -0.1 1 0.2
v -0.1 1.1 0.3
v -0.1 1.1 0.1
v 0 0.8 -0.4
v 0 0.8 -0.5
v 0 0.9 -0.4
v 0 0.9 -0.5
v 0.1 0.4 0.4
v 0.1 0.4 0.3
v 0.1 0.5 0.4
v 0.1 0.5 0.3
v 0.1 0.5 -0.4
v 0.1 0.5 -0.5
v 0.1 0.7 -0.4
v 0.1 0.8 -0.4
v 0.1 0.8 -0.5
v 0.3 0 0.3
v 0.3 0 0.1
v 0.3 0 -0.1
v 0.3 0 -0.3
v 0.3 0.1 0.3
v 0.3 0.1 0.1
v 0.3 0.1 -0.1
v 0.3 0.1 -0.3
v 0.3 0.2 0.3
v 0.3 0.2 0.1
v 0.3 0.2 -0.1
v 0.3 0.2 -0.3
v 0.3 0.4 0.4
v 0.3 0.4 0.3
v 0.3 0.5 0.4
v 0.3 0.5 0.3
v 0.3 0.9 0.2
v 0.3 0.9 0.1
v 0.3 1 0.3
v 0.3 1 0.2
v 0.3 1.1 0.3
v 0.3 1.1 0.1
v 0 0 0.3
v 0 0 0.1
v 0 0 -0.1
v 0 0 -0.3
v 0 0.1 0.3
v 0 0.1 0.1
v 0 0.1 -0.1
v 0 0.1 -0.3
v 0 0.2 0.3
v 0 0.2 0.1
v 0 0.2 -0.1
v 0 0.2 -0.3
v 0 0.4 0.4
v 0 0.4 0.3
v 0 0.5 0.4
v 0 0.5 0.3
v 0 0.9 0.2
v 0 0.9 0.1
v 0 1 0.3
v 0 1 0.2
v 0 1.1 0.3
v 0 1.1 0.1
v 0.2 0.4 0.4
v 0.2 0.4 0.3
v 0.2 0.5 0.4
v 0.2 0.5 0.3
v 0.2 0.5 -0.4
v 0.2 0.5 -0.5
v 0.2 0.7 -0.4
v 0.2 0.9 -0.4
v 0.2 0.9 -0.5
v 0.4 0.3 0.4
v 0.4 0.3 0.3
v 0.4 0.4 0.3
v 0.4 0.6 0.4
v 0.4 0.6 0.3
v 0.4 0.9 0.2
v 0.4 0.9 0.1
v 0.4 1 0.3
v 0.4 1 0.2
v 0.4 1.1 0.3
v 0.4 1.1 0.1
v 0.5 0 0.3
v 0.5 0 0.1
v 0.5 0 -0.1
v 0.5 0 -0.3
v 0.5 0.1 0.3
v 0.5 0.1 0.1
v 0.5 0.1 -0.1
v 0.5 0.1 -0.3
v 0.5 0.2 0.1
v 0.5 0.2 -0.1
v 0.5 0.2 -0.3
v 0.5 0.2 -0.4
v 0.5 0.3 -0.2
v 0.5 0.3 -0.3
v 0.5 0.4 0.3
v 0.5 0.4 0.2
v 0.5 0.4 -0.2
v 0.5 0.4 -0.3
v 0.5 0.6 0.3
v 0.5 0.6 0.2
v 0.5 0.7 0
v 0.5 0.7 -0.4
v 0.5 0.9 0.3
v 0.5 0.9 0
v -0.1 0.3 0.4
v -0.1 0.6 0.4
v 0 0.4 0.4
v 0 0.5 0.4
v 0.1 0.4 0.4
v 0.1 0.5 0.4
v 0.2 0.4 0.4
v 0.2 0.5 0.4
v 0.3 0.4 0.4
v 0.3 0.5 0.4
v 0.4 0.3 0.4
v 0.4 0.6 0.4
v -0.2 0 0.3
v -0.2 0.1 0.3
v -0.2 0.4 0.3
v -0.2 0.6 0.3
v -0.2 0.9 0.3
v -0.1 0.3 0.3
v -0.1 0.4 0.3
v -0.1 0.6 0.3
v -0.1 0.8 0.3
v -0.1 1 0.3
v -0.1 1.1 0.3
v 0 0 0.3
v 0 0.1 0.3
v 0 0.2 0.3
v 0 0.4 0.3
v 0 0.5 0.3
v 0 0.6 0.3
v 0 0.8 0.3
v 0 1 0.3
v 0 1.1 0.3
v 0.1 0.4 0.3
v 0.1 0.5 0.3
v 0.2 0.4 0.3
v 0.2 0.5 0.3
v 0.3 0 0.3
v 0.3 0.1 0.3
v 0.3 0.2 0.3
v 0.3 0.4 0.3
v 0.3 0.5 0.3
v 0.3 0.6 0.3
v 0.3 0.8 0.3
v 0.3 1 0.3
v 0.3 1.1 0.3
v 0.4 0.3 0.3
v 0.4 0.4 0.3
v 0.4 0.6 0.3
v 0.4 0.8 0.3
v 0.4 1 0.3
v 0.4 1.1 0.3
v 0.5 0 0.3
v 0.5 0.1 0.3
v 0.5 0.4 0.3
v 0.5 0.6 0.3
v 0.5 0.9 0.3
v -0.1 0.9 0.2
v -0.1 1 0.2
v 0 0.9 0.2
v 0 1 0.2
v 0.3 0.9 0.2
v 0.3 1 0.2
v 0.4 0.9 0.2
v 0.4 1 0.2
v -0.2 0 -0.1
v -0.2 0.1 -0.1
v -0.2 0.2 -0.1
v 0 0 -0.1
v 0 0.1 -0.1
v 0 0.2 -0.1
v 0.3 0 -0.1
v 0.3 0.1 -0.1
v 0.3 0.2 -0.1
v 0.5 0 -0.1
v 0.5 0.1 -0.1
v 0.5 0.2 -0.1
v 0 0.8 -0.4
v 0 0.9 -0.4
v 0.1 0.7 -0.4
v 0.1 0.8 -0.4
v 0.2 0.7 -0.4
v 0.2 0.9 -0.4
v -0.2 0 0.1
v -0.2 0.1 0.1
v -0.2 0.2 0.1
v -0.1 0.9 0.1
v -0.1 1.1 0.1
v 0 0 0.1
v 0 0.1 0.1
v 0 0.2 0.1
v 0 0.9 0.1
v 0 1.1 0.1
v 0.3 0 0.1
v 0.3 0.1 0.1
v 0.3 0.2 0.1
v 0.3 0.9 0.1
v 0.3 1.1 0.1
v 0.4 0.9 0.1
v 0.4 1.1 0.1
v 0.5 0 0.1
v 0.5 0.1 0.1
v 0.5 0.2 0.1
v -0.2 0.7 0
v -0.2 0.9 0
v 0.5 0.7 0
v 0.5 0.9 0
v -0.2 0 -0.3
v -0.2 0.1 -0.3
v -0.2 0.2 -0.3
v 0 0 -0.3
v 0 0.1 -0.3
v 0 0.2 -0.3
v 0.3 0 -0.3
v 0.3 0.1 -0.3
v 0.3 0.2 -0.3
v 0.5 0 -0.3
v 0.5 0.1 -0.3
v 0.5 0.2 -0.3
v -0.2 0.2 -0.4
v -0.2 0.7 -0.4
v 0.1 0.5 -0.4
v 0.1 0.7 -0.4
v 0.2 0.5 -0.4
v 0.2 0.7 -0.4
v 0.5 0.2 -0.4
v 0.5 0.7 -0.4
v 0 0.8 -0.5
v 0 0.9 -0.5
v 0.1 0.5 -0.5
v 0.1 0.8 -0.5
v 0.2 0.5 -0.5
v 0.2 0.9 -0.5
v -0.2 0 0.3
v 0 0 0.3
v 0.3 0 0.3
v 0.5 0 0.3
v -0.2 0 0.1
v 0 0 0.1
v 0.3 0 0.1
v 0.5 0 0.1
v -0.2 0 -0.1
v 0 0 -0.1
v 0.3 0 -0.1
v 0.5 0 -0.1
v -0.2 0 -0.3
v 0 0 -0.3
v 0.3 0 -0.3
v 0.5 0 -0.3
v 0 0.2 0.3
v 0.3 0.2 0.3
v -0.2 0.2 0.1
v 0 0.2 0.1
v 0.3 0.2 0.1
v 0.5 0.2 0.1
v -0.2 0.2 -0.1
v 0 0.2 -0.1
v 0.3 0.2 -0.1
v 0.5 0.2 -0.1
v -0.2 0.2 -0.3
v 0 0.2 -0.3
v 0.3 0.2 -0.3
v 0.5 0.2 -0.3
v -0.2 0.2 -0.4
v 0.5 0.2 -0.4
v -0.1 0.3 0.4
v 0.4 0.3 0.4
v -0.1 0.3 0.3
v 0.4 0.3 0.3
v 0 0.5 0.4
v 0.1 0.5 0.4
v 0.2 0.5 0.4
v 0.3 0.5 0.4
v 0 0.5 0.3
v 0.1 0.5 0.3
v 0.2 0.5 0.3
v 0.3 0.5 0.3
v 0.1 0.5 -0.4
v 0.2 0.5 -0.4
v 0.1 0.5 -0.5
v 0.2 0.5 -0.5
v 0 0.8 -0.4
v 0.1 0.8 -0.4
v 0 0.8 -0.5
v 0.1 0.8 -0.5
v -0.1 1 0.3
v 0 1 0.3
v 0.3 1 0.3
v 0.4 1 0.3
v -0.1 1 0.2
v 0 1 0.2
v 0.3 1 0.2
v 0.4 1 0.2
v 0 0.4 0.4
v 0.1 0.4 0.4
v 0.2 0.4 0.4
v 0.3 0.4 0.4
v 0 0.4 0.3
v 0.1 0.4 0.3
v 0.2 0.4 0.3
v 0.3 0.4 0.3
v -0.1 0.6 0.4
v 0.4 0.6 0.4
v -0.1 0.6 0.3
v 0 0.6 0.3
v 0.3 0.6 0.3
v 0.4 0.6 0.3
v -0.2 0.7 0
v 0.5 0.7 0
v -0.2 0.7 -0.4
v 0.1 0.7 -0.4
v 0.2 0.7 -0.4
v 0.5 0.7 -0.4
v -0.2 0.9 0.3
v 0.5 0.9 0.3
v -0.1 0.9 0.2
v 0 0.9 0.2
v 0.3 0.9 0.2
v 0.4 0.9 0.2
v -0.1 0.9 0.1
v 0 0.9 0.1
v 0.3 0.9 0.1
v 0.4 0.9 0.1
v -0.2 0.9 0
v 0.5 0.9 0
v 0 0.9 -0.4
v 0.2 0.9 -0.4
v 0 0.9 -0.5
v 0.2 0.9 -0.5
v -0.1 1.1 0.3
v 0 1.1 0.3
v 0.3 1.1 0.3
v 0.4 1.1 0.3
v -0.1 1.1 0.1
v 0 1.1 0.1
v 0.3 1.1 0.1
v 0.4 1.1 0.1

# faces
f 5/3/1 2/3/1 1/3/1
f 6/3/1 2/3/1 5/3/1
f 7/3/1 4/3/1 3/3/1
f 8/3/1 4/3/1 7/3/1
f 9/1/1 6/1/1 5/1/1
f 10/1/1 8/1/1 7/1/1
f 11/1/1 8/1/1 10/1/1
f 13/1/1 11/1/1 10/1/1
f 13/1/1 12/1/1 11/1/1
f 13/1/1 10/1/1 9/1/1
f 14/1/1 12/1/1 13/1/1
f 15/1/1 9/1/1 5/1/1
f 15/1/1 13/1/1 9/1/1
f 16/1/1 13/1/1 15/1/1
f 17/3/1 14/3/1 13/3/1
f 17/1/1 13/1/1 16/1/1
f 18/1/1 12/1/1 14/1/1
f 18/3/1 14/3/1 17/3/1
f 19/1/1 17/1/1 16/1/1
f 19/1/1 12/1/1 18/1/1
f 19/1/1 18/1/1 17/1/1
f 20/1/1 12/1/1 19/1/1
f 21/3/1 16/3/1 15/3/1
f 22/1/1 19/1/1 16/1/1
f 22/3/1 16/3/1 21/3/1
f 23/3/1 20/3/1 19/3/1
f 23/1/1 19/1/1 22/1/1
f 24/1/1 12/1/1 20/1/1
f 24/3/1 20/3/1 23/3/1
f 25/1/1 23/1/1 22/1/1
f 25/1/1 22/1/1 21/1/1
f 25/1/1 24/1/1 23/1/1
f 26/1/1 12/1/1 24/1/1
f 26/1/1 24/1/1 25/1/1
f 27/1/1 25/1/1 21/1/1
f 28/1/1 25/1/1 27/1/1
f 31/2/1 30/2/1 29/2/1
f 32/2/1 31/2/1 29/2/1
f 33/2/1 31/2/1 32/2/1
f 37/1/1 35/1/1 34/1/1
f 38/1/1 37/1/1 36/1/1
f 39/1/1 35/1/1 37/1/1
f 39/1/1 37/1/1 38/1/1
f 42/1/1 41/1/1 40/1/1
f 43/1/1 41/1/1 42/1/1
f 46/2/1 45/2/1 44/2/1
f 47/2/1 45/2/1 46/2/1
f 50/1/1 49/1/1 48/1/1
f 51/1/1 49/1/1 50/1/1
f 52/1/1 49/1/1 51/1/1
f 57/3/1 54/3/1 53/3/1
f 58/3/1 54/3/1 57/3/1
f 59/3/1 56/3/1 55/3/1
f 60/3/1 56/3/1 59/3/1
f 61/1/1 58/1/1 57/1/1
f 62/1/1 58/1/1 61/1/1
f 63/1/1 60/1/1 59/1/1
f 64/1/1 60/1/1 63/1/1
f 67/2/1 66/2/1 65/2/1
f 68/2/1 66/2/1 67/2/1
f 72/1/1 70/1/1 69/1/1
f 73/1/1 72/1/1 71/1/1
f 74/1/1 70/1/1 72/1/1
f 74/1/1 72/1/1 73/1/1
f 75/3/2 76/3/2 79/3/2
f 79/3/2 76/3/2 80/3/2
f 77/3/2 78/3/2 81/3/2
f 81/3/2 78/3/2 82/3/2
f 79/1/2 80/1/2 83/1/2
f 83/1/2 80/1/2 84/1/2
f 81/1/2 82/1/2 85/1/2
f 85/1/2 82/1/2 86/1/2
f 87/2/2 88/2/2 89/2/2
f 89/2/2 88/2/2 90/2/2
f 91/1/2 92/1/2 94/1/2
f 93/1/2 94/1/2 95/1/2
f 94/1/2 92/1/2 96/1/2
f 95/1/2 94/1/2 96/1/2
f 97/2/2 98/2/2 99/2/2
f 99/2/2 98/2/2 100/2/2
f 101/1/2 102/1/2 103/1/2
f 103/1/2 102/1/2 104/1/2
f 104/1/2 102/1/2 105/1/2
f 106/2/2 107/2/2 108/2/2
f 106/2/2 108/2/2 109/2/2
f 109/2/2 108/2/2 110/2/2
f 111/1/2 112/1/2 114/1/2
f 113/1/2 114/1/2 115/1/2
f 114/1/2 112/1/2 116/1/2
f 115/1/2 114/1/2 116/1/2
f 117/3/2 118/3/2 121/3/2
f 121/3/2 118/3/2 122/3/2
f 119/3/2 120/3/2 123/3/2
f 123/3/2 120/3/2 124/3/2
f 121/1/2 122/1/2 125/1/2
f 123/1/2 124/1/2 126/1/2
f 126/1/2 124/1/2 127/1/2
f 126/1/2 127/1/2 129/1/2
f 127/1/2 128/1/2 129/1/2
f 125/1/2 126/1/2 129/1/2
f 129/1/2 128/1/2 130/1/2
f 121/1/2 125/1/2 131/1/2
f 125/1/2 129/1/2 131/1/2
f 131/1/2 129/1/2 132/1/2
f 129/3/2 130/3/2 133/3/2
f 132/1/2 129/1/2 133/1/2
f 130/1/2 128/1/2 134/1/2
f 133/3/2 130/3/2 134/3/2
f 131/3/2 132/3/2 135/3/2
f 132/1/2 133/1/2 136/1/2
f 135/3/2 132/3/2 136/3/2
f 133/1/2 134/1/2 136/1/2
f 135/1/2 136/1/2 137/1/2
f 136/1/2 134/1/2 137/1/2
f 134/1/2 128/1/2 138/1/2
f 137/1/2 134/1/2 138/1/2
f 135/1/2 137/1/2 139/1/2
f 139/1/2 137/1/2 140/1/2
f 143/2/3 142/2/3 141/2/3
f 144/2/3 142/2/3 143/2/3
f 145/2/3 143/2/3 141/2/3
f 146/2/3 142/2/3 144/2/3
f 147/2/3 145/2/3 141/2/3
f 147/2/3 146/2/3 145/2/3
f 148/2/3 142/2/3 146/2/3
f 148/2/3 146/2/3 147/2/3
f 149/2/3 147/2/3 141/2/3
f 150/2/3 142/2/3 148/2/3
f 151/2/3 149/2/3 141/2/3
f 151/2/3 150/2/3 149/2/3
f 152/2/3 142/2/3 150/2/3
f 152/2/3 150/2/3 151/2/3
f 158/1/3 155/1/3 154/1/3
f 159/3/3 156/3/3 155/3/3
f 159/1/3 155/1/3 158/1/3
f 160/1/3 157/1/3 156/1/3
f 160/3/3 156/3/3 159/3/3
f 161/1/3 157/1/3 160/1/3
f 164/3/3 154/3/3 153/3/3
f 165/1/3 158/1/3 154/1/3
f 165/3/3 154/3/3 164/3/3
f 166/1/3 158/1/3 165/1/3
f 169/4/3 161/4/3 160/4/3
f 170/1/3 157/1/3 161/1/3
f 170/4/3 161/4/3 169/4/3
f 171/1/3 163/1/3 162/1/3
f 172/1/3 163/1/3 171/1/3
f 173/1/3 168/1/3 167/1/3
f 174/1/3 168/1/3 173/1/3
f 179/1/3 158/1/3 166/1/3
f 180/1/3 176/1/3 175/1/3
f 181/1/3 176/1/3 180/1/3
f 182/1/3 170/1/3 169/1/3
f 183/1/3 157/1/3 170/1/3
f 183/1/3 170/1/3 182/1/3
f 186/1/3 179/1/3 178/1/3
f 186/1/3 158/1/3 179/1/3
f 188/4/3 183/4/3 182/4/3
f 189/1/3 157/1/3 183/1/3
f 189/4/3 183/4/3 188/4/3
f 190/1/3 185/1/3 184/1/3
f 191/1/3 185/1/3 190/1/3
f 192/3/3 178/3/3 177/3/3
f 193/1/3 187/1/3 186/1/3
f 193/3/3 178/3/3 192/3/3
f 193/1/3 186/1/3 178/1/3
f 194/3/3 188/3/3 187/3/3
f 194/1/3 187/1/3 193/1/3
f 195/1/3 189/1/3 188/1/3
f 195/3/3 188/3/3 194/3/3
f 196/1/3 157/1/3 189/1/3
f 196/1/3 189/1/3 195/1/3
f 199/1/3 198/1/3 197/1/3
f 200/1/3 198/1/3 199/1/3
f 203/1/3 202/1/3 201/1/3
f 204/1/3 202/1/3 203/1/3
f 208/3/3 206/3/3 205/3/3
f 209/1/3 207/1/3 206/1/3
f 209/3/3 206/3/3 208/3/3
f 210/1/3 207/1/3 209/1/3
f 214/3/3 212/3/3 211/3/3
f 215/1/3 213/1/3 212/1/3
f 215/3/3 212/3/3 214/3/3
f 216/1/3 213/1/3 215/1/3
f 220/1/3 218/1/3 217/1/3
f 221/1/3 220/1/3 219/1/3
f 222/1/3 218/1/3 220/1/3
f 222/1/3 220/1/3 221/1/3
f 223/3/4 224/3/4 228/3/4
f 224/1/4 225/1/4 229/1/4
f 228/3/4 224/3/4 229/3/4
f 229/1/4 225/1/4 230/1/4
f 226/1/4 227/1/4 231/1/4
f 231/1/4 227/1/4 232/1/4
f 236/1/4 237/1/4 238/1/4
f 238/1/4 237/1/4 239/1/4
f 233/3/4 234/3/4 240/3/4
f 234/1/4 235/1/4 241/1/4
f 240/3/4 234/3/4 241/3/4
f 241/1/4 235/1/4 242/1/4
f 243/1/4 244/1/4 245/1/4
f 245/1/4 244/1/4 246/1/4
f 247/3/4 248/3/4 250/3/4
f 248/1/4 249/1/4 251/1/4
f 250/3/4 248/3/4 251/3/4
f 251/1/4 249/1/4 252/1/4
f 253/3/4 254/3/4 256/3/4
f 254/1/4 255/1/4 257/1/4
f 256/3/4 254/3/4 257/3/4
f 257/1/4 255/1/4 258/1/4
f 259/1/4 260/1/4 261/1/4
f 261/1/4 260/1/4 262/1/4
f 259/1/4 261/1/4 263/1/4
f 259/1/4 263/1/4 265/1/4
f 263/1/4 264/1/4 265/1/4
f 265/1/4 264/1/4 266/1/4
f 267/1/4 268/1/4 270/1/4
f 269/1/4 270/1/4 271/1/4
f 270/1/4 268/1/4 272/1/4
f 271/1/4 270/1/4 272/1/4
f 277/3/5 274/3/5 273/3/5
f 278/3/5 274/3/5 277/3/5
f 279/3/5 276/3/5 275/3/5
f 280/3/5 276/3/5 279/3/5
f 285/3/5 282/3/5 281/3/5
f 286/3/5 282/3/5 285/3/5
f 287/3/5 284/3/5 283/3/5
f 288/3/5 284/3/5 287/3/5
f 292/1/5 290/1/5 289/1/5
f 293/1/5 290/1/5 292/1/5
f 295/1/5 292/1/5 291/1/5
f 295/1/5 294/1/5 293/1/5
f 295/1/5 293/1/5 292/1/5
f 296/1/5 294/1/5 295/1/5
f 297/1/5 294/1/5 296/1/5
f 298/1/5 294/1/5 297/1/5
f 300/1/5 297/1/5 296/1/5
f 301/1/5 297/1/5 300/1/5
f 303/1/5 300/1/5 299/1/5
f 303/1/5 302/1/5 301/1/5
f 303/1/5 301/1/5 300/1/5
f 304/1/5 302/1/5 303/1/5
f 307/2/5 306/2/5 305/2/5
f 308/2/5 306/2/5 307/2/5
f 313/2/5 310/2/5 309/2/5
f 314/2/5 310/2/5 313/2/5
f 315/2/5 312/2/5 311/2/5
f 316/2/5 312/2/5 315/2/5
f 319/1/5 318/1/5 317/1/5
f 320/1/5 318/1/5 319/1/5
f 323/1/5 322/1/5 321/1/5
f 324/1/5 322/1/5 323/1/5
f 329/1/5 326/1/5 325/1/5
f 330/1/5 326/1/5 329/1/5
f 331/1/5 328/1/5 327/1/5
f 332/1/5 328/1/5 331/1/5
f 333/2/6 334/2/6 337/2/6
f 337/2/6 334/2/6 338/2/6
f 335/2/6 336/2/6 339/2/6
f 339/2/6 336/2/6 340/2/6
f 341/2/6 342/2/6 343/2/6
f 343/2/6 342/2/6 344/2/6
f 344/2/6 342/2/6 345/2/6
f 345/2/6 342/2/6 346/2/6
f 347/1/6 348/1/6 349/1/6
f 349/1/6 348/1/6 350/1/6
f 350/1/6 348/1/6 351/1/6
f 351/1/6 348/1/6 352/1/6
f 353/1/6 354/1/6 355/1/6
f 355/1/6 354/1/6 356/1/6
f 356/1/6 354/1/6 357/1/6
f 357/1/6 354/1/6 358/1/6
f 353/1/6 355/1/6 359/1/6
f 356/1/6 357/1/6 360/1/6
f 360/1/6 357/1/6 361/1/6
f 358/1/6 354/1/6 362/1/6
f 360/1/6 361/1/6 363/1/6
f 361/1/6 362/1/6 363/1/6
f 353/1/6 359/1/6 363/1/6
f 359/1/6 360/1/6 363/1/6
f 362/1/6 354/1/6 364/1/6
f 363/1/6 362/1/6 364/1/6
f 365/1/6 366/1/6 367/1/6
f 367/1/6 366/1/6 368/1/6
f 369/1/6 370/1/6 373/1/6
f 373/1/6 370/1/6 374/1/6
f 371/1/6 372/1/6 375/1/6
f 375/1/6 372/1/6 376/1/6