# MagicaVoxel @ Ephtracy

# group
o 

# material
mtllib seed.mtl
usemtl palette

# normals
vn -1 0 0
vn 1 0 0
vn 0 0 1
vn 0 0 -1
vn 0 -1 0
vn 0 1 0

# texcoords
vt 0.791016 0.5
vt 0.794922 0.5
vt 0.798828 0.5
vt 0.876953 0.5
vt 0.880859 0.5

# verts
v -0.3 0 0.4
v -0.3 0 0.2
v -0.3 0 -0.1
v -0.3 0 -0.2
v -0.3 0 -0.3
v -0.3 0.1 0.3
v -0.3 0.1 0.2
v -0.3 0.1 -0.1
v -0.3 0.1 -0.2
v -0.3 0.2 -0.2
v -0.3 0.2 -0.3
v -0.3 0.3 0.4
v -0.3 0.3 0.3
v -0.3 0.3 -0.2
v -0.3 0.3 -0.3
v 0 0.3 0.1
v 0 0.3 0
v 0 0.4 0
v 0 0.4 -0.1
v 0 0.5 0.1
v 0 0.5 0
v 0 0.5 -0.1
v 0.1 0.3 0.1
v 0.1 0.3 0
v 0.1 0.4 0
v 0.1 0.4 -0.1
v 0.1 0.5 0.1
v 0.1 0.5 0
v 0.1 0.5 -0.1
v 0.4 0 0.4
v 0.4 0 -0.3
v 0.4 0.1 -0.1
v 0.4 0.1 -0.2
v 0.4 0.2 0.4
v 0.4 0.2 0.3
v 0.4 0.2 0.1
v 0.4 0.2 -0.1
v 0.4 0.2 -0.2
v 0.4 0.2 -0.3
v 0.4 0.3 0.4
v 0.4 0.3 0.3
v 0.4 0.3 0.1
v 0.4 0.3 -0.1
v 0.4 0.3 -0.2
v 0.4 0.3 -0.3
v -0.3 0 0.4
v -0.3 0.3 0.4
v -0.2 0 0.4
v -0.2 0.3 0.4
v 0.1 0.1 0.4
v 0.1 0.3 0.4
v 0.3 0 0.4
v 0.3 0.1 0.4
v 0.3 0.2 0.4
v 0.3 0.3 0.4
v 0.4 0 0.4
v 0.4 0.2 0.4
v 0.4 0.3 0.4
v 0 0.3 0.1
v 0 0.5 0.1
v 0.1 0.3 0.1
v 0.1 0.5 0.1
v 0 0.3 0
v 0 0.4 0
v 0.1 0.3 0
v 0.1 0.4 0
v 0 0.4 -0.1
v 0 0.5 -0.1
v 0.1 0.4 -0.1
v 0.1 0.5 -0.1
v -0.3 0 -0.3
v -0.3 0.2 -0.3
v -0.3 0.3 -0.3
v -0.2 0.2 -0.3
v -0.2 0.3 -0.3
v -0.1 0 -0.3
v -0.1 0.1 -0.3
v 0 0 -0.3
v 0 0.1 -0.3
v 0.3 0 -0.3
v 0.3 0.2 -0.3
v 0.3 0.3 -0.3
v 0.4 0 -0.3
v 0.4 0.2 -0.3
v 0.4 0.3 -0.3
v -0.3 0 0.4
v -0.2 0 0.4
v 0.3 0 0.4
v 0.4 0 0.4
v -0.2 0 0.3
v 0 0 0.3
v -0.3 0 0.2
v -0.2 0 0.2
v 0.2 0 0.2
v 0.3 0 0.2
v 0 0 0.1
v 0.2 0 0.1
v -0.3 0 -0.1
v -0.2 0 -0.1
v 0 0 -0.1
v 0.3 0 -0.1
v -0.3 0 -0.2
v -0.1 0 -0.2
v -0.3 0 -0.3
v -0.1 0 -0.3
v 0 0 -0.3
v 0.3 0 -0.3
v 0.4 0 -0.3
v 0 0.4 0
v 0.1 0.4 0
v 0 0.4 -0.1
v 0.1 0.4 -0.1
v -0.3 0.3 0.4
v -0.2 0.3 0.4
v 0.1 0.3 0.4
v 0.3 0.3 0.4
v 0.4 0.3 0.4
v -0.3 0.3 0.3
v -0.2 0.3 0.3
v 0 0.3 0.3
v 0.1 0.3 0.3
v 0.3 0.3 0.3
v 0.4 0.3 0.3
v -0.2 0.3 0.2
v -0.1 0.3 0.2
v 0 0.3 0.2
v 0.1 0.3 0.2
v 0.2 0.3 0.2
v 0.3 0.3 0.2
v 0 0.3 0.1
v 0.1 0.3 0.1
v 0.3 0.3 0.1
v 0.4 0.3 0.1
v 0 0.3 0
v 0.1 0.3 0
v 0.2 0.3 0
v 0.3 0.3 0
v -0.1 0.3 -0.1
v 0 0.3 -0.1
v 0.3 0.3 -0.1
v 0.4 0.3 -0.1
v -0.3 0.3 -0.2
v -0.2 0.3 -0.2
v 0.3 0.3 -0.2
v 0.4 0.3 -0.2
v -0.3 0.3 -0.3
v -0.2 0.3 -0.3
v 0.3 0.3 -0.3
v 0.4 0.3 -0.3
v 0 0.5 0.1
v 0.1 0.5 0.1
v 0 0.5 0
v 0.1 0.5 0
v 0 0.5 -0.1
v 0.1 0.5 -0.1

# faces
f 6/4/1 2/4/1 1/4/1
f 7/5/1 3/5/1 2/5/1
f 7/4/1 2/4/1 6/4/1
f 8/4/1 4/4/1 3/4/1
f 8/5/1 3/5/1 7/5/1
f 9/5/1 5/5/1 4/5/1
f 9/4/1 4/4/1 8/4/1
f 10/5/1 8/5/1 7/5/1
f 10/5/1 5/5/1 9/5/1
f 10/5/1 9/5/1 8/5/1
f 10/5/1 7/5/1 6/5/1
f 11/5/1 5/5/1 10/5/1
f 12/4/1 6/4/1 1/4/1
f 13/5/1 10/5/1 6/5/1
f 13/4/1 6/4/1 12/4/1
f 14/3/1 11/3/1 10/3/1
f 14/5/1 10/5/1 13/5/1
f 15/3/1 11/3/1 14/3/1
f 18/4/1 17/4/1 16/4/1
f 20/4/1 18/4/1 16/4/1
f 21/3/1 19/3/1 18/3/1
f 21/4/1 18/4/1 20/4/1
f 22/3/1 19/3/1 21/3/1
f 23/4/2 24/4/2 25/4/2
f 23/4/2 25/4/2 27/4/2
f 25/3/2 26/3/2 28/3/2
f 27/4/2 25/4/2 28/4/2
f 28/3/2 26/3/2 29/3/2
f 30/4/2 31/4/2 32/4/2
f 32/4/2 31/4/2 33/4/2
f 30/4/2 32/4/2 34/4/2
f 34/4/2 32/4/2 35/4/2
f 35/4/2 32/4/2 36/4/2
f 32/5/2 33/5/2 37/5/2
f 36/4/2 32/4/2 37/4/2
f 33/4/2 31/4/2 38/4/2
f 37/5/2 33/5/2 38/5/2
f 38/4/2 31/4/2 39/4/2
f 34/3/2 35/3/2 40/3/2
f 35/4/2 36/4/2 41/4/2
f 40/3/2 35/3/2 41/3/2
f 36/1/2 37/1/2 42/1/2
f 41/4/2 36/4/2 42/4/2
f 37/5/2 38/5/2 43/5/2
f 42/1/2 37/1/2 43/1/2
f 38/2/2 39/2/2 44/2/2
f 43/5/2 38/5/2 44/5/2
f 44/2/2 39/2/2 45/2/2
f 48/4/3 47/4/3 46/4/3
f 49/4/3 47/4/3 48/4/3
f 50/5/3 49/5/3 48/5/3
f 51/5/3 49/5/3 50/5/3
f 52/5/3 50/5/3 48/5/3
f 53/4/3 51/4/3 50/4/3
f 53/5/3 50/5/3 52/5/3
f 54/4/3 51/4/3 53/4/3
f 55/4/3 51/4/3 54/4/3
f 56/4/3 53/4/3 52/4/3
f 56/4/3 54/4/3 53/4/3
f 57/3/3 55/3/3 54/3/3
f 57/4/3 54/4/3 56/4/3
f 58/3/3 55/3/3 57/3/3
f 61/4/3 60/4/3 59/4/3
f 62/4/3 60/4/3 61/4/3
f 63/4/4 64/4/4 65/4/4
f 65/4/4 64/4/4 66/4/4
f 67/3/4 68/3/4 69/3/4
f 69/3/4 68/3/4 70/3/4
f 71/5/4 72/5/4 74/5/4
f 72/3/4 73/3/4 74/3/4
f 74/3/4 73/3/4 75/3/4
f 71/5/4 74/5/4 76/5/4
f 74/5/4 75/5/4 76/5/4
f 76/5/4 75/5/4 77/5/4
f 76/4/4 77/4/4 78/4/4
f 77/5/4 75/5/4 79/5/4
f 78/4/4 77/4/4 79/4/4
f 78/5/4 79/5/4 80/5/4
f 79/5/4 75/5/4 81/5/4
f 80/5/4 79/5/4 81/5/4
f 81/5/4 75/5/4 82/5/4
f 80/4/4 81/4/4 83/4/4
f 81/2/4 82/2/4 84/2/4
f 83/4/4 81/4/4 84/4/4
f 84/2/4 82/2/4 85/2/4
f 90/4/5 87/4/5 86/4/5
f 90/5/5 88/5/5 87/5/5
f 91/5/5 88/5/5 90/5/5
f 92/4/5 90/4/5 86/4/5
f 92/4/5 91/4/5 90/4/5
f 93/4/5 91/4/5 92/4/5
f 94/5/5 88/5/5 91/5/5
f 95/4/5 89/4/5 88/4/5
f 95/5/5 88/5/5 94/5/5
f 96/5/5 94/5/5 91/5/5
f 96/4/5 91/4/5 93/4/5
f 97/4/5 95/4/5 94/4/5
f 97/5/5 94/5/5 96/5/5
f 98/5/5 93/5/5 92/5/5
f 99/4/5 96/4/5 93/4/5
f 99/5/5 93/5/5 98/5/5
f 99/4/5 97/4/5 96/4/5
f 100/4/5 97/4/5 99/4/5
f 101/4/5 89/4/5 95/4/5
f 101/4/5 97/4/5 100/4/5
f 101/4/5 95/4/5 97/4/5
f 102/4/5 100/4/5 99/4/5
f 102/4/5 99/4/5 98/4/5
f 103/4/5 100/4/5 102/4/5
f 104/5/5 103/5/5 102/5/5
f 105/4/5 100/4/5 103/4/5
f 105/5/5 103/5/5 104/5/5
f 106/5/5 101/5/5 100/5/5
f 106/4/5 100/4/5 105/4/5
f 107/4/5 89/4/5 101/4/5
f 107/5/5 101/5/5 106/5/5
f 108/4/5 89/4/5 107/4/5
f 111/3/5 110/3/5 109/3/5
f 112/3/5 110/3/5 111/3/5
f 113/4/6 114/4/6 118/4/6
f 114/5/6 115/5/6 119/5/6
f 118/4/6 114/4/6 119/4/6
f 119/5/6 115/5/6 120/5/6
f 115/4/6 116/4/6 121/4/6
f 120/5/6 115/5/6 121/5/6
f 116/3/6 117/3/6 122/3/6
f 121/4/6 116/4/6 122/4/6
f 122/3/6 117/3/6 123/3/6
f 119/4/6 120/4/6 124/4/6
f 118/5/6 119/5/6 124/5/6
f 124/4/6 120/4/6 125/4/6
f 120/1/6 121/1/6 126/1/6
f 125/4/6 120/4/6 126/4/6
f 121/5/6 122/5/6 127/5/6
f 126/1/6 121/1/6 127/1/6
f 127/5/6 122/5/6 128/5/6
f 122/4/6 123/4/6 129/4/6
f 128/5/6 122/5/6 129/5/6
f 127/4/6 128/4/6 130/4/6
f 125/4/6 126/4/6 130/4/6
f 126/4/6 127/4/6 130/4/6
f 130/4/6 128/4/6 131/4/6
f 129/4/6 123/4/6 132/4/6
f 128/2/6 129/2/6 132/2/6
f 132/4/6 123/4/6 133/4/6
f 125/4/6 130/4/6 134/4/6
f 131/4/6 128/4/6 135/4/6
f 128/2/6 132/2/6 136/2/6
f 135/4/6 128/4/6 136/4/6
f 132/1/6 133/1/6 137/1/6
f 136/2/6 132/2/6 137/2/6
f 124/5/6 125/5/6 138/5/6
f 125/4/6 134/4/6 138/4/6
f 136/5/6 137/5/6 139/5/6
f 138/4/6 134/4/6 139/4/6
f 135/5/6 136/5/6 139/5/6
f 134/5/6 135/5/6 139/5/6
f 137/1/6 133/1/6 140/1/6
f 139/5/6 137/5/6 140/5/6
f 140/1/6 133/1/6 141/1/6
f 138/5/6 139/5/6 142/5/6
f 124/5/6 138/5/6 142/5/6
f 140/5/6 141/5/6 142/5/6
f 139/5/6 140/5/6 142/5/6
f 118/5/6 124/5/6 142/5/6
f 142/5/6 141/5/6 143/5/6
f 143/5/6 141/5/6 144/5/6
f 144/5/6 141/5/6 145/5/6
f 142/3/6 143/3/6 146/3/6
f 143/5/6 144/5/6 147/5/6
f 146/3/6 143/3/6 147/3/6
f 144/2/6 145/2/6 148/2/6
f 147/5/6 144/5/6 148/5/6
f 148/2/6 145/2/6 149/2/6
f 150/4/6 151/4/6 152/4/6
f 152/4/6 151/4/6 153/4/6
f 152/3/6 153/3/6 154/3/6
f 154/3/6 153/3/6 155/3/6
