# MagicaVoxel @ Ephtracy

# group
o 

# material
mtllib zombie6.mtl
usemtl palette

# normals
vn -1 0 0
vn 1 0 0
vn 0 0 1
vn 0 0 -1
vn 0 -1 0
vn 0 1 0

# texcoords
vt 0.341797 0.5
vt 0.369141 0.5
vt 0.853516 0.5
vt 0.857422 0.5
vt 0.861328 0.5
vt 0.865234 0.5
vt 0.990234 0.5
vt 0.994141 0.5

# verts
v -0.4 0.5 0.3
v -0.4 0.5 0.2
v -0.4 0.5 -0.1
v -0.4 0.6 0.3
v -0.4 0.6 0.2
v -0.4 0.6 -0.1
v -0.4 0.7 -2.98023e-08
v -0.4 0.7 -0.1
v -0.4 1 -2.98023e-08
v -0.4 1 -0.1
v -0.3 0.1 0.1
v -0.3 0.1 -0.2
v -0.3 0.2 0.2
v -0.3 0.2 0.1
v -0.3 0.2 -0.2
v -0.3 0.2 -0.3
v -0.3 0.5 0.2
v -0.3 0.5 -0.1
v -0.3 0.6 0.1
v -0.3 0.6 -0.1
v -0.3 0.6 -0.2
v -0.3 0.7 -2.98023e-08
v -0.3 0.7 -0.1
v -0.3 0.7 -0.2
v -0.3 0.7 -0.3
v -0.3 0.9 0.1
v -0.3 0.9 -2.98023e-08
v -0.3 0.9 -0.1
v -0.3 0.9 -0.2
v -0.3 1 0.1
v -0.3 1 -2.98023e-08
v -0.3 1 -0.1
v -0.3 1 -0.2
v -0.2 0 -2.98023e-08
v -0.2 0 -0.1
v -0.2 0.1 -2.98023e-08
v -0.2 0.1 -0.1
v -0.2 0.5 -0.3
v -0.2 0.5 -0.4
v -0.2 0.7 -0.2
v -0.2 0.7 -0.3
v -0.2 0.7 -0.4
v -0.2 0.9 -0.2
v -0.2 0.9 -0.3
v -0.2 1 0.1
v -0.2 1 -0.2
v -0.2 1 -0.3
v -0.2 1.1 0.1
v -0.2 1.1 -0.2
v -0.1 0.2 -0.3
v -0.1 0.2 -0.4
v -0.1 0.5 -0.3
v -0.1 0.5 -0.4
v -0.1 0.7 -0.3
v -0.1 0.7 -0.4
v -0.1 0.9 -0.3
v -0.1 1 -0.3
v -0.1 1 -0.4
v 0.1 0 -2.98023e-08
v 0.1 0 -0.1
v 0.1 0.1 0.1
v 0.1 0.1 -2.98023e-08
v 0.1 0.1 -0.1
v 0.1 0.1 -0.2
v 0.1 0.2 0.1
v 0.1 0.2 -0.2
v 0.2 0.7 0.2
v 0.2 0.7 0.1
v 0.2 0.8 0.1
v 0.2 0.9 0.1
v 0.2 1 0.2
v 0.2 1 0.1
v 0.2 1 -2.98023e-08
v 0.2 1.1 0.1
v 0.2 1.1 -2.98023e-08
v 0.3 0.5 0.3
v 0.3 0.5 0.2
v 0.3 0.6 0.3
v 0.3 0.6 0.2
v -0.3 0.5 0.3
v -0.3 0.5 0.2
v -0.3 0.6 0.3
v -0.3 0.6 0.2
v -0.1 0 -2.98023e-08
v -0.1 0 -0.1
v -0.1 0.1 0.1
v -0.1 0.1 -2.98023e-08
v -0.1 0.1 -0.1
v -0.1 0.1 -0.2
v -0.1 0.2 0.1
v -0.1 0.2 -0.2
v 0 0.2 -0.3
v 0 0.2 -0.4
v 0 0.6 -0.3
v 0 0.7 -0.3
v 0 0.7 -0.4
v 0 0.9 -0.3
v 0 1 0.1
v 0 1 -0.1
v 0 1 -0.3
v 0 1 -0.4
v 0 1.1 0.1
v 0 1.1 -0.1
v 0.2 0 -2.98023e-08
v 0.2 0 -0.1
v 0.2 0.1 -2.98023e-08
v 0.2 0.1 -0.1
v 0.2 1 -0.1
v 0.2 1 -0.2
v 0.2 1.1 -0.1
v 0.2 1.1 -0.2
v 0.3 0.1 0.1
v 0.3 0.1 -0.2
v 0.3 0.2 0.2
v 0.3 0.2 0.1
v 0.3 0.2 -0.2
v 0.3 0.2 -0.3
v 0.3 0.4 -0.2
v 0.3 0.4 -0.3
v 0.3 0.5 0.2
v 0.3 0.5 -0.1
v 0.3 0.5 -0.2
v 0.3 0.5 -0.3
v 0.3 0.6 0.1
v 0.3 0.6 -0.1
v 0.3 0.6 -0.2
v 0.3 0.7 0.2
v 0.3 0.7 0.1
v 0.3 0.9 0.1
v 0.3 0.9 -0.2
v 0.3 1 0.2
v 0.3 1 0.1
v 0.3 1 -2.98023e-08
v 0.3 1 -0.2
v 0.3 1 -0.3
v 0.3 1.1 0.1
v 0.3 1.1 -2.98023e-08
v 0.4 0.5 0.3
v 0.4 0.5 0.2
v 0.4 0.5 -0.1
v 0.4 0.6 0.3
v 0.4 0.6 0.2
v 0.4 0.6 -0.1
v -0.4 0.5 0.3
v -0.4 0.6 0.3
v -0.3 0.5 0.3
v -0.3 0.6 0.3
v 0.3 0.5 0.3
v 0.3 0.6 0.3
v 0.4 0.5 0.3
v 0.4 0.6 0.3
v -0.3 0.2 0.2
v -0.3 0.5 0.2
v -0.3 0.6 0.2
v -0.2 0.4 0.2
v -0.2 0.5 0.2
v -0.1 0.2 0.2
v -0.1 0.4 0.2
v 0.1 0.2 0.2
v 0.1 0.4 0.2
v 0.2 0.4 0.2
v 0.2 0.5 0.2
v 0.2 0.7 0.2
v 0.2 1 0.2
v 0.3 0.2 0.2
v 0.3 0.5 0.2
v 0.3 0.6 0.2
v 0.3 0.7 0.2
v 0.3 1 0.2
v -0.3 0.1 0.1
v -0.3 0.2 0.1
v -0.3 0.6 0.1
v -0.3 0.9 0.1
v -0.3 1 0.1
v -0.2 0.6 0.1
v -0.2 0.7 0.1
v -0.2 0.8 0.1
v -0.2 1 0.1
v -0.2 1.1 0.1
v -0.1 0.1 0.1
v -0.1 0.2 0.1
v -0.1 0.7 0.1
v -0.1 0.8 0.1
v 0 1 0.1
v 0 1.1 0.1
v 0.1 0.1 0.1
v 0.1 0.2 0.1
v 0.1 0.7 0.1
v 0.1 0.8 0.1
v 0.2 0.6 0.1
v 0.2 0.7 0.1
v 0.2 0.8 0.1
v 0.2 0.9 0.1
v 0.2 1 0.1
v 0.2 1.1 0.1
v 0.3 0.1 0.1
v 0.3 0.2 0.1
v 0.3 0.6 0.1
v 0.3 0.7 0.1
v 0.3 1 0.1
v 0.3 1.1 0.1
v -0.4 0.7 -2.98023e-08
v -0.4 1 -2.98023e-08
v -0.3 0.7 -2.98023e-08
v -0.3 0.9 -2.98023e-08
v -0.3 1 -2.98023e-08
v -0.2 0 -2.98023e-08
v -0.2 0.1 -2.98023e-08
v -0.1 0 -2.98023e-08
v -0.1 0.1 -2.98023e-08
v 0.1 0 -2.98023e-08
v 0.1 0.1 -2.98023e-08
v 0.2 0 -2.98023e-08
v 0.2 0.1 -2.98023e-08
v 0 1 -0.1
v 0 1.1 -0.1
v 0.2 1 -0.1
v 0.2 1.1 -0.1
v 0.2 1 -2.98023e-08
v 0.2 1.1 -2.98023e-08
v 0.3 1 -2.98023e-08
v 0.3 1.1 -2.98023e-08
v -0.4 0.5 -0.1
v -0.4 0.6 -0.1
v -0.4 0.7 -0.1
v -0.4 1 -0.1
v -0.3 0.5 -0.1
v -0.3 0.6 -0.1
v -0.3 0.7 -0.1
v -0.3 0.9 -0.1
v -0.3 1 -0.1
v -0.2 0 -0.1
v -0.2 0.1 -0.1
v -0.1 0 -0.1
v -0.1 0.1 -0.1
v 0.1 0 -0.1
v 0.1 0.1 -0.1
v 0.2 0 -0.1
v 0.2 0.1 -0.1
v 0.3 0.5 -0.1
v 0.3 0.6 -0.1
v 0.4 0.5 -0.1
v 0.4 0.6 -0.1
v -0.3 0.1 -0.2
v -0.3 0.2 -0.2
v -0.3 0.7 -0.2
v -0.3 0.9 -0.2
v -0.3 1 -0.2
v -0.2 0.7 -0.2
v -0.2 0.9 -0.2
v -0.2 1 -0.2
v -0.2 1.1 -0.2
v -0.1 0.1 -0.2
v -0.1 0.2 -0.2
v 0 1 -0.2
v 0.1 0.1 -0.2
v 0.1 0.2 -0.2
v 0.2 1 -0.2
v 0.2 1.1 -0.2
v 0.3 0.1 -0.2
v 0.3 0.2 -0.2
v -0.3 0.2 -0.3
v -0.3 0.7 -0.3
v -0.2 0.5 -0.3
v -0.2 0.7 -0.3
v -0.2 0.9 -0.3
v -0.2 1 -0.3
v -0.1 0.2 -0.3
v -0.1 0.5 -0.3
v -0.1 0.7 -0.3
v -0.1 0.9 -0.3
v -0.1 1 -0.3
v 0 0.2 -0.3
v 0 0.6 -0.3
v 0 0.7 -0.3
v 0 0.9 -0.3
v 0 1 -0.3
v 0.2 0.4 -0.3
v 0.2 0.5 -0.3
v 0.2 0.6 -0.3
v 0.2 0.9 -0.3
v 0.2 1 -0.3
v 0.3 0.2 -0.3
v 0.3 0.4 -0.3
v 0.3 0.5 -0.3
v 0.3 1 -0.3
v -0.2 0.5 -0.4
v -0.2 0.7 -0.4
v -0.1 0.2 -0.4
v -0.1 0.5 -0.4
v -0.1 0.7 -0.4
v -0.1 1 -0.4
v 0 0.2 -0.4
v 0 0.7 -0.4
v 0 1 -0.4
v -0.2 0 -2.98023e-08
v -0.1 0 -2.98023e-08
v 0.1 0 -2.98023e-08
v 0.2 0 -2.98023e-08
v -0.2 0 -0.1
v -0.1 0 -0.1
v 0.1 0 -0.1
v 0.2 0 -0.1
v -0.3 0.1 0.1
v -0.1 0.1 0.1
v 0.1 0.1 0.1
v 0.3 0.1 0.1
v -0.2 0.1 -2.98023e-08
v -0.1 0.1 -2.98023e-08
v 0.1 0.1 -2.98023e-08
v 0.2 0.1 -2.98023e-08
v -0.2 0.1 -0.1
v -0.1 0.1 -0.1
v 0.1 0.1 -0.1
v 0.2 0.1 -0.1
v -0.3 0.1 -0.2
v -0.1 0.1 -0.2
v 0.1 0.1 -0.2
v 0.3 0.1 -0.2
v -0.3 0.2 0.2
v -0.1 0.2 0.2
v 0.1 0.2 0.2
v 0.3 0.2 0.2
v -0.3 0.2 0.1
v -0.1 0.2 0.1
v 0.1 0.2 0.1
v 0.3 0.2 0.1
v -0.3 0.2 -0.2
v -0.1 0.2 -0.2
v 0.1 0.2 -0.2
v 0.3 0.2 -0.2
v -0.3 0.2 -0.3
v -0.1 0.2 -0.3
v 0 0.2 -0.3
v 0.3 0.2 -0.3
v -0.1 0.2 -0.4
v 0 0.2 -0.4
v -0.4 0.5 0.3
v -0.3 0.5 0.3
v 0.3 0.5 0.3
v 0.4 0.5 0.3
v -0.4 0.5 0.2
v -0.3 0.5 0.2
v 0.3 0.5 0.2
v 0.4 0.5 0.2
v -0.4 0.5 -0.1
v -0.3 0.5 -0.1
v 0.3 0.5 -0.1
v 0.4 0.5 -0.1
v -0.2 0.5 -0.3
v -0.1 0.5 -0.3
v -0.2 0.5 -0.4
v -0.1 0.5 -0.4
v 0.2 0.7 0.2
v 0.3 0.7 0.2
v 0.2 0.7 0.1
v 0.3 0.7 0.1
v -0.4 0.7 -2.98023e-08
v -0.3 0.7 -2.98023e-08
v -0.4 0.7 -0.1
v -0.3 0.7 -0.1
v -0.4 0.6 0.3
v -0.3 0.6 0.3
v 0.3 0.6 0.3
v 0.4 0.6 0.3
v -0.4 0.6 0.2
v -0.3 0.6 0.2
v 0.3 0.6 0.2
v 0.4 0.6 0.2
v -0.3 0.6 0.1
v -0.2 0.6 0.1
v 0.2 0.6 0.1
v 0.3 0.6 0.1
v -0.4 0.6 -0.1
v -0.3 0.6 -0.1
v 0.3 0.6 -0.1
v 0.4 0.6 -0.1
v -0.3 0.7 -0.2
v -0.2 0.7 -0.2
v -0.3 0.7 -0.3
v -0.2 0.7 -0.3
v -0.1 0.7 -0.3
v -0.2 0.7 -0.4
v -0.1 0.7 -0.4
v 0.2 1 0.2
v 0.3 1 0.2
v -0.3 1 0.1
v -0.2 1 0.1
v 0 1 0.1
v 0.2 1 0.1
v 0.3 1 0.1
v -0.4 1 -2.98023e-08
v -0.3 1 -2.98023e-08
v 0.2 1 -2.98023e-08
v 0.3 1 -2.98023e-08
v -0.4 1 -0.1
v -0.3 1 -0.1
v 0 1 -0.1
v 0.2 1 -0.1
v -0.3 1 -0.2
v -0.2 1 -0.2
v 0 1 -0.2
v 0.2 1 -0.2
v 0.3 1 -0.2
v -0.2 1 -0.3
v -0.1 1 -0.3
v 0 1 -0.3
v 0.2 1 -0.3
v 0.3 1 -0.3
v -0.1 1 -0.4
v 0 1 -0.4
v -0.2 1.1 0.1
v 0 1.1 0.1
v 0.2 1.1 0.1
v 0.3 1.1 0.1
v 0.2 1.1 -2.98023e-08
v 0.3 1.1 -2.98023e-08
v 0 1.1 -0.1
v 0.2 1.1 -0.1
v -0.2 1.1 -0.2
v 0.2 1.1 -0.2

# faces
f 4/1/1 2/1/1 1/1/1
f 5/2/1 3/2/1 2/2/1
f 5/1/1 2/1/1 4/1/1
f 6/2/1 3/2/1 5/2/1
f 9/4/1 8/4/1 7/4/1
f 10/4/1 8/4/1 9/4/1
f 14/2/1 12/2/1 11/2/1
f 15/2/1 12/2/1 14/2/1
f 17/2/1 14/2/1 13/2/1
f 17/2/1 16/2/1 15/2/1
f 17/2/1 15/2/1 14/2/1
f 18/2/1 16/2/1 17/2/1
f 20/2/1 16/2/1 18/2/1
f 21/2/1 16/2/1 20/2/1
f 22/1/1 20/1/1 19/1/1
f 22/1/1 21/1/1 20/1/1
f 23/1/1 21/1/1 22/1/1
f 24/2/1 16/2/1 21/2/1
f 24/1/1 21/1/1 23/1/1
f 25/2/1 16/2/1 24/2/1
f 26/1/1 22/1/1 19/1/1
f 27/1/1 22/1/1 26/1/1
f 28/1/1 24/1/1 23/1/1
f 29/1/1 24/1/1 28/1/1
f 30/4/1 27/4/1 26/4/1
f 31/4/1 27/4/1 30/4/1
f 32/4/1 29/4/1 28/4/1
f 33/4/1 29/4/1 32/4/1
f 36/7/1 35/7/1 34/7/1
f 37/7/1 35/7/1 36/7/1
f 41/3/1 39/3/1 38/3/1
f 42/3/1 39/3/1 41/3/1
f 43/1/1 41/1/1 40/1/1
f 44/1/1 41/1/1 43/1/1
f 46/5/1 44/5/1 43/5/1
f 47/5/1 44/5/1 46/5/1
f 48/6/1 46/6/1 45/6/1
f 49/6/1 46/6/1 48/6/1
f 52/3/1 51/3/1 50/3/1
f 53/3/1 51/3/1 52/3/1
f 56/5/1 55/5/1 54/5/1
f 57/5/1 55/5/1 56/5/1
f 58/5/1 55/5/1 57/5/1
f 62/7/1 60/7/1 59/7/1
f 63/7/1 60/7/1 62/7/1
f 65/2/1 62/2/1 61/2/1
f 65/2/1 64/2/1 63/2/1
f 65/2/1 63/2/1 62/2/1
f 66/2/1 64/2/1 65/2/1
f 69/3/1 68/3/1 67/3/1
f 70/3/1 69/3/1 67/3/1
f 71/3/1 70/3/1 67/3/1
f 72/3/1 70/3/1 71/3/1
f 74/6/1 73/6/1 72/6/1
f 75/6/1 73/6/1 74/6/1
f 78/1/1 77/1/1 76/1/1
f 79/1/1 77/1/1 78/1/1
f 80/1/2 81/1/2 82/1/2
f 82/1/2 81/1/2 83/1/2
f 84/7/2 85/7/2 87/7/2
f 87/7/2 85/7/2 88/7/2
f 86/2/2 87/2/2 90/2/2
f 88/2/2 89/2/2 90/2/2
f 87/2/2 88/2/2 90/2/2
f 90/2/2 89/2/2 91/2/2
f 92/3/2 93/3/2 94/3/2
f 94/3/2 93/3/2 95/3/2
f 95/3/2 93/3/2 96/3/2
f 95/5/2 96/5/2 97/5/2
f 97/5/2 96/5/2 100/5/2
f 100/5/2 96/5/2 101/5/2
f 98/6/2 99/6/2 102/6/2
f 102/6/2 99/6/2 103/6/2
f 104/7/2 105/7/2 106/7/2
f 106/7/2 105/7/2 107/7/2
f 108/6/2 109/6/2 110/6/2
f 110/6/2 109/6/2 111/6/2
f 112/2/2 113/2/2 115/2/2
f 115/2/2 113/2/2 116/2/2
f 114/2/2 115/2/2 118/2/2
f 116/2/2 117/2/2 118/2/2
f 115/2/2 116/2/2 118/2/2
f 118/2/2 117/2/2 119/2/2
f 114/2/2 118/2/2 120/2/2
f 120/2/2 118/2/2 121/2/2
f 118/5/2 119/5/2 122/5/2
f 121/2/2 118/2/2 122/2/2
f 122/5/2 119/5/2 123/5/2
f 121/2/2 122/2/2 125/2/2
f 122/3/2 123/3/2 126/3/2
f 125/2/2 122/2/2 126/2/2
f 124/1/2 125/1/2 128/1/2
f 125/1/2 126/1/2 128/1/2
f 128/1/2 126/1/2 129/1/2
f 127/3/2 128/3/2 129/3/2
f 126/3/2 123/3/2 130/3/2
f 129/1/2 126/1/2 130/1/2
f 127/3/2 129/3/2 131/3/2
f 129/4/2 130/4/2 132/4/2
f 131/3/2 129/3/2 132/3/2
f 132/4/2 130/4/2 133/4/2
f 130/3/2 123/3/2 134/3/2
f 133/4/2 130/4/2 134/4/2
f 134/3/2 123/3/2 135/3/2
f 132/6/2 133/6/2 136/6/2
f 136/6/2 133/6/2 137/6/2
f 138/1/2 139/1/2 141/1/2
f 139/2/2 140/2/2 142/2/2
f 141/1/2 139/1/2 142/1/2
f 142/2/2 140/2/2 143/2/2
f 146/1/3 145/1/3 144/1/3
f 147/1/3 145/1/3 146/1/3
f 150/1/3 149/1/3 148/1/3
f 151/1/3 149/1/3 150/1/3
f 155/2/3 153/2/3 152/2/3
f 156/4/3 154/4/3 153/4/3
f 156/2/3 153/2/3 155/2/3
f 157/2/3 155/2/3 152/2/3
f 158/4/3 156/4/3 155/4/3
f 158/2/3 155/2/3 157/2/3
f 159/4/3 158/4/3 157/4/3
f 160/4/3 156/4/3 158/4/3
f 160/4/3 158/4/3 159/4/3
f 161/2/3 160/2/3 159/2/3
f 161/4/3 156/4/3 160/4/3
f 162/4/3 154/4/3 156/4/3
f 162/4/3 156/4/3 161/4/3
f 165/2/3 161/2/3 159/2/3
f 165/2/3 162/2/3 161/2/3
f 166/4/3 154/4/3 162/4/3
f 166/2/3 162/2/3 165/2/3
f 167/4/3 154/4/3 166/4/3
f 168/3/3 164/3/3 163/3/3
f 169/3/3 164/3/3 168/3/3
f 175/1/3 173/1/3 172/1/3
f 176/1/3 173/1/3 175/1/3
f 177/1/3 173/1/3 176/1/3
f 178/4/3 174/4/3 173/4/3
f 180/2/3 171/2/3 170/2/3
f 181/2/3 171/2/3 180/2/3
f 182/4/3 176/4/3 175/4/3
f 182/8/3 177/8/3 176/8/3
f 183/1/3 173/1/3 177/1/3
f 183/8/3 177/8/3 182/8/3
f 184/6/3 179/6/3 178/6/3
f 184/4/3 178/4/3 173/4/3
f 185/6/3 179/6/3 184/6/3
f 188/4/3 182/4/3 175/4/3
f 188/1/3 183/1/3 182/1/3
f 189/1/3 173/1/3 183/1/3
f 189/1/3 183/1/3 188/1/3
f 190/4/3 188/4/3 175/4/3
f 191/8/3 189/8/3 188/8/3
f 191/4/3 188/4/3 190/4/3
f 192/1/3 173/1/3 189/1/3
f 192/8/3 189/8/3 191/8/3
f 193/4/3 184/4/3 173/4/3
f 193/1/3 173/1/3 192/1/3
f 194/4/3 184/4/3 193/4/3
f 196/2/3 187/2/3 186/2/3
f 197/2/3 187/2/3 196/2/3
f 198/1/3 191/1/3 190/1/3
f 199/1/3 191/1/3 198/1/3
f 200/6/3 195/6/3 194/6/3
f 201/6/3 195/6/3 200/6/3
f 204/4/3 203/4/3 202/4/3
f 205/4/3 203/4/3 204/4/3
f 206/4/3 203/4/3 205/4/3
f 209/7/3 208/7/3 207/7/3
f 210/7/3 208/7/3 209/7/3
f 213/7/3 212/7/3 211/7/3
f 214/7/3 212/7/3 213/7/3
f 217/6/3 216/6/3 215/6/3
f 218/6/3 216/6/3 217/6/3
f 219/6/4 220/6/4 221/6/4
f 221/6/4 220/6/4 222/6/4
f 223/2/4 224/2/4 227/2/4
f 227/2/4 224/2/4 228/2/4
f 225/4/4 226/4/4 229/4/4
f 229/4/4 226/4/4 230/4/4
f 230/4/4 226/4/4 231/4/4
f 232/7/4 233/7/4 234/7/4
f 234/7/4 233/7/4 235/7/4
f 236/7/4 237/7/4 238/7/4
f 238/7/4 237/7/4 239/7/4
f 240/2/4 241/2/4 242/2/4
f 242/2/4 241/2/4 243/2/4
f 246/1/4 247/1/4 249/1/4
f 247/4/4 248/4/4 250/4/4
f 249/1/4 247/1/4 250/1/4
f 250/4/4 248/4/4 251/4/4
f 244/2/4 245/2/4 253/2/4
f 253/2/4 245/2/4 254/2/4
f 251/6/4 252/6/4 255/6/4
f 255/6/4 252/6/4 258/6/4
f 258/6/4 252/6/4 259/6/4
f 256/2/4 257/2/4 260/2/4
f 260/2/4 257/2/4 261/2/4
f 262/2/4 263/2/4 264/2/4
f 264/2/4 263/2/4 265/2/4
f 262/2/4 264/2/4 268/2/4
f 268/2/4 264/2/4 269/2/4
f 265/1/4 266/1/4 270/1/4
f 266/5/4 267/5/4 271/5/4
f 270/1/4 266/1/4 271/1/4
f 271/5/4 267/5/4 272/5/4
f 273/2/4 274/2/4 278/2/4
f 278/2/4 274/2/4 279/2/4
f 274/1/4 275/1/4 280/1/4
f 279/2/4 274/2/4 280/2/4
f 275/1/4 276/1/4 280/1/4
f 276/4/4 277/4/4 281/4/4
f 280/1/4 276/1/4 281/1/4
f 281/4/4 277/4/4 282/4/4
f 273/2/4 278/2/4 283/2/4
f 278/5/4 279/5/4 284/5/4
f 283/2/4 278/2/4 284/2/4
f 279/3/4 280/3/4 285/3/4
f 284/5/4 279/5/4 285/5/4
f 280/3/4 281/3/4 285/3/4
f 281/3/4 282/3/4 285/3/4
f 285/3/4 282/3/4 286/3/4
f 287/3/4 288/3/4 290/3/4
f 290/3/4 288/3/4 291/3/4
f 289/3/4 290/3/4 293/3/4
f 290/3/4 291/3/4 293/3/4
f 291/5/4 292/5/4 294/5/4
f 293/3/4 291/3/4 294/3/4
f 294/5/4 292/5/4 295/5/4
f 300/7/5 297/7/5 296/7/5
f 301/7/5 297/7/5 300/7/5
f 302/7/5 299/7/5 298/7/5
f 303/7/5 299/7/5 302/7/5
f 308/2/5 305/2/5 304/2/5
f 309/2/5 305/2/5 308/2/5
f 310/2/5 307/2/5 306/2/5
f 311/2/5 307/2/5 310/2/5
f 312/2/5 308/2/5 304/2/5
f 315/2/5 307/2/5 311/2/5
f 316/2/5 313/2/5 312/2/5
f 316/2/5 312/2/5 304/2/5
f 317/2/5 313/2/5 316/2/5
f 318/2/5 315/2/5 314/2/5
f 319/2/5 307/2/5 315/2/5
f 319/2/5 315/2/5 318/2/5
f 324/2/5 321/2/5 320/2/5
f 325/4/5 322/4/5 321/4/5
f 325/2/5 321/2/5 324/2/5
f 326/2/5 323/2/5 322/2/5
f 326/4/5 322/4/5 325/4/5
f 327/2/5 323/2/5 326/2/5
f 329/2/5 326/2/5 325/2/5
f 330/2/5 326/2/5 329/2/5
f 332/2/5 329/2/5 328/2/5
f 332/2/5 331/2/5 330/2/5
f 332/2/5 330/2/5 329/2/5
f 333/2/5 331/2/5 332/2/5
f 334/2/5 331/2/5 333/2/5
f 335/2/5 331/2/5 334/2/5
f 336/3/5 334/3/5 333/3/5
f 337/3/5 334/3/5 336/3/5
f 342/1/5 339/1/5 338/1/5
f 343/1/5 339/1/5 342/1/5
f 344/1/5 341/1/5 340/1/5
f 345/1/5 341/1/5 344/1/5
f 346/2/5 343/2/5 342/2/5
f 347/2/5 343/2/5 346/2/5
f 348/2/5 345/2/5 344/2/5
f 349/2/5 345/2/5 348/2/5
f 352/3/5 351/3/5 350/3/5
f 353/3/5 351/3/5 352/3/5
f 356/3/5 355/3/5 354/3/5
f 357/3/5 355/3/5 356/3/5
f 360/4/5 359/4/5 358/4/5
f 361/4/5 359/4/5 360/4/5
f 362/1/6 363/1/6 366/1/6
f 366/1/6 363/1/6 367/1/6
f 364/1/6 365/1/6 368/1/6
f 368/1/6 365/1/6 369/1/6
f 366/2/6 367/2/6 370/2/6
f 367/4/6 368/4/6 370/4/6
f 370/4/6 368/4/6 371/4/6
f 371/4/6 368/4/6 372/4/6
f 368/2/6 369/2/6 373/2/6
f 372/4/6 368/4/6 373/4/6
f 366/2/6 370/2/6 374/2/6
f 374/2/6 370/2/6 375/2/6
f 373/2/6 369/2/6 376/2/6
f 376/2/6 369/2/6 377/2/6
f 378/2/6 379/2/6 380/2/6
f 380/2/6 379/2/6 381/2/6
f 381/3/6 382/3/6 383/3/6
f 383/3/6 382/3/6 384/3/6
f 385/3/6 386/3/6 390/3/6
f 390/3/6 386/3/6 391/3/6
f 387/4/6 388/4/6 393/4/6
f 389/4/6 390/4/6 394/4/6
f 392/4/6 393/4/6 396/4/6
f 393/4/6 388/4/6 397/4/6
f 396/4/6 393/4/6 397/4/6
f 394/4/6 395/4/6 398/4/6
f 389/4/6 394/4/6 398/4/6
f 398/4/6 395/4/6 399/4/6
f 397/4/6 388/4/6 400/4/6
f 400/4/6 388/4/6 401/4/6
f 399/4/6 395/4/6 403/4/6
f 403/4/6 395/4/6 404/4/6
f 401/5/6 402/5/6 405/5/6
f 405/5/6 402/5/6 406/5/6
f 402/4/6 403/4/6 407/4/6
f 406/5/6 402/5/6 407/5/6
f 403/3/6 404/3/6 408/3/6
f 407/4/6 403/4/6 408/4/6
f 408/3/6 404/3/6 409/3/6
f 406/5/6 407/5/6 410/5/6
f 410/5/6 407/5/6 411/5/6
f 414/6/6 415/6/6 416/6/6
f 416/6/6 415/6/6 417/6/6
f 412/6/6 413/6/6 418/6/6
f 412/6/6 418/6/6 420/6/6
f 418/6/6 419/6/6 420/6/6
f 420/6/6 419/6/6 421/6/6
