# MagicaVoxel @ Ephtracy

# group
o 

# material
mtllib zombie8.mtl
usemtl palette

# normals
vn -1 0 0
vn 1 0 0
vn 0 0 1
vn 0 0 -1
vn 0 -1 0
vn 0 1 0

# texcoords
vt 0.802734 0.5
vt 0.841797 0.5
vt 0.853516 0.5
vt 0.861328 0.5
vt 0.869141 0.5
vt 0.876953 0.5
vt 0.970703 0.5
vt 0.978516 0.5
vt 0.990234 0.5
vt 0.994141 0.5

# verts
v -0.3 0.1 0.1
v -0.3 0.1 -0.2
v -0.3 0.2 0.2
v -0.3 0.2 0.1
v -0.3 0.2 -2.98023e-08
v -0.3 0.2 -0.1
v -0.3 0.2 -0.2
v -0.3 0.2 -0.3
v -0.3 0.3 0.2
v -0.3 0.3 0.1
v -0.3 0.3 -2.98023e-08
v -0.3 0.3 -0.2
v -0.3 0.3 -0.3
v -0.3 0.5 0.2
v -0.3 0.5 0.1
v -0.3 0.5 -2.98023e-08
v -0.3 0.5 -0.1
v -0.3 0.6 0.2
v -0.3 0.6 0.1
v -0.3 0.6 -2.98023e-08
v -0.3 0.6 -0.1
v -0.3 0.6 -0.2
v -0.3 0.6 -0.3
v -0.3 0.7 -0.1
v -0.3 0.7 -0.2
v -0.3 0.8 -2.98023e-08
v -0.3 0.8 -0.1
v -0.3 0.9 0.1
v -0.3 0.9 -2.98023e-08
v -0.3 0.9 -0.1
v -0.3 0.9 -0.2
v -0.3 1 -0.1
v -0.3 1 -0.2
v -0.2 0 -2.98023e-08
v -0.2 0 -0.1
v -0.2 0.1 -2.98023e-08
v -0.2 0.1 -0.1
v -0.2 0.6 -0.2
v -0.2 0.6 -0.3
v -0.2 0.7 -0.2
v -0.2 0.9 0.1
v -0.2 0.9 -2.98023e-08
v -0.2 0.9 -0.1
v -0.2 0.9 -0.2
v -0.2 0.9 -0.3
v -0.2 1 0.1
v -0.2 1 -0.1
v -0.2 1 -0.2
v -0.2 1 -0.3
v -0.1 0.8 -0.3
v -0.1 0.8 -0.4
v -0.1 0.9 -0.3
v -0.1 1 0.2
v -0.1 1 0.1
v -0.1 1 -0.2
v -0.1 1 -0.3
v -0.1 1.2 0.2
v -0.1 1.2 -0.4
v 0.1 0 -2.98023e-08
v 0.1 0 -0.1
v 0.1 0.1 0.1
v 0.1 0.1 -2.98023e-08
v 0.1 0.1 -0.1
v 0.1 0.1 -0.2
v 0.1 0.2 0.1
v 0.1 0.2 -0.2
v 0.1 0.5 0.2
v 0.1 0.5 0.1
v 0.1 0.6 0.2
v 0.1 0.6 0.1
v 0.2 0.8 0.2
v 0.2 0.8 0.1
v 0.2 1 0.2
v 0.2 1 0.1
v 0.3 0.5 0.3
v 0.3 0.5 0.2
v 0.3 0.6 0.3
v 0.3 0.6 0.2
v -0.1 0 -2.98023e-08
v -0.1 0 -0.1
v -0.1 0.1 0.1
v -0.1 0.1 -2.98023e-08
v -0.1 0.1 -0.1
v -0.1 0.1 -0.2
v -0.1 0.2 0.1
v -0.1 0.2 -0.2
v -0.1 0.5 0.2
v -0.1 0.5 0.1
v -0.1 0.6 0.2
v -0.1 0.6 0.1
v 2.98023e-08 0.8 -0.3
v 2.98023e-08 0.8 -0.4
v 2.98023e-08 0.9 -0.3
v 2.98023e-08 1 -0.3
v 2.98023e-08 1.2 -0.3
v 2.98023e-08 1.2 -0.4
v 0.2 0 -2.98023e-08
v 0.2 0 -0.1
v 0.2 0.1 -2.98023e-08
v 0.2 0.1 -0.1
v 0.2 0.6 -0.2
v 0.2 0.6 -0.3
v 0.2 1 -0.2
v 0.2 1 -0.3
v 0.3 0.1 0.1
v 0.3 0.1 -0.2
v 0.3 0.2 0.2
v 0.3 0.2 0.1
v 0.3 0.2 -0.1
v 0.3 0.2 -0.2
v 0.3 0.2 -0.3
v 0.3 0.3 0.2
v 0.3 0.3 0.1
v 0.3 0.3 -0.1
v 0.3 0.3 -0.3
v 0.3 0.4 -0.2
v 0.3 0.4 -0.3
v 0.3 0.5 0.2
v 0.3 0.5 0.1
v 0.3 0.5 -0.1
v 0.3 0.6 0.1
v 0.3 0.6 -0.1
v 0.3 0.6 -0.2
v 0.3 0.6 -0.3
v 0.3 0.7 -2.98023e-08
v 0.3 0.7 -0.1
v 0.3 0.8 0.2
v 0.3 0.8 0.1
v 0.3 0.8 -2.98023e-08
v 0.3 0.8 -0.1
v 0.3 1 0.1
v 0.3 1 -0.2
v 0.3 1 -0.3
v 0.3 1.2 0.2
v 0.3 1.2 -0.3
v 0.4 0.5 0.3
v 0.4 0.5 0.2
v 0.4 0.5 -0.1
v 0.4 0.6 0.3
v 0.4 0.6 0.2
v 0.4 0.6 -0.1
v 0.4 0.7 -2.98023e-08
v 0.4 0.7 -0.1
v 0.4 0.8 -2.98023e-08
v 0.4 0.8 -0.1
v 0.3 0.5 0.3
v 0.3 0.6 0.3
v 0.4 0.5 0.3
v 0.4 0.6 0.3
v -0.3 0.2 0.2
v -0.3 0.3 0.2
v -0.3 0.5 0.2
v -0.3 0.6 0.2
v -0.2 0.5 0.2
v -0.2 0.6 0.2
v -0.1 0.2 0.2
v -0.1 0.3 0.2
v -0.1 0.4 0.2
v -0.1 0.5 0.2
v -0.1 0.6 0.2
v -0.1 1 0.2
v -0.1 1.2 0.2
v 0.1 0.3 0.2
v 0.1 0.4 0.2
v 0.1 0.5 0.2
v 0.1 0.6 0.2
v 0.2 0.4 0.2
v 0.2 0.5 0.2
v 0.2 0.8 0.2
v 0.2 1 0.2
v 0.3 0.2 0.2
v 0.3 0.3 0.2
v 0.3 0.5 0.2
v 0.3 0.6 0.2
v 0.3 0.8 0.2
v 0.3 1.2 0.2
v -0.3 0.1 0.1
v -0.3 0.2 0.1
v -0.3 0.6 0.1
v -0.3 0.9 0.1
v -0.2 0.6 0.1
v -0.2 0.7 0.1
v -0.2 0.8 0.1
v -0.2 0.9 0.1
v -0.2 1 0.1
v -0.1 0.1 0.1
v -0.1 0.2 0.1
v -0.1 0.5 0.1
v -0.1 0.6 0.1
v -0.1 0.7 0.1
v -0.1 0.8 0.1
v -0.1 1 0.1
v 2.98023e-08 0.6 0.1
v 2.98023e-08 1 0.1
v 0.1 0.1 0.1
v 0.1 0.2 0.1
v 0.1 0.5 0.1
v 0.1 0.6 0.1
v 0.1 0.7 0.1
v 0.1 0.8 0.1
v 0.2 0.7 0.1
v 0.2 0.8 0.1
v 0.2 1 0.1
v 0.3 0.1 0.1
v 0.3 0.2 0.1
v 0.3 0.6 0.1
v 0.3 0.8 0.1
v -0.2 0 -2.98023e-08
v -0.2 0.1 -2.98023e-08
v -0.1 0 -2.98023e-08
v -0.1 0.1 -2.98023e-08
v 0.1 0 -2.98023e-08
v 0.1 0.1 -2.98023e-08
v 0.2 0 -2.98023e-08
v 0.2 0.1 -2.98023e-08
v 0.3 0.7 -2.98023e-08
v 0.3 0.8 -2.98023e-08
v 0.4 0.7 -2.98023e-08
v 0.4 0.8 -2.98023e-08
v -0.3 0.9 -0.1
v -0.3 1 -0.1
v -0.2 0.9 -0.1
v -0.2 1 -0.1
v -0.2 0 -0.1
v -0.2 0.1 -0.1
v -0.1 0 -0.1
v -0.1 0.1 -0.1
v 0.1 0 -0.1
v 0.1 0.1 -0.1
v 0.2 0 -0.1
v 0.2 0.1 -0.1
v 0.3 0.5 -0.1
v 0.3 0.6 -0.1
v 0.3 0.7 -0.1
v 0.3 0.8 -0.1
v 0.4 0.5 -0.1
v 0.4 0.6 -0.1
v 0.4 0.7 -0.1
v 0.4 0.8 -0.1
v -0.3 0.1 -0.2
v -0.3 0.2 -0.2
v -0.3 0.6 -0.2
v -0.3 0.7 -0.2
v -0.3 0.9 -0.2
v -0.3 1 -0.2
v -0.2 0.6 -0.2
v -0.2 0.7 -0.2
v -0.2 0.9 -0.2
v -0.2 1 -0.2
v -0.1 0.1 -0.2
v -0.1 0.2 -0.2
v 0.1 0.1 -0.2
v 0.1 0.2 -0.2
v 0.2 0.6 -0.2
v 0.2 1 -0.2
v 0.3 0.1 -0.2
v 0.3 0.2 -0.2
v 0.3 0.6 -0.2
v 0.3 1 -0.2
v -0.3 0.2 -0.3
v -0.3 0.3 -0.3
v -0.3 0.6 -0.3
v -0.2 0.5 -0.3
v -0.2 0.6 -0.3
v -0.2 0.9 -0.3
v -0.2 1 -0.3
v -0.1 0.4 -0.3
v -0.1 0.5 -0.3
v -0.1 0.8 -0.3
v -0.1 0.9 -0.3
v -0.1 1 -0.3
v 2.98023e-08 0.2 -0.3
v 2.98023e-08 0.3 -0.3
v 2.98023e-08 0.4 -0.3
v 2.98023e-08 0.6 -0.3
v 2.98023e-08 0.8 -0.3
v 2.98023e-08 0.9 -0.3
v 2.98023e-08 1 -0.3
v 2.98023e-08 1.2 -0.3
v 0.1 0.2 -0.3
v 0.1 0.3 -0.3
v 0.1 0.4 -0.3
v 0.1 0.6 -0.3
v 0.1 0.9 -0.3
v 0.2 0.6 -0.3
v 0.2 1 -0.3
v 0.3 0.2 -0.3
v 0.3 0.3 -0.3
v 0.3 0.4 -0.3
v 0.3 0.6 -0.3
v 0.3 1 -0.3
v 0.3 1.2 -0.3
v -0.1 0.8 -0.4
v -0.1 1.2 -0.4
v 2.98023e-08 0.8 -0.4
v 2.98023e-08 1.2 -0.4
v -0.2 0 -2.98023e-08
v -0.1 0 -2.98023e-08
v 0.1 0 -2.98023e-08
v 0.2 0 -2.98023e-08
v -0.2 0 -0.1
v -0.1 0 -0.1
v 0.1 0 -0.1
v 0.2 0 -0.1
v -0.3 0.1 0.1
v -0.1 0.1 0.1
v 0.1 0.1 0.1
v 0.3 0.1 0.1
v -0.2 0.1 -2.98023e-08
v -0.1 0.1 -2.98023e-08
v 0.1 0.1 -2.98023e-08
v 0.2 0.1 -2.98023e-08
v -0.2 0.1 -0.1
v -0.1 0.1 -0.1
v 0.1 0.1 -0.1
v 0.2 0.1 -0.1
v -0.3 0.1 -0.2
v -0.1 0.1 -0.2
v 0.1 0.1 -0.2
v 0.3 0.1 -0.2
v -0.3 0.2 0.2
v -0.1 0.2 0.2
v 0.3 0.2 0.2
v -0.3 0.2 0.1
v -0.1 0.2 0.1
v 0.1 0.2 0.1
v 0.3 0.2 0.1
v -0.3 0.2 -0.2
v -0.1 0.2 -0.2
v 2.98023e-08 0.2 -0.2
v 0.1 0.2 -0.2
v 0.3 0.2 -0.2
v -0.3 0.2 -0.3
v 2.98023e-08 0.2 -0.3
v 0.1 0.2 -0.3
v 0.3 0.2 -0.3
v 0.3 0.5 0.3
v 0.4 0.5 0.3
v 0.3 0.5 0.2
v 0.4 0.5 0.2
v 0.3 0.5 0.1
v 0.3 0.5 -0.1
v 0.4 0.5 -0.1
v 0.3 0.7 -2.98023e-08
v 0.4 0.7 -2.98023e-08
v 0.3 0.7 -0.1
v 0.4 0.7 -0.1
v 0.2 0.8 0.2
v 0.3 0.8 0.2
v 0.2 0.8 0.1
v 0.3 0.8 0.1
v -0.1 0.8 -0.3
v 2.98023e-08 0.8 -0.3
v -0.1 0.8 -0.4
v 2.98023e-08 0.8 -0.4
v -0.1 1 0.2
v 0.2 1 0.2
v -0.1 1 0.1
v 2.98023e-08 1 0.1
v 0.2 1 0.1
v 0.2 1 -0.2
v 0.3 1 -0.2
v 0.2 1 -0.3
v 0.3 1 -0.3
v -0.1 0.5 0.2
v 0.1 0.5 0.2
v -0.1 0.5 0.1
v 0.1 0.5 0.1
v 0.3 0.6 0.3
v 0.4 0.6 0.3
v -0.3 0.6 0.2
v -0.2 0.6 0.2
v -0.1 0.6 0.2
v 0.1 0.6 0.2
v 0.3 0.6 0.2
v 0.4 0.6 0.2
v -0.3 0.6 0.1
v -0.2 0.6 0.1
v -0.1 0.6 0.1
v 0.1 0.6 0.1
v 0.3 0.6 0.1
v 0.3 0.6 -0.1
v 0.4 0.6 -0.1
v -0.3 0.6 -0.2
v -0.2 0.6 -0.2
v 0.2 0.6 -0.2
v 0.3 0.6 -0.2
v -0.3 0.6 -0.3
v -0.2 0.6 -0.3
v 0.2 0.6 -0.3
v 0.3 0.6 -0.3
v 0.3 0.8 -2.98023e-08
v 0.4 0.8 -2.98023e-08
v 0.3 0.8 -0.1
v 0.4 0.8 -0.1
v -0.3 0.9 0.1
v -0.2 0.9 0.1
v -0.3 0.9 -2.98023e-08
v -0.2 0.9 -2.98023e-08
v -0.3 0.9 -0.1
v -0.2 0.9 -0.1
v -0.2 1 0.1
v -0.1 1 0.1
v -0.3 1 -0.1
v -0.2 1 -0.1
v -0.3 1 -0.2
v -0.2 1 -0.2
v -0.1 1 -0.2
v -0.2 1 -0.3
v -0.1 1 -0.3
v -0.1 1.2 0.2
v 0.3 1.2 0.2
v 2.98023e-08 1.2 -0.3
v 0.3 1.2 -0.3
v -0.1 1.2 -0.4
v 2.98023e-08 1.2 -0.4

# faces
f 4/2/1 2/2/1 1/2/1
f 5/2/1 2/2/1 4/2/1
f 6/2/1 2/2/1 5/2/1
f 7/2/1 2/2/1 6/2/1
f 9/4/1 4/4/1 3/4/1
f 10/7/1 5/7/1 4/7/1
f 10/4/1 4/4/1 9/4/1
f 11/1/1 6/1/1 5/1/1
f 11/7/1 5/7/1 10/7/1
f 12/7/1 8/7/1 7/7/1
f 12/2/1 7/2/1 6/2/1
f 13/7/1 8/7/1 12/7/1
f 14/3/1 10/3/1 9/3/1
f 15/1/1 11/1/1 10/1/1
f 15/3/1 10/3/1 14/3/1
f 16/1/1 6/1/1 11/1/1
f 16/1/1 11/1/1 15/1/1
f 17/2/1 12/2/1 6/2/1
f 17/1/1 6/1/1 16/1/1
f 18/1/1 15/1/1 14/1/1
f 19/8/1 16/8/1 15/8/1
f 19/1/1 15/1/1 18/1/1
f 20/5/1 17/5/1 16/5/1
f 20/8/1 16/8/1 19/8/1
f 21/2/1 12/2/1 17/2/1
f 21/5/1 17/5/1 20/5/1
f 22/1/1 13/1/1 12/1/1
f 22/2/1 12/2/1 21/2/1
f 23/1/1 13/1/1 22/1/1
f 24/4/1 21/4/1 20/4/1
f 24/2/1 22/2/1 21/2/1
f 25/2/1 22/2/1 24/2/1
f 26/6/1 20/6/1 19/6/1
f 26/4/1 24/4/1 20/4/1
f 27/6/1 25/6/1 24/6/1
f 27/4/1 24/4/1 26/4/1
f 28/6/1 26/6/1 19/6/1
f 29/2/1 27/2/1 26/2/1
f 29/6/1 26/6/1 28/6/1
f 30/6/1 25/6/1 27/6/1
f 30/2/1 27/2/1 29/2/1
f 31/6/1 25/6/1 30/6/1
f 32/4/1 31/4/1 30/4/1
f 33/4/1 31/4/1 32/4/1
f 36/2/1 35/2/1 34/2/1
f 37/2/1 35/2/1 36/2/1
f 40/6/1 39/6/1 38/6/1
f 44/6/1 39/6/1 40/6/1
f 45/6/1 39/6/1 44/6/1
f 46/3/1 43/3/1 42/3/1
f 46/3/1 42/3/1 41/3/1
f 47/3/1 43/3/1 46/3/1
f 48/4/1 45/4/1 44/4/1
f 49/4/1 45/4/1 48/4/1
f 52/9/1 51/9/1 50/9/1
f 56/9/1 51/9/1 52/9/1
f 57/9/1 55/9/1 54/9/1
f 57/9/1 56/9/1 55/9/1
f 57/9/1 54/9/1 53/9/1
f 58/9/1 51/9/1 56/9/1
f 58/9/1 56/9/1 57/9/1
f 62/9/1 60/9/1 59/9/1
f 63/9/1 60/9/1 62/9/1
f 65/7/1 62/7/1 61/7/1
f 65/7/1 64/7/1 63/7/1
f 65/7/1 63/7/1 62/7/1
f 66/7/1 64/7/1 65/7/1
f 69/1/1 68/1/1 67/1/1
f 70/1/1 68/1/1 69/1/1
f 73/9/1 72/9/1 71/9/1
f 74/9/1 72/9/1 73/9/1
f 77/6/1 76/6/1 75/6/1
f 78/6/1 76/6/1 77/6/1
f 79/2/2 80/2/2 82/2/2
f 82/2/2 80/2/2 83/2/2
f 81/2/2 82/2/2 85/2/2
f 83/2/2 84/2/2 85/2/2
f 82/2/2 83/2/2 85/2/2
f 85/2/2 84/2/2 86/2/2
f 87/3/2 88/3/2 89/3/2
f 89/3/2 88/3/2 90/3/2
f 91/9/2 92/9/2 93/9/2
f 93/9/2 92/9/2 94/9/2
f 94/9/2 92/9/2 95/9/2
f 95/9/2 92/9/2 96/9/2
f 97/9/2 98/9/2 99/9/2
f 99/9/2 98/9/2 100/9/2
f 101/4/2 102/4/2 103/4/2
f 103/4/2 102/4/2 104/4/2
f 105/7/2 106/7/2 108/7/2
f 108/7/2 106/7/2 109/7/2
f 109/7/2 106/7/2 110/7/2
f 107/7/2 108/7/2 112/7/2
f 108/1/2 109/1/2 113/1/2
f 112/7/2 108/7/2 113/7/2
f 110/7/2 111/7/2 114/7/2
f 113/1/2 109/1/2 114/1/2
f 109/7/2 110/7/2 114/7/2
f 114/7/2 111/7/2 115/7/2
f 113/1/2 114/1/2 116/1/2
f 114/1/2 115/1/2 116/1/2
f 116/1/2 115/1/2 117/1/2
f 112/3/2 113/3/2 118/3/2
f 113/1/2 116/1/2 119/1/2
f 118/3/2 113/3/2 119/3/2
f 119/1/2 116/1/2 120/1/2
f 120/1/2 116/1/2 122/1/2
f 116/4/2 117/4/2 123/4/2
f 122/1/2 116/1/2 123/1/2
f 123/4/2 117/4/2 124/4/2
f 121/6/2 122/6/2 125/6/2
f 122/6/2 123/6/2 125/6/2
f 125/6/2 123/6/2 126/6/2
f 121/6/2 125/6/2 128/6/2
f 128/6/2 125/6/2 129/6/2
f 126/6/2 123/6/2 130/6/2
f 128/6/2 129/6/2 131/6/2
f 129/6/2 130/6/2 131/6/2
f 127/9/2 128/9/2 131/9/2
f 130/6/2 123/6/2 132/6/2
f 131/6/2 130/6/2 132/6/2
f 127/9/2 131/9/2 134/9/2
f 132/9/2 133/9/2 134/9/2
f 131/9/2 132/9/2 134/9/2
f 134/9/2 133/9/2 135/9/2
f 136/6/2 137/6/2 139/6/2
f 137/1/2 138/1/2 140/1/2
f 139/6/2 137/6/2 140/6/2
f 140/1/2 138/1/2 141/1/2
f 142/6/2 143/6/2 144/6/2
f 144/6/2 143/6/2 145/6/2
f 148/6/3 147/6/3 146/6/3
f 149/6/3 147/6/3 148/6/3
f 154/3/3 152/3/3 151/3/3
f 154/1/3 153/1/3 152/1/3
f 155/1/3 153/1/3 154/1/3
f 156/4/3 151/4/3 150/4/3
f 157/3/3 154/3/3 151/3/3
f 157/4/3 151/4/3 156/4/3
f 157/3/3 155/3/3 154/3/3
f 158/3/3 155/3/3 157/3/3
f 159/3/3 155/3/3 158/3/3
f 160/3/3 155/3/3 159/3/3
f 163/7/3 157/7/3 156/7/3
f 163/1/3 158/1/3 157/1/3
f 164/3/3 159/3/3 158/3/3
f 164/1/3 158/1/3 163/1/3
f 165/3/3 159/3/3 164/3/3
f 167/3/3 164/3/3 163/3/3
f 167/1/3 166/1/3 165/1/3
f 167/1/3 165/1/3 164/1/3
f 168/1/3 166/1/3 167/1/3
f 170/9/3 162/9/3 161/9/3
f 171/7/3 163/7/3 156/7/3
f 172/3/3 167/3/3 163/3/3
f 172/7/3 163/7/3 171/7/3
f 172/3/3 168/3/3 167/3/3
f 173/1/3 166/1/3 168/1/3
f 173/3/3 168/3/3 172/3/3
f 174/1/3 166/1/3 173/1/3
f 175/9/3 170/9/3 169/9/3
f 176/9/3 162/9/3 170/9/3
f 176/9/3 170/9/3 175/9/3
f 181/6/3 180/6/3 179/6/3
f 182/6/3 180/6/3 181/6/3
f 183/6/3 180/6/3 182/6/3
f 184/6/3 180/6/3 183/6/3
f 186/2/3 178/2/3 177/2/3
f 187/2/3 178/2/3 186/2/3
f 189/6/3 182/6/3 181/6/3
f 190/10/3 183/10/3 182/10/3
f 190/6/3 182/6/3 189/6/3
f 191/3/3 185/3/3 184/3/3
f 191/10/3 183/10/3 190/10/3
f 191/3/3 184/3/3 183/3/3
f 192/3/3 185/3/3 191/3/3
f 193/3/3 190/3/3 189/3/3
f 193/3/3 192/3/3 191/3/3
f 193/3/3 191/3/3 190/3/3
f 193/3/3 189/3/3 188/3/3
f 194/3/3 192/3/3 193/3/3
f 197/3/3 193/3/3 188/3/3
f 198/6/3 194/6/3 193/6/3
f 198/3/3 193/3/3 197/3/3
f 199/6/3 194/6/3 198/6/3
f 200/6/3 194/6/3 199/6/3
f 201/6/3 199/6/3 198/6/3
f 201/10/3 200/10/3 199/10/3
f 202/6/3 194/6/3 200/6/3
f 202/10/3 200/10/3 201/10/3
f 203/6/3 194/6/3 202/6/3
f 204/7/3 196/7/3 195/7/3
f 205/7/3 196/7/3 204/7/3
f 206/6/3 201/6/3 198/6/3
f 206/6/3 202/6/3 201/6/3
f 207/6/3 202/6/3 206/6/3
f 210/2/3 209/2/3 208/2/3
f 211/2/3 209/2/3 210/2/3
f 214/9/3 213/9/3 212/9/3
f 215/9/3 213/9/3 214/9/3
f 218/6/3 217/6/3 216/6/3
f 219/6/3 217/6/3 218/6/3
f 222/4/3 221/4/3 220/4/3
f 223/4/3 221/4/3 222/4/3
f 224/2/4 225/2/4 226/2/4
f 226/2/4 225/2/4 227/2/4
f 228/9/4 229/9/4 230/9/4
f 230/9/4 229/9/4 231/9/4
f 232/1/4 233/1/4 236/1/4
f 236/1/4 233/1/4 237/1/4
f 234/6/4 235/6/4 238/6/4
f 238/6/4 235/6/4 239/6/4
f 242/2/4 243/2/4 246/2/4
f 243/6/4 244/6/4 247/6/4
f 246/2/4 243/2/4 247/2/4
f 244/4/4 245/4/4 248/4/4
f 247/6/4 244/6/4 248/6/4
f 248/4/4 245/4/4 249/4/4
f 240/2/4 241/2/4 250/2/4
f 250/2/4 241/2/4 251/2/4
f 252/7/4 253/7/4 256/7/4
f 256/7/4 253/7/4 257/7/4
f 254/6/4 255/6/4 258/6/4
f 258/6/4 255/6/4 259/6/4
f 261/1/4 262/1/4 263/1/4
f 263/1/4 262/1/4 264/1/4
f 261/1/4 263/1/4 267/1/4
f 263/6/4 264/6/4 268/6/4
f 267/1/4 263/1/4 268/1/4
f 264/6/4 265/6/4 268/6/4
f 268/6/4 265/6/4 269/6/4
f 265/4/4 266/4/4 270/4/4
f 269/6/4 265/6/4 270/6/4
f 270/4/4 266/4/4 271/4/4
f 260/7/4 261/7/4 272/7/4
f 261/1/4 267/1/4 273/1/4
f 272/7/4 261/7/4 273/7/4
f 268/4/4 269/4/4 274/4/4
f 273/1/4 267/1/4 274/1/4
f 267/4/4 268/4/4 274/4/4
f 274/4/4 269/4/4 275/4/4
f 275/4/4 269/4/4 276/4/4
f 272/1/4 273/1/4 280/1/4
f 273/1/4 274/1/4 280/1/4
f 274/1/4 275/1/4 280/1/4
f 280/1/4 275/1/4 281/1/4
f 281/1/4 275/1/4 282/1/4
f 276/6/4 277/6/4 283/6/4
f 282/1/4 275/1/4 283/1/4
f 275/6/4 276/6/4 283/6/4
f 277/4/4 278/4/4 284/4/4
f 283/6/4 277/6/4 284/6/4
f 282/4/4 283/4/4 285/4/4
f 283/4/4 284/4/4 285/4/4
f 284/4/4 278/4/4 286/4/4
f 285/4/4 284/4/4 286/4/4
f 278/9/4 279/9/4 286/9/4
f 280/7/4 281/7/4 287/7/4
f 281/1/4 282/1/4 288/1/4
f 287/7/4 281/7/4 288/7/4
f 282/4/4 285/4/4 289/4/4
f 288/1/4 282/1/4 289/1/4
f 289/4/4 285/4/4 290/4/4
f 286/9/4 279/9/4 291/9/4
f 291/9/4 279/9/4 292/9/4
f 293/9/4 294/9/4 295/9/4
f 295/9/4 294/9/4 296/9/4
f 301/2/5 298/2/5 297/2/5
f 302/2/5 298/2/5 301/2/5
f 303/9/5 300/9/5 299/9/5
f 304/9/5 300/9/5 303/9/5
f 309/2/5 306/2/5 305/2/5
f 310/2/5 306/2/5 309/2/5
f 311/7/5 308/7/5 307/7/5
f 312/7/5 308/7/5 311/7/5
f 313/2/5 309/2/5 305/2/5
f 316/7/5 308/7/5 312/7/5
f 317/2/5 314/2/5 313/2/5
f 317/2/5 313/2/5 305/2/5
f 318/2/5 314/2/5 317/2/5
f 319/7/5 316/7/5 315/7/5
f 320/7/5 308/7/5 316/7/5
f 320/7/5 316/7/5 319/7/5
f 324/4/5 322/4/5 321/4/5
f 325/7/5 323/7/5 322/7/5
f 325/4/5 322/4/5 324/4/5
f 326/7/5 323/7/5 325/7/5
f 327/7/5 323/7/5 326/7/5
f 329/7/5 326/7/5 325/7/5
f 330/7/5 326/7/5 329/7/5
f 331/7/5 326/7/5 330/7/5
f 333/7/5 329/7/5 328/7/5
f 333/7/5 330/7/5 329/7/5
f 334/1/5 331/1/5 330/1/5
f 334/7/5 330/7/5 333/7/5
f 335/7/5 332/7/5 331/7/5
f 335/1/5 331/1/5 334/1/5
f 336/7/5 332/7/5 335/7/5
f 339/6/5 338/6/5 337/6/5
f 340/6/5 338/6/5 339/6/5
f 341/1/5 340/1/5 339/1/5
f 342/1/5 340/1/5 341/1/5
f 343/1/5 340/1/5 342/1/5
f 346/6/5 345/6/5 344/6/5
f 347/6/5 345/6/5 346/6/5
f 350/9/5 349/9/5 348/9/5
f 351/9/5 349/9/5 350/9/5
f 354/9/5 353/9/5 352/9/5
f 355/9/5 353/9/5 354/9/5
f 358/9/5 357/9/5 356/9/5
f 359/9/5 357/9/5 358/9/5
f 360/9/5 357/9/5 359/9/5
f 363/9/5 362/9/5 361/9/5
f 364/9/5 362/9/5 363/9/5
f 365/3/6 366/3/6 367/3/6
f 367/3/6 366/3/6 368/3/6
f 369/6/6 370/6/6 375/6/6
f 375/6/6 370/6/6 376/6/6
f 371/1/6 372/1/6 377/1/6
f 372/3/6 373/3/6 378/3/6
f 377/1/6 372/1/6 378/1/6
f 378/3/6 373/3/6 379/3/6
f 374/1/6 375/1/6 380/1/6
f 375/1/6 376/1/6 380/1/6
f 380/1/6 376/1/6 381/1/6
f 381/1/6 376/1/6 382/1/6
f 382/1/6 376/1/6 383/1/6
f 384/1/6 385/1/6 388/1/6
f 388/1/6 385/1/6 389/1/6
f 386/4/6 387/4/6 390/4/6
f 390/4/6 387/4/6 391/4/6
f 392/6/6 393/6/6 394/6/6
f 394/6/6 393/6/6 395/6/6
f 396/6/6 397/6/6 398/6/6
f 398/6/6 397/6/6 399/6/6
f 398/2/6 399/2/6 400/2/6
f 400/2/6 399/2/6 401/2/6
f 402/3/6 403/3/6 405/3/6
f 404/4/6 405/4/6 406/4/6
f 405/3/6 403/3/6 407/3/6
f 406/4/6 405/4/6 407/4/6
f 407/3/6 403/3/6 408/3/6
f 407/4/6 408/4/6 409/4/6
f 409/4/6 408/4/6 410/4/6
f 411/9/6 412/9/6 413/9/6
f 413/9/6 412/9/6 414/9/6
f 411/9/6 413/9/6 415/9/6
f 415/9/6 413/9/6 416/9/6
