# MagicaVoxel @ Ephtracy

# group
o 

# material
mtllib zombie7.mtl
usemtl palette

# normals
vn -1 0 0
vn 1 0 0
vn 0 0 1
vn 0 0 -1
vn 0 -1 0
vn 0 1 0

# texcoords
vt 0.00195313 0.5
vt 0.279297 0.5
vt 0.533203 0.5
vt 0.677734 0.5
vt 0.837891 0.5
vt 0.841797 0.5
vt 0.857422 0.5
vt 0.861328 0.5
vt 0.869141 0.5
vt 0.986328 0.5
vt 0.990234 0.5
vt 0.994141 0.5

# verts
v -0.4 0.7 -2.98023e-08
v -0.4 0.7 -0.1
v -0.4 0.7 -0.3
v -0.4 0.8 -2.98023e-08
v -0.4 0.8 -0.1
v -0.4 0.9 0.1
v -0.4 0.9 -2.98023e-08
v -0.4 1 0.1
v -0.4 1 -0.3
v -0.3 0.1 0.1
v -0.3 0.1 -0.2
v -0.3 0.2 0.2
v -0.3 0.2 0.1
v -0.3 0.2 -0.2
v -0.3 0.2 -0.3
v -0.3 0.3 0.2
v -0.3 0.3 -2.98023e-08
v -0.3 0.3 -0.1
v -0.3 0.3 -0.3
v -0.3 0.4 -2.98023e-08
v -0.3 0.4 -0.1
v -0.3 0.5 -2.98023e-08
v -0.3 0.5 -0.1
v -0.3 0.6 0.2
v -0.3 0.6 0.1
v -0.3 0.6 -2.98023e-08
v -0.3 0.6 -0.1
v -0.3 0.6 -0.2
v -0.3 0.6 -0.3
v -0.3 0.7 -2.98023e-08
v -0.3 0.7 -0.1
v -0.3 0.7 -0.2
v -0.3 0.7 -0.3
v -0.3 0.7 -0.4
v -0.3 0.8 -2.98023e-08
v -0.3 0.9 0.2
v -0.3 0.9 0.1
v -0.3 0.9 -2.98023e-08
v -0.3 1 0.2
v -0.3 1 0.1
v -0.3 1 -0.3
v -0.3 1 -0.4
v -0.2 0 -2.98023e-08
v -0.2 0 -0.1
v -0.2 0.1 -2.98023e-08
v -0.2 0.1 -0.1
v -0.2 0.6 -0.2
v -0.2 0.6 -0.3
v -0.2 0.7 -0.2
v -0.2 0.7 -0.3
v -0.2 1.1 -0.1
v -0.2 1.1 -0.2
v -0.2 1.2 -0.1
v -0.2 1.2 -0.2
v -0.1 1 0.1
v -0.1 1 -0.1
v -0.1 1 -0.3
v -0.1 1.1 0.1
v -0.1 1.1 -0.1
v -0.1 1.1 -0.2
v -0.1 1.1 -0.3
v 0.1 0.1 0.1
v 0.1 0.1 -2.98023e-08
v 0.1 0.1 -0.2
v 0.1 0.2 0.1
v 0.1 0.2 -2.98023e-08
v 0.1 0.2 -0.2
v 0.1 0.3 0.2
v 0.1 0.3 0.1
v 0.1 0.4 0.2
v 0.1 0.4 0.1
v 0.2 0.7 0.1
v 0.2 0.7 -2.98023e-08
v 0.2 0.8 0.1
v 0.2 0.8 -2.98023e-08
v 0.3 0.5 0.3
v 0.3 0.5 0.2
v 0.3 0.6 0.3
v 0.3 0.6 0.2
v -0.2 0.9 0.2
v -0.2 0.9 0.1
v -0.2 1 0.2
v -0.2 1 0.1
v -0.1 0 -2.98023e-08
v -0.1 0 -0.1
v -0.1 0.1 0.1
v -0.1 0.1 -2.98023e-08
v -0.1 0.1 -0.1
v -0.1 0.1 -0.2
v -0.1 0.2 0.1
v -0.1 0.2 -2.98023e-08
v -0.1 0.2 -0.2
v 0 0.3 0.2
v 0 0.3 0.1
v 0 0.4 0.2
v 0 0.4 0.1
v 0.1 0.7 0.1
v 0.1 0.7 -2.98023e-08
v 0.1 0.8 0.1
v 0.1 0.8 -2.98023e-08
v 0.1 1.1 -0.1
v 0.1 1.1 -0.2
v 0.1 1.2 -0.1
v 0.1 1.2 -0.2
v 0.2 0.6 -0.2
v 0.2 0.6 -0.3
v 0.2 0.7 -0.2
v 0.2 0.7 -0.3
v 0.2 0.7 -0.4
v 0.2 1 -0.2
v 0.2 1 -0.3
v 0.2 1 -0.4
v 0.2 1.1 -0.2
v 0.2 1.1 -0.3
v 0.3 0.1 0.1
v 0.3 0.1 -0.1
v 0.3 0.1 -0.2
v 0.3 0.2 0.2
v 0.3 0.2 0.1
v 0.3 0.2 -0.1
v 0.3 0.2 -0.2
v 0.3 0.2 -0.3
v 0.3 0.3 0.2
v 0.3 0.3 -0.3
v 0.3 0.5 0.2
v 0.3 0.5 -0.1
v 0.3 0.6 0.1
v 0.3 0.6 -0.1
v 0.3 0.6 -0.2
v 0.3 0.6 -0.3
v 0.3 0.7 -2.98023e-08
v 0.3 0.7 -0.1
v 0.3 0.7 -0.2
v 0.3 0.7 -0.3
v 0.3 0.8 -2.98023e-08
v 0.3 0.8 -0.1
v 0.3 0.9 0.1
v 0.3 0.9 -0.2
v 0.3 1 -0.2
v 0.3 1 -0.3
v 0.3 1.1 0.1
v 0.3 1.1 -0.2
v 0.4 0.5 0.3
v 0.4 0.5 0.2
v 0.4 0.5 -0.1
v 0.4 0.6 0.3
v 0.4 0.6 0.2
v 0.4 0.6 -0.1
v 0.3 0.5 0.3
v 0.3 0.6 0.3
v 0.4 0.5 0.3
v 0.4 0.6 0.3
v -0.3 0.2 0.2
v -0.3 0.3 0.2
v -0.3 0.6 0.2
v -0.3 0.9 0.2
v -0.3 1 0.2
v -0.2 0.2 0.2
v -0.2 0.3 0.2
v -0.2 0.4 0.2
v -0.2 0.9 0.2
v -0.2 1 0.2
v -0.1 0.4 0.2
v -0.1 0.5 0.2
v 0 0.3 0.2
v 0 0.4 0.2
v 0.1 0.2 0.2
v 0.1 0.3 0.2
v 0.1 0.4 0.2
v 0.1 0.5 0.2
v 0.2 0.3 0.2
v 0.2 0.4 0.2
v 0.3 0.2 0.2
v 0.3 0.3 0.2
v 0.3 0.5 0.2
v 0.3 0.6 0.2
v -0.4 0.9 0.1
v -0.4 1 0.1
v -0.3 0.1 0.1
v -0.3 0.2 0.1
v -0.3 0.6 0.1
v -0.3 0.9 0.1
v -0.3 1 0.1
v -0.2 0.1 0.1
v -0.2 0.2 0.1
v -0.2 0.7 0.1
v -0.2 0.8 0.1
v -0.2 0.9 0.1
v -0.2 1 0.1
v -0.1 0.1 0.1
v -0.1 0.2 0.1
v -0.1 0.7 0.1
v -0.1 0.8 0.1
v -0.1 0.9 0.1
v -0.1 1 0.1
v -0.1 1.1 0.1
v 0 0.3 0.1
v 0 0.4 0.1
v 0.1 0.1 0.1
v 0.1 0.2 0.1
v 0.1 0.3 0.1
v 0.1 0.4 0.1
v 0.1 0.6 0.1
v 0.1 0.7 0.1
v 0.1 0.8 0.1
v 0.2 0.1 0.1
v 0.2 0.2 0.1
v 0.2 0.6 0.1
v 0.2 0.7 0.1
v 0.2 0.8 0.1
v 0.2 0.9 0.1
v 0.2 1 0.1
v 0.3 0.1 0.1
v 0.3 0.2 0.1
v 0.3 0.6 0.1
v 0.3 0.9 0.1
v 0.3 1.1 0.1
v -0.4 0.7 -2.98023e-08
v -0.4 0.8 -2.98023e-08
v -0.4 0.9 -2.98023e-08
v -0.3 0.7 -2.98023e-08
v -0.3 0.8 -2.98023e-08
v -0.3 0.9 -2.98023e-08
v -0.2 0 -2.98023e-08
v -0.2 0.1 -2.98023e-08
v -0.1 0 -2.98023e-08
v -0.1 0.1 -2.98023e-08
v 0.1 0.7 -2.98023e-08
v 0.1 0.8 -2.98023e-08
v 0.2 0.7 -2.98023e-08
v 0.2 0.8 -2.98023e-08
v -0.2 1.1 -0.1
v -0.2 1.2 -0.1
v -0.1 1.1 -0.1
v 0.1 1.1 -0.1
v 0.1 1.2 -0.1
v -0.2 0 -0.1
v -0.2 0.1 -0.1
v -0.1 0 -0.1
v -0.1 0.1 -0.1
v 0.3 0.5 -0.1
v 0.3 0.6 -0.1
v 0.4 0.5 -0.1
v 0.4 0.6 -0.1
v -0.3 0.1 -0.2
v -0.3 0.2 -0.2
v -0.3 0.6 -0.2
v -0.3 0.7 -0.2
v -0.2 0.6 -0.2
v -0.2 0.7 -0.2
v -0.2 1.1 -0.2
v -0.2 1.2 -0.2
v -0.1 0.1 -0.2
v -0.1 0.2 -0.2
v -0.1 1.1 -0.2
v 0.1 0.1 -0.2
v 0.1 0.2 -0.2
v 0.1 1.1 -0.2
v 0.1 1.2 -0.2
v 0.2 0.1 -0.2
v 0.2 0.2 -0.2
v 0.2 0.6 -0.2
v 0.2 0.7 -0.2
v 0.2 1 -0.2
v 0.2 1.1 -0.2
v 0.3 0.1 -0.2
v 0.3 0.2 -0.2
v 0.3 0.6 -0.2
v 0.3 0.7 -0.2
v 0.3 1 -0.2
v 0.3 1.1 -0.2
v -0.4 0.7 -0.3
v -0.4 1 -0.3
v -0.3 0.2 -0.3
v -0.3 0.3 -0.3
v -0.3 0.6 -0.3
v -0.3 0.7 -0.3
v -0.3 1 -0.3
v -0.2 0.6 -0.3
v -0.2 0.7 -0.3
v -0.1 1 -0.3
v -0.1 1.1 -0.3
v 0.2 0.6 -0.3
v 0.2 0.7 -0.3
v 0.2 1 -0.3
v 0.2 1.1 -0.3
v 0.3 0.2 -0.3
v 0.3 0.3 -0.3
v 0.3 0.6 -0.3
v 0.3 0.7 -0.3
v 0.3 1 -0.3
v -0.3 0.7 -0.4
v -0.3 1 -0.4
v 0.2 0.7 -0.4
v 0.2 1 -0.4
v -0.2 0 -2.98023e-08
v -0.1 0 -2.98023e-08
v -0.2 0 -0.1
v -0.1 0 -0.1
v -0.3 0.1 0.1
v -0.2 0.1 0.1
v -0.1 0.1 0.1
v 0.1 0.1 0.1
v 0.2 0.1 0.1
v 0.3 0.1 0.1
v -0.2 0.1 -2.98023e-08
v -0.1 0.1 -2.98023e-08
v 0.1 0.1 -2.98023e-08
v 0.2 0.1 -2.98023e-08
v -0.2 0.1 -0.1
v -0.1 0.1 -0.1
v 0.2 0.1 -0.1
v 0.3 0.1 -0.1
v -0.3 0.1 -0.2
v -0.1 0.1 -0.2
v 0.1 0.1 -0.2
v 0.2 0.1 -0.2
v 0.3 0.1 -0.2
v -0.3 0.2 0.2
v -0.2 0.2 0.2
v 0.1 0.2 0.2
v 0.3 0.2 0.2
v -0.3 0.2 0.1
v -0.2 0.2 0.1
v -0.1 0.2 0.1
v 0.1 0.2 0.1
v 0.2 0.2 0.1
v 0.3 0.2 0.1
v -0.1 0.2 -2.98023e-08
v 0.1 0.2 -2.98023e-08
v -0.3 0.2 -0.2
v -0.1 0.2 -0.2
v 0.1 0.2 -0.2
v 0.2 0.2 -0.2
v 0.3 0.2 -0.2
v -0.3 0.2 -0.3
v 0.3 0.2 -0.3
v 0 0.4 0.2
v 0.1 0.4 0.2
v 0 0.4 0.1
v 0.1 0.4 0.1
v 0.3 0.5 0.3
v 0.4 0.5 0.3
v 0.3 0.5 0.2
v 0.4 0.5 0.2
v 0.3 0.5 -0.1
v 0.4 0.5 -0.1
v -0.4 0.7 -2.98023e-08
v -0.3 0.7 -2.98023e-08
v -0.4 0.7 -0.1
v -0.3 0.7 -0.1
v -0.3 0.7 -0.2
v -0.2 0.7 -0.2
v 0.2 0.7 -0.2
v 0.3 0.7 -0.2
v -0.4 0.7 -0.3
v -0.3 0.7 -0.3
v -0.2 0.7 -0.3
v 0.2 0.7 -0.3
v 0.3 0.7 -0.3
v -0.3 0.7 -0.4
v 0.2 0.7 -0.4
v 0.1 0.8 0.1
v 0.2 0.8 0.1
v 0.1 0.8 -2.98023e-08
v 0.2 0.8 -2.98023e-08
v -0.3 0.9 0.2
v -0.2 0.9 0.2
v -0.4 0.9 0.1
v -0.3 0.9 0.1
v -0.2 0.9 0.1
v -0.4 0.9 -2.98023e-08
v -0.3 0.9 -2.98023e-08
v -0.2 1.1 -0.1
v -0.1 1.1 -0.1
v -0.2 1.1 -0.2
v -0.1 1.1 -0.2
v 0 0.3 0.2
v 0.1 0.3 0.2
v 0 0.3 0.1
v 0.1 0.3 0.1
v 0.3 0.6 0.3
v 0.4 0.6 0.3
v -0.3 0.6 0.2
v 0.3 0.6 0.2
v 0.4 0.6 0.2
v -0.3 0.6 0.1
v 0.1 0.6 0.1
v 0.2 0.6 0.1
v 0.3 0.6 0.1
v 0.3 0.6 -0.1
v 0.4 0.6 -0.1
v -0.3 0.6 -0.2
v -0.2 0.6 -0.2
v 0.2 0.6 -0.2
v 0.3 0.6 -0.2
v -0.3 0.6 -0.3
v -0.2 0.6 -0.3
v 0.2 0.6 -0.3
v 0.3 0.6 -0.3
v 0.1 0.7 0.1
v 0.2 0.7 0.1
v 0.1 0.7 -2.98023e-08
v 0.2 0.7 -2.98023e-08
v -0.3 1 0.2
v -0.2 1 0.2
v -0.4 1 0.1
v -0.3 1 0.1
v -0.2 1 0.1
v -0.1 1 0.1
v -0.3 1 -0.1
v -0.2 1 -0.1
v -0.1 1 -0.1
v -0.3 1 -0.2
v -0.2 1 -0.2
v 0.2 1 -0.2
v 0.3 1 -0.2
v -0.4 1 -0.3
v -0.3 1 -0.3
v -0.2 1 -0.3
v -0.1 1 -0.3
v 0.2 1 -0.3
v 0.3 1 -0.3
v -0.3 1 -0.4
v 0.2 1 -0.4
v -0.1 1.1 0.1
v 0.3 1.1 0.1
v -0.1 1.1 -0.1
v 0.1 1.1 -0.1
v -0.1 1.1 -0.2
v 0.1 1.1 -0.2
v 0.2 1.1 -0.2
v 0.3 1.1 -0.2
v -0.1 1.1 -0.3
v 0.2 1.1 -0.3
v -0.2 1.2 -0.1
v 0.1 1.2 -0.1
v -0.2 1.2 -0.2
v 0.1 1.2 -0.2

# faces
f 4/1/1 2/1/1 1/1/1
f 5/3/1 3/3/1 2/3/1
f 5/1/1 2/1/1 4/1/1
f 7/3/1 5/3/1 4/3/1
f 8/3/1 7/3/1 6/3/1
f 9/3/1 3/3/1 5/3/1
f 9/3/1 7/3/1 8/3/1
f 9/3/1 5/3/1 7/3/1
f 13/4/1 11/4/1 10/4/1
f 14/4/1 11/4/1 13/4/1
f 16/4/1 13/4/1 12/4/1
f 16/4/1 15/4/1 14/4/1
f 16/4/1 14/4/1 13/4/1
f 17/4/1 15/4/1 16/4/1
f 18/4/1 15/4/1 17/4/1
f 19/4/1 15/4/1 18/4/1
f 20/5/1 17/5/1 16/5/1
f 20/6/1 18/6/1 17/6/1
f 21/5/1 19/5/1 18/5/1
f 21/6/1 18/6/1 20/6/1
f 22/5/1 20/5/1 16/5/1
f 22/8/1 21/8/1 20/8/1
f 23/5/1 19/5/1 21/5/1
f 23/8/1 21/8/1 22/8/1
f 24/5/1 22/5/1 16/5/1
f 25/5/1 22/5/1 24/5/1
f 26/9/1 23/9/1 22/9/1
f 26/5/1 22/5/1 25/5/1
f 27/5/1 19/5/1 23/5/1
f 27/9/1 23/9/1 26/9/1
f 28/5/1 19/5/1 27/5/1
f 29/5/1 19/5/1 28/5/1
f 30/1/1 26/1/1 25/1/1
f 30/1/1 28/1/1 27/1/1
f 30/1/1 27/1/1 26/1/1
f 31/1/1 28/1/1 30/1/1
f 32/1/1 28/1/1 31/1/1
f 35/1/1 30/1/1 25/1/1
f 37/1/1 35/1/1 25/1/1
f 38/1/1 35/1/1 37/1/1
f 39/3/1 37/3/1 36/3/1
f 40/3/1 37/3/1 39/3/1
f 41/3/1 34/3/1 33/3/1
f 42/3/1 34/3/1 41/3/1
f 45/11/1 44/11/1 43/11/1
f 46/11/1 44/11/1 45/11/1
f 49/1/1 48/1/1 47/1/1
f 50/1/1 48/1/1 49/1/1
f 53/3/1 52/3/1 51/3/1
f 54/3/1 52/3/1 53/3/1
f 58/3/1 56/3/1 55/3/1
f 58/3/1 57/3/1 56/3/1
f 59/3/1 57/3/1 58/3/1
f 60/3/1 57/3/1 59/3/1
f 61/3/1 57/3/1 60/3/1
f 65/9/1 63/9/1 62/9/1
f 66/8/1 64/8/1 63/8/1
f 66/9/1 63/9/1 65/9/1
f 67/8/1 64/8/1 66/8/1
f 70/2/1 69/2/1 68/2/1
f 71/2/1 69/2/1 70/2/1
f 74/1/1 73/1/1 72/1/1
f 75/1/1 73/1/1 74/1/1
f 78/2/1 77/2/1 76/2/1
f 79/2/1 77/2/1 78/2/1
f 80/3/2 81/3/2 82/3/2
f 82/3/2 81/3/2 83/3/2
f 84/11/2 85/11/2 87/11/2
f 87/11/2 85/11/2 88/11/2
f 86/7/2 87/7/2 90/7/2
f 88/4/2 89/4/2 91/4/2
f 90/7/2 87/7/2 91/7/2
f 87/4/2 88/4/2 91/4/2
f 91/4/2 89/4/2 92/4/2
f 93/2/2 94/2/2 95/2/2
f 95/2/2 94/2/2 96/2/2
f 97/1/2 98/1/2 99/1/2
f 99/1/2 98/1/2 100/1/2
f 101/3/2 102/3/2 103/3/2
f 103/3/2 102/3/2 104/3/2
f 105/1/2 106/1/2 107/1/2
f 107/1/2 106/1/2 108/1/2
f 108/3/2 109/3/2 111/3/2
f 111/3/2 109/3/2 112/3/2
f 110/3/2 111/3/2 113/3/2
f 113/3/2 111/3/2 114/3/2
f 115/8/2 116/8/2 119/8/2
f 116/9/2 117/9/2 120/9/2
f 119/8/2 116/8/2 120/8/2
f 120/9/2 117/9/2 121/9/2
f 118/4/2 119/4/2 123/4/2
f 121/4/2 122/4/2 123/4/2
f 120/4/2 121/4/2 123/4/2
f 119/4/2 120/4/2 123/4/2
f 123/4/2 122/4/2 124/4/2
f 123/5/2 124/5/2 125/5/2
f 125/5/2 124/5/2 126/5/2
f 126/5/2 124/5/2 128/5/2
f 128/5/2 124/5/2 129/5/2
f 129/5/2 124/5/2 130/5/2
f 127/1/2 128/1/2 131/1/2
f 128/1/2 129/1/2 131/1/2
f 131/1/2 129/1/2 132/1/2
f 132/1/2 129/1/2 133/1/2
f 127/1/2 131/1/2 135/1/2
f 131/8/2 132/8/2 135/8/2
f 132/1/2 133/1/2 136/1/2
f 135/8/2 132/8/2 136/8/2
f 127/1/2 135/1/2 137/1/2
f 135/1/2 136/1/2 137/1/2
f 133/3/2 134/3/2 138/3/2
f 137/1/2 136/1/2 138/1/2
f 136/1/2 133/1/2 138/1/2
f 137/3/2 138/3/2 139/3/2
f 138/3/2 134/3/2 139/3/2
f 139/3/2 134/3/2 140/3/2
f 137/3/2 139/3/2 141/3/2
f 141/3/2 139/3/2 142/3/2
f 143/2/2 144/2/2 146/2/2
f 144/10/2 145/10/2 147/10/2
f 146/2/2 144/2/2 147/2/2
f 147/10/2 145/10/2 148/10/2
f 151/2/3 150/2/3 149/2/3
f 152/2/3 150/2/3 151/2/3
f 158/4/3 154/4/3 153/4/3
f 159/5/3 155/5/3 154/5/3
f 159/4/3 154/4/3 158/4/3
f 160/5/3 155/5/3 159/5/3
f 161/3/3 157/3/3 156/3/3
f 162/3/3 157/3/3 161/3/3
f 163/5/3 155/5/3 160/5/3
f 163/2/3 160/2/3 159/2/3
f 164/5/3 155/5/3 163/5/3
f 165/7/3 159/7/3 158/7/3
f 165/2/3 163/2/3 159/2/3
f 165/2/3 164/2/3 163/2/3
f 166/2/3 164/2/3 165/2/3
f 167/7/3 165/7/3 158/7/3
f 168/7/3 165/7/3 167/7/3
f 169/2/3 164/2/3 166/2/3
f 170/5/3 155/5/3 164/5/3
f 170/2/3 164/2/3 169/2/3
f 171/2/3 169/2/3 168/2/3
f 171/4/3 168/4/3 167/4/3
f 172/5/3 170/5/3 169/5/3
f 172/2/3 169/2/3 171/2/3
f 173/4/3 171/4/3 167/4/3
f 174/5/3 172/5/3 171/5/3
f 174/4/3 171/4/3 173/4/3
f 175/5/3 155/5/3 170/5/3
f 175/5/3 172/5/3 174/5/3
f 175/5/3 170/5/3 172/5/3
f 176/5/3 155/5/3 175/5/3
f 182/3/3 178/3/3 177/3/3
f 183/3/3 178/3/3 182/3/3
f 184/4/3 180/4/3 179/4/3
f 185/4/3 180/4/3 184/4/3
f 186/1/3 182/1/3 181/1/3
f 187/1/3 182/1/3 186/1/3
f 188/1/3 182/1/3 187/1/3
f 190/7/3 185/7/3 184/7/3
f 191/7/3 185/7/3 190/7/3
f 192/1/3 186/1/3 181/1/3
f 192/12/3 187/12/3 186/12/3
f 193/1/3 188/1/3 187/1/3
f 193/12/3 187/12/3 192/12/3
f 194/7/3 189/7/3 188/7/3
f 194/1/3 188/1/3 193/1/3
f 195/7/3 189/7/3 194/7/3
f 201/2/3 198/2/3 197/2/3
f 202/2/3 198/2/3 201/2/3
f 203/1/3 195/1/3 194/1/3
f 203/1/3 193/1/3 192/1/3
f 203/1/3 192/1/3 181/1/3
f 203/1/3 194/1/3 193/1/3
f 204/1/3 195/1/3 203/1/3
f 205/1/3 195/1/3 204/1/3
f 206/9/3 200/9/3 199/9/3
f 207/9/3 200/9/3 206/9/3
f 208/7/3 204/7/3 203/7/3
f 209/7/3 204/7/3 208/7/3
f 210/1/3 195/1/3 205/1/3
f 211/1/3 195/1/3 210/1/3
f 212/3/3 196/3/3 195/3/3
f 212/1/3 195/1/3 211/1/3
f 213/8/3 207/8/3 206/8/3
f 214/8/3 207/8/3 213/8/3
f 215/1/3 209/1/3 208/1/3
f 215/1/3 211/1/3 210/1/3
f 215/1/3 210/1/3 209/1/3
f 216/3/3 212/3/3 211/3/3
f 216/1/3 211/1/3 215/1/3
f 217/3/3 196/3/3 212/3/3
f 217/3/3 212/3/3 216/3/3
f 221/1/3 219/1/3 218/1/3
f 222/3/3 220/3/3 219/3/3
f 222/1/3 219/1/3 221/1/3
f 223/3/3 220/3/3 222/3/3
f 226/11/3 225/11/3 224/11/3
f 227/11/3 225/11/3 226/11/3
f 230/10/3 229/10/3 228/10/3
f 231/10/3 229/10/3 230/10/3
f 234/3/3 233/3/3 232/3/3
f 235/3/3 233/3/3 234/3/3
f 236/3/3 233/3/3 235/3/3
f 237/11/4 238/11/4 239/11/4
f 239/11/4 238/11/4 240/11/4
f 241/10/4 242/10/4 243/10/4
f 243/10/4 242/10/4 244/10/4
f 247/1/4 248/1/4 249/1/4
f 249/1/4 248/1/4 250/1/4
f 245/4/4 246/4/4 253/4/4
f 253/4/4 246/4/4 254/4/4
f 251/3/4 252/3/4 255/3/4
f 255/3/4 252/3/4 258/3/4
f 258/3/4 252/3/4 259/3/4
f 256/8/4 257/8/4 260/8/4
f 260/8/4 257/8/4 261/8/4
f 260/9/4 261/9/4 266/9/4
f 266/9/4 261/9/4 267/9/4
f 262/1/4 263/1/4 268/1/4
f 268/1/4 263/1/4 269/1/4
f 264/3/4 265/3/4 270/3/4
f 270/3/4 265/3/4 271/3/4
f 272/3/4 273/3/4 277/3/4
f 277/3/4 273/3/4 278/3/4
f 275/5/4 276/5/4 279/5/4
f 279/1/4 280/1/4 283/1/4
f 275/5/4 279/5/4 283/5/4
f 283/1/4 280/1/4 284/1/4
f 281/3/4 282/3/4 285/3/4
f 285/3/4 282/3/4 286/3/4
f 274/4/4 275/4/4 287/4/4
f 275/5/4 283/5/4 288/5/4
f 287/4/4 275/4/4 288/4/4
f 288/5/4 283/5/4 289/5/4
f 284/3/4 285/3/4 290/3/4
f 290/3/4 285/3/4 291/3/4
f 292/3/4 293/3/4 294/3/4
f 294/3/4 293/3/4 295/3/4
f 298/11/5 297/11/5 296/11/5
f 299/11/5 297/11/5 298/11/5
f 306/4/5 301/4/5 300/4/5
f 306/7/5 302/7/5 301/7/5
f 307/7/5 302/7/5 306/7/5
f 308/9/5 304/9/5 303/9/5
f 309/8/5 305/8/5 304/8/5
f 309/9/5 304/9/5 308/9/5
f 310/4/5 306/4/5 300/4/5
f 312/8/5 305/8/5 309/8/5
f 312/8/5 309/8/5 308/8/5
f 313/8/5 305/8/5 312/8/5
f 314/4/5 311/4/5 310/4/5
f 314/4/5 310/4/5 300/4/5
f 315/4/5 311/4/5 314/4/5
f 316/8/5 312/8/5 308/8/5
f 317/9/5 313/9/5 312/9/5
f 317/8/5 312/8/5 316/8/5
f 318/9/5 313/9/5 317/9/5
f 323/4/5 320/4/5 319/4/5
f 324/7/5 321/7/5 320/7/5
f 324/4/5 320/4/5 323/4/5
f 325/7/5 321/7/5 324/7/5
f 326/4/5 322/4/5 321/4/5
f 326/7/5 321/7/5 325/7/5
f 327/4/5 322/4/5 326/4/5
f 328/4/5 322/4/5 327/4/5
f 329/4/5 326/4/5 325/4/5
f 330/4/5 326/4/5 329/4/5
f 332/4/5 330/4/5 329/4/5
f 333/4/5 330/4/5 332/4/5
f 336/4/5 333/4/5 332/4/5
f 336/4/5 335/4/5 334/4/5
f 336/4/5 334/4/5 333/4/5
f 336/4/5 332/4/5 331/4/5
f 337/4/5 335/4/5 336/4/5
f 340/2/5 339/2/5 338/2/5
f 341/2/5 339/2/5 340/2/5
f 344/2/5 343/2/5 342/2/5
f 345/2/5 343/2/5 344/2/5
f 346/10/5 345/10/5 344/10/5
f 347/10/5 345/10/5 346/10/5
f 350/1/5 349/1/5 348/1/5
f 351/1/5 349/1/5 350/1/5
f 352/3/5 351/3/5 350/3/5
f 356/3/5 352/3/5 350/3/5
f 356/3/5 353/3/5 352/3/5
f 357/3/5 353/3/5 356/3/5
f 358/3/5 353/3/5 357/3/5
f 359/3/5 355/3/5 354/3/5
f 360/3/5 355/3/5 359/3/5
f 361/3/5 358/3/5 357/3/5
f 361/3/5 359/3/5 358/3/5
f 362/3/5 359/3/5 361/3/5
f 365/1/5 364/1/5 363/1/5
f 366/1/5 364/1/5 365/1/5
f 370/3/5 368/3/5 367/3/5
f 371/3/5 368/3/5 370/3/5
f 372/3/5 370/3/5 369/3/5
f 373/3/5 370/3/5 372/3/5
f 376/3/5 375/3/5 374/3/5
f 377/3/5 375/3/5 376/3/5
f 378/7/6 379/7/6 380/7/6
f 380/7/6 379/7/6 381/7/6
f 382/2/6 383/2/6 385/2/6
f 385/2/6 383/2/6 386/2/6
f 384/5/6 385/5/6 387/5/6
f 387/5/6 385/5/6 388/5/6
f 388/5/6 385/5/6 389/5/6
f 385/10/6 386/10/6 390/10/6
f 389/5/6 385/5/6 390/5/6
f 390/10/6 386/10/6 391/10/6
f 391/10/6 386/10/6 392/10/6
f 393/5/6 394/5/6 397/5/6
f 397/5/6 394/5/6 398/5/6
f 395/5/6 396/5/6 399/5/6
f 399/5/6 396/5/6 400/5/6
f 401/7/6 402/7/6 403/7/6
f 403/7/6 402/7/6 404/7/6
f 405/3/6 406/3/6 408/3/6
f 408/3/6 406/3/6 409/3/6
f 407/3/6 408/3/6 411/3/6
f 408/1/6 409/1/6 411/1/6
f 409/7/6 410/7/6 412/7/6
f 411/1/6 409/1/6 412/1/6
f 412/7/6 410/7/6 413/7/6
f 407/3/6 411/3/6 414/3/6
f 411/7/6 412/7/6 414/7/6
f 412/1/6 413/1/6 415/1/6
f 414/7/6 412/7/6 415/7/6
f 407/3/6 414/3/6 418/3/6
f 414/3/6 415/3/6 418/3/6
f 418/3/6 415/3/6 419/3/6
f 415/1/6 413/1/6 420/1/6
f 419/3/6 415/3/6 420/3/6
f 420/1/6 413/1/6 421/1/6
f 416/3/6 417/3/6 422/3/6
f 422/3/6 417/3/6 423/3/6
f 420/3/6 421/3/6 424/3/6
f 421/3/6 422/3/6 424/3/6
f 419/3/6 420/3/6 424/3/6
f 424/3/6 422/3/6 425/3/6
f 426/3/6 427/3/6 428/3/6
f 428/3/6 427/3/6 429/3/6
f 429/3/6 427/3/6 431/3/6
f 431/3/6 427/3/6 432/3/6
f 432/3/6 427/3/6 433/3/6
f 430/3/6 431/3/6 434/3/6
f 431/3/6 432/3/6 434/3/6
f 434/3/6 432/3/6 435/3/6
f 436/3/6 437/3/6 438/3/6
f 438/3/6 437/3/6 439/3/6
